<?xml version="1.0" encoding="UTF-8" standalone="no"?>
<!-- Created with Inkscape (http://www.inkscape.org/) -->
<svg id="svg2403" xmlns:rdf="http://www.w3.org/1999/02/22-rdf-syntax-ns#" xmlns="http://www.w3.org/2000/svg" xml:space="preserve" height="541.48" width="541.48" version="1.0" xmlns:cc="http://creativecommons.org/ns#" xmlns:xlink="http://www.w3.org/1999/xlink" xmlns:dc="http://purl.org/dc/elements/1.1/"><metadata id="metadata2408"><rdf:RDF><cc:Work rdf:about=""><dc:format>image/svg+xml</dc:format><dc:type rdf:resource="http://purl.org/dc/dcmitype/StillImage"/></cc:Work></rdf:RDF></metadata><defs id="defs2406"><clipPath id="clipPath2462" clipPathUnits="userSpaceOnUse"><path id="path2464" d="m0 0z"/></clipPath><clipPath id="clipPath2556" clipPathUnits="userSpaceOnUse"><path id="path2558" d="m0 0z"/></clipPath><clipPath id="clipPath11392" clipPathUnits="userSpaceOnUse"><path id="path11394" d="m0 0z"/></clipPath><clipPath id="clipPath8976" clipPathUnits="userSpaceOnUse"><path id="path8978" d="m0 0z"/></clipPath><radialGradient id="radialGradient18143" gradientUnits="userSpaceOnUse" cy="139.37" cx="99.958" gradientTransform="matrix(-.21405 1.3758 -1.2457 -.19403 303.11 18.169)" r="45.07"><stop id="stop4611" stop-opacity="0" offset="0"/><stop id="stop4623" stop-opacity=".023529" offset=".49270"/><stop id="stop4621" stop-opacity=".035294" offset=".57087"/><stop id="stop4619" stop-opacity=".066667" offset=".63646"/><stop id="stop4617" stop-opacity=".14894" offset=".69579"/><stop id="stop4625" stop-opacity=".21277" offset=".73030"/><stop id="stop4613" stop-opacity=".54610" offset="1"/></radialGradient></defs><g id="g2412" transform="matrix(1.25 0 0 -1.25 -89.27 630.74)"><g id="g2456" transform="matrix(.99077 0 0 .99077 2.6595 2.6594)"><g id="g2458"><g id="g2460" clip-path="url(#clipPath2462)"><text id="text2466" transform="matrix(1 0 0 -1 47.37 20.402)"><tspan id="tspan2468" font-size="7.92px" y="0" x="0 3.96 7.9200001 11.88 15.84 17.82 20.900881 24.86088 28.820881 30.80088 34.76088 38.720879 40.700878 44.660881 48.62088 50.822639 54.782639 58.742641 60.944401 64.904404" font-family="Times" fill="#ffffff">2008 Jun 12 03:54:25</tspan></text>
</g></g></g><g id="g2550" transform="matrix(.99077 0 0 .99077 2.6595 2.6594)"><g id="g2552"><g id="g2554" clip-path="url(#clipPath2556)"><text id="text2560" transform="matrix(1 0 0 -1 134.16 20.88)"><tspan id="tspan2562" font-size="6.96px" y="0" x="0 5.0251198 11.21256 15.85488 17.594879 19.91256 21.652559 27.84 30.930241 33.247921 35.1828 37.11768 40.597679 42.337681 48.907921 51.998161 53.933041 57.41304 60.503281 62.43816" font-family="Times" fill="#000000">OMC - Martin Weinelt</tspan></text>
</g></g></g><g id="g2834" transform="matrix(.99077 0 0 .99077 2.6595 2.6594)"><path id="path2836" d="m356.4 381.6v0.24-0.24z" fill="#137ac9"/></g><g id="g3062" transform="matrix(.99077 0 0 .99077 2.6595 2.6594)"><path id="path3064" d="m335.52 450.72h-0.24 0.24z" fill="#fcc407"/></g><g id="g3474" transform="matrix(.99077 0 0 .99077 2.6595 2.6594)"><path id="path3476" d="m258.48 406.32v0.24-0.24z" fill="#fcc407"/></g><g id="g3710" transform="matrix(.99077 0 0 .99077 2.6595 2.6594)"><path id="path3712" d="m254.64 375.84h0.24-0.24z" fill="#fcc407"/></g><g id="g3810" transform="matrix(.99077 0 0 .99077 2.6595 2.6594)"><path id="path3812" d="m244.08 288.72v0.24-0.24z" fill="#fcc407"/></g><g id="g8456" transform="matrix(.99077 0 0 .99077 2.6595 2.6594)"><path id="path8458" d="m496.56 274.8v0.24-0.24z" fill="#fcc407"/></g><g id="g8556" transform="matrix(.99077 0 0 .99077 2.6595 2.6594)"><path id="path8558" d="m500.64 252.24v-0.72 0.72z" fill="#fcc407"/></g><g id="g8564" transform="matrix(.99077 0 0 .99077 2.6595 2.6594)"><path id="path8566" d="m500.4 298.56v0.24-0.24z" fill="#fcc407"/></g><g id="g8608" transform="matrix(.99077 0 0 .99077 2.6595 2.6594)"><path id="path8610" d="m500.64 252.24v-0.72 0.72z" fill="#fcc407"/></g><g id="g8738" transform="matrix(.99077 0 0 .99077 2.6595 2.6594)"><path id="path8740" d="m77.039 334.56v0.24-0.24z" fill="#fcc407"/></g><g id="g8814" transform="matrix(.99077 0 0 .99077 2.6595 2.6594)"><path id="path8816" d="m75.599 250.32v-0.24 0.48-0.24z" fill="#fcc407"/></g><g id="g11386" transform="matrix(.99077 0 0 .99077 2.6595 2.6594)"><g id="g11388"><g id="g11390" clip-path="url(#clipPath11392)"><text id="text11396" transform="matrix(1 0 0 -1 408.32 40.076)"><tspan id="tspan11398" font-size="13.92px" y="0" x="0 6.96" font-family="Times" fill="#000000">km</tspan></text>
</g></g></g><g id="g15382" transform="matrix(.52227 0 0 .52227 -504.92 94.501)"><g id="g15384"><g id="g15386" clip-path="url(#clipPath2462)"><text id="text15388" transform="matrix(1 0 0 -1 47.37 20.402)"><tspan id="tspan15390" font-size="7.92px" y="0" x="0 3.96 7.9200001 11.88 15.84 17.82 20.900881 24.86088 28.820881 30.80088 34.76088 38.720879 40.700878 44.660881 48.62088 50.822639 54.782639 58.742641 60.944401 64.904404" font-family="Times" fill="#ffffff">2008 Jun 12 04:45:24</tspan></text>
</g></g></g><g id="g15392" transform="matrix(.52227 0 0 .52227 -504.92 94.501)"><g id="g15394"><g id="g15396" clip-path="url(#clipPath2556)"><text id="text15398" transform="matrix(1 0 0 -1 134.16 20.88)"><tspan id="tspan15400" font-size="6.96px" y="0" x="0 5.0251198 11.21256 15.85488 17.594879 19.91256 21.652559 27.84 30.930241 33.247921 35.1828 37.11768 40.597679 42.337681 48.907921 51.998161 53.933041 57.41304 60.503281 62.43816" font-family="Times" fill="#000000">OMC - Martin Weinelt</tspan></text>
</g></g></g><g id="g2786" transform="matrix(.52227 0 0 .52227 -504.92 94.501)"><path id="path2788" d="m335.76 419.04h-0.48 0.48z" fill="#dcdcdc"/></g><g id="g15408" transform="matrix(.52227 0 0 .52227 -504.92 94.501)"><path id="path15410" d="m356.4 435.84v0.24-0.24z" fill="#fff"/></g><g id="g2978" transform="matrix(.52227 0 0 .52227 -504.92 94.501)"><path id="path2980" d="m341.28 473.52h0.24-0.24z" fill="#dcdcdc"/></g><g id="g15422" transform="matrix(.52227 0 0 .52227 -504.92 94.501)"><path id="path15424" d="m335.52 485.52h-0.24 0.24z" fill="#dcdcdc"/></g><g id="g3706" transform="matrix(.52227 0 0 .52227 -504.92 94.501)"><path id="path3708" d="m254.64 434.4h0.24-0.24z" fill="#dcdcdc"/></g><g id="g4618" transform="matrix(.52227 0 0 .52227 -504.92 94.501)"><path id="path4620" d="m354.24 487.92h1.44-1.44z" fill="#dcdcdc"/></g><g id="g15448" transform="matrix(.52227 0 0 .52227 -504.92 94.501)"><path id="path15450" d="m296.64 503.76h-1.92 4.08-2.16z" fill="#dcdcdc"/></g><g id="g4766" transform="matrix(.52227 0 0 .52227 -504.92 94.501)"><path id="path4768" d="m295.68 502.32h2.4-2.4z" fill="#dcdcdc"/></g><g id="g15454" transform="matrix(.52227 0 0 .52227 -504.92 94.501)"><path id="path15456" d="m296.64 503.76h-1.92 4.08-2.16z" fill="#dcdcdc"/></g><g id="g4798" transform="matrix(.52227 0 0 .52227 -504.92 94.501)"><path id="path4800" d="m295.68 502.32h2.4-2.4z" fill="#dcdcdc"/></g><g id="g4918" transform="matrix(.52227 0 0 .52227 -504.92 94.501)"><path id="path4920" d="m235.92 496.8h0.96-1.68 0.72z" fill="#dcdcdc"/></g><g id="g4982" transform="matrix(.52227 0 0 .52227 -504.92 94.501)"><path id="path4984" d="m235.92 496.8h0.96-1.68 0.72z" fill="#dcdcdc"/></g><g id="g8318" transform="matrix(.52227 0 0 .52227 -504.92 94.501)"><path id="path8320" d="m500.64 257.76v-0.96 0.96z" fill="#dcdcdc"/></g><g id="g8322" transform="matrix(.52227 0 0 .52227 -504.92 94.501)"><path id="path8324" d="m500.4 310.56v-0.24 0.48-0.24z" fill="#dcdcdc"/></g><g id="g8370" transform="matrix(.52227 0 0 .52227 -504.92 94.501)"><path id="path8372" d="m500.64 257.76v-0.96 0.96z" fill="#dcdcdc"/></g><g id="g8522" transform="matrix(.52227 0 0 .52227 -504.92 94.501)"><path id="path8524" d="m75.599 256.32v-0.24 0.24z" fill="#dcdcdc"/></g><g id="g8970" transform="matrix(.52227 0 0 .52227 -504.92 94.501)"><g id="g8972"><g id="g8974" clip-path="url(#clipPath8976)"><text id="text8980" transform="matrix(1 0 0 -1 408.32 40.076)"><tspan id="tspan8982" font-size="13.92px" y="0" x="0 6.96" font-family="Times" fill="#000000">km</tspan></text>
</g></g></g><g id="g17653" transform="translate(-449.18)"><g id="g16029" transform="matrix(.79330 0 0 .79330 494.59 47.511)"><g id="g3688" transform="matrix(1.25 0 0 1.25 -54.276 -146.39)"><g id="g16032" transform="translate(504,359.68)"><path id="path16034" d="m0 0v6.72l-0.24 1.2v4.56l-0.24 0.96v2.4l-0.24 0.96v1.2l-0.24 1.2v2.16l-0.24 1.2v1.2l-0.24 0.96v1.2l-0.24 1.2-0.24 0.96v1.2l-0.24 1.2-0.24 0.96v1.2l-0.24 1.2-0.24 0.96-0.24 1.2v0.96l-0.48 2.4-0.24 0.96-0.48 2.4-0.24 0.96-0.24 1.2-0.24 0.96-0.48 2.4-0.24 0.96-0.24 1.2-0.24 0.96-0.24 1.2-0.24 0.96-0.24 1.2-0.48 1.2-0.24 0.96-0.24 1.2-0.24 0.96-0.48 1.2-0.24 0.96-0.24 1.2-0.48 0.96-0.24 1.2-0.24 0.96-0.48 1.2-0.24 0.96-0.48 1.2-0.24 0.96-0.48 1.2-0.24 0.96-0.48 0.96-0.48 1.2-0.24 0.96-0.48 1.2-0.48 0.96-0.24 0.96-0.48 1.2-0.48 0.96-0.24 1.2-0.96 1.92-0.48 1.2-1.44 2.88-0.24 1.2-0.96 1.92-0.48 1.2-1.44 2.88-0.72 1.2-2.4 4.8-0.48 1.2-0.72 0.96-0.96 1.92-0.72 0.96-0.96 1.92-0.72 0.96-0.96 1.92-0.72 1.2-0.48 0.96-0.72 0.96-0.48 0.96-0.72 0.96-0.48 0.72-0.72 0.96-0.48 0.96-0.72 0.96-0.48 0.96-1.44 1.92-0.48 0.96-1.44 1.92-0.72 0.72-0.48 0.96-2.16 2.88-0.72 0.72-0.48 0.96-1.44 1.92-0.72 0.72-1.44 1.92-0.72 0.72-1.44 1.92-0.72 0.72-0.72 0.96-0.72 0.72-0.72 0.96-0.72 0.72-0.72 0.96-2.4 2.4-0.72 0.96-0.72 0.72-0.72 0.96-0.96 0.72-0.72 0.72-0.72 0.96-3.12 3.12-0.96 0.72-0.72 0.96-0.96 0.72-3.12 3.12-0.96 0.72-0.72 0.72-0.96 0.72-0.72 0.72-0.96 0.72-1.68 1.68-0.96 0.72-0.72 0.72-1.92 1.44-0.72 0.72-0.96 0.48-0.96 0.72-0.72 0.72-2.88 2.16-0.72 0.72-0.96 0.72-0.96 0.48-0.96 0.72-0.72 0.72-0.96 0.72-0.96 0.48-1.92 1.44-0.96 0.48-0.96 0.72-0.96 0.48-1.92 1.44-0.72 0.48-0.96 0.72-0.96 0.48-0.96 0.72-1.92 0.96-1.2 0.72-0.96 0.48-0.96 0.72-1.92 0.96-0.96 0.72-2.88 1.44-0.96 0.72-1.2 0.48-3.84 1.92-1.2 0.48-0.96 0.72-1.92 0.96-1.2 0.48-1.92 0.96-0.96 0.24-1.2 0.48-1.92 0.96-1.2 0.48-1.92 0.96-1.2 0.24-1.92 0.96-1.2 0.48-0.96 0.24-1.2 0.48-0.96 0.48-0.96 0.24-1.2 0.48-0.96 0.24-1.2 0.48-0.96 0.24-1.2 0.48-0.96 0.24-1.2 0.48-0.96 0.24-1.2 0.48-0.96 0.24-1.2 0.24-0.96 0.48-1.2 0.24-0.96 0.24-1.2 0.48-0.96 0.24-1.2 0.24-0.96 0.24-1.2 0.24-0.96 0.48-2.4 0.48-0.96 0.24-1.2 0.24-0.96 0.24-1.2 0.24-0.96 0.24-2.4 0.48-0.96 0.24-1.2 0.24h-1.2l-0.96 0.24-1.2 0.24-0.96 0.24-1.2 0.24h-1.2l-0.96 0.24-1.2 0.24h-1.2l-0.96 0.24-1.2 0.24h-1.2l-0.96 0.24h-1.2l-1.2 0.24h-0.96l-1.2 0.24h-1.2l-0.96 0.24h-2.4l-1.2 0.24h-2.16l-1.2 0.24h-4.32l-1.2 0.24h-12.48l-1.2-0.24h-4.32l-1.2-0.24h-2.16l-1.2-0.24h-2.4l-0.96-0.24h-1.2l-1.2-0.24h-0.96l-1.2-0.24h-1.2l-0.96-0.24h-1.2l-1.2-0.24-0.96-0.24h-1.2l-1.2-0.24-0.96-0.24h-1.2l-1.2-0.24-0.96-0.24-1.2-0.24-0.96-0.24h-1.2l-1.2-0.24-0.96-0.24-2.4-0.48-0.96-0.24-1.2-0.24-0.96-0.24-1.2-0.24-0.96-0.24-2.4-0.48-0.96-0.48-1.2-0.24-0.96-0.24-1.2-0.24-0.96-0.24-1.2-0.48-0.96-0.24-1.2-0.24-0.96-0.48-1.2-0.24-0.96-0.24-1.2-0.48-0.96-0.24-1.2-0.48-0.96-0.24-1.2-0.48-0.96-0.24-1.2-0.48-0.96-0.24-1.2-0.48-0.96-0.24-0.96-0.48-1.2-0.48-0.96-0.24-1.2-0.48-1.92-0.96-1.2-0.24-1.92-0.96-1.2-0.48-1.92-0.96-1.2-0.48-0.96-0.24-1.92-0.96-1.2-0.48-1.92-0.96-0.96-0.72-1.2-0.48-3.84-1.92-1.2-0.48-0.96-0.72-2.88-1.44-0.96-0.72-1.92-0.96-0.96-0.72-0.96-0.48-1.2-0.72-1.92-0.96-0.96-0.72-0.96-0.48-0.96-0.72-0.72-0.48-1.92-1.44-0.96-0.48-0.96-0.72-0.96-0.48-1.92-1.44-0.96-0.48-0.96-0.72-0.72-0.72-0.96-0.72-0.96-0.48-0.96-0.72-0.72-0.72-2.88-2.16-0.72-0.72-0.96-0.72-0.96-0.48-0.72-0.72-1.92-1.44-0.72-0.72-0.96-0.72-1.68-1.68-0.96-0.72-0.72-0.72-0.96-0.72-0.72-0.72-0.96-0.72-3.12-3.12-0.96-0.72-0.72-0.96-0.96-0.72-3.12-3.12-0.72-0.96-0.72-0.72-0.96-0.72-0.72-0.96-0.72-0.72-0.72-0.96-2.4-2.4-0.72-0.96-0.72-0.72-0.72-0.96-0.72-0.72-0.72-0.96-0.72-0.72-1.44-1.92-0.72-0.72-1.44-1.92-0.72-0.72-1.44-1.92-0.48-0.96-0.72-0.72-2.16-2.88-0.48-0.96-0.72-0.72-1.44-1.92-0.48-0.96-1.44-1.92-0.48-0.96-0.72-0.96-0.48-0.96-0.72-0.96-0.48-0.72-0.72-0.96-0.48-0.96-0.72-0.96-0.48-0.96-0.72-1.2-0.96-1.92-0.72-0.96-0.96-1.92-0.72-0.96-0.96-1.92-0.72-0.96-0.48-1.2-2.4-4.8-0.72-1.2-1.44-2.88-0.48-1.2-0.96-1.92-0.24-1.2-1.44-2.88-0.48-1.2-0.96-1.92-0.24-1.2-0.48-0.96-0.48-1.2-0.24-0.96-0.48-0.96-0.48-1.2-0.24-0.96-0.48-1.2-0.48-0.96-0.24-0.96-0.48-1.2-0.24-0.96-0.48-1.2-0.24-0.96-0.48-1.2-0.24-0.96-0.24-1.2-0.48-0.96-0.24-1.2-0.24-0.96-0.48-1.2-0.24-0.96-0.24-1.2-0.24-0.96-0.48-1.2-0.24-1.2-0.24-0.96-0.24-1.2-0.24-0.96-0.24-1.2-0.24-0.96-0.48-2.4-0.24-0.96-0.24-1.2-0.24-0.96-0.48-2.4-0.24-0.96-0.48-2.4v-0.96l-0.24-1.2-0.24-0.96-0.24-1.2v-1.2l-0.24-0.96-0.24-1.2v-1.2l-0.24-0.96-0.24-1.2v-1.2l-0.24-0.96v-1.2l-0.24-1.2v-2.16l-0.24-1.2v-1.2l-0.24-0.96v-2.4l-0.24-0.96v-4.56l-0.24-1.2v-13.44l0.24-1.2v-4.56l0.24-0.96v-2.4l0.24-0.96v-1.2l0.24-1.2v-2.16l0.24-1.2v-1.2l0.24-0.96v-1.2l0.24-1.2 0.24-0.96v-1.2l0.24-1.2 0.24-0.96v-1.2l0.24-1.2 0.24-0.96 0.24-1.2v-0.96l0.48-2.4 0.24-0.96 0.48-2.4 0.24-0.96 0.24-1.2 0.24-0.96 0.48-2.4 0.24-0.96 0.24-1.2 0.24-0.96 0.24-1.2 0.24-0.96 0.24-1.2 0.48-1.2 0.24-0.96 0.24-1.2 0.24-0.96 0.48-1.2 0.24-0.96 0.24-1.2 0.48-0.96 0.24-1.2 0.24-0.96 0.48-1.2 0.24-0.96 0.48-1.2 0.24-0.96 0.48-1.2 0.24-0.96 0.48-0.96 0.48-1.2 0.24-0.96 0.48-1.2 0.48-0.96 0.24-0.96 0.48-1.2 0.48-0.96 0.24-1.2 0.96-1.92 0.48-1.2 1.44-2.88 0.24-1.2 0.96-1.92 0.48-1.2 1.44-2.88 0.72-1.2 2.4-4.8 0.48-1.2 0.72-0.96 0.96-1.92 0.72-0.96 0.96-1.92 0.72-0.96 0.96-1.92 0.72-1.2 0.48-0.96 0.72-0.96 0.48-0.96 0.72-0.96 0.48-0.72 0.72-0.96 0.48-0.96 0.72-0.96 0.48-0.96 1.44-1.92 0.48-0.96 1.44-1.92 0.72-0.72 0.48-0.96 2.16-2.88 0.72-0.72 0.48-0.96 1.44-1.92 0.72-0.72 1.44-1.92 0.72-0.72 1.44-1.92 0.72-0.72 0.72-0.96 0.72-0.72 0.72-0.96 0.72-0.72 0.72-0.96 2.4-2.4 0.72-0.96 0.72-0.72 0.72-0.96 0.96-0.72 0.72-0.72 0.72-0.96 3.12-3.12 0.96-0.72 0.72-0.96 0.96-0.72 3.12-3.12 0.96-0.72 0.72-0.72 0.96-0.72 0.72-0.72 0.96-0.72 1.68-1.68 0.96-0.72 0.72-0.72 1.92-1.44 0.72-0.72 0.96-0.48 0.96-0.72 0.72-0.72 2.88-2.16 0.72-0.72 0.96-0.72 0.96-0.48 0.96-0.72 0.72-0.72 0.96-0.72 0.96-0.48 1.92-1.44 0.96-0.48 0.96-0.72 0.96-0.48 1.92-1.44 0.72-0.48 0.96-0.72 0.96-0.48 0.96-0.72 1.92-0.96 1.2-0.72 0.96-0.48 0.96-0.72 1.92-0.96 0.96-0.72 2.88-1.44 0.96-0.72 1.2-0.48 3.84-1.92 1.2-0.48 0.96-0.72 1.92-0.96 1.2-0.48 1.92-0.96 0.96-0.24 1.2-0.48 1.92-0.96 1.2-0.48 1.92-0.96 1.2-0.24 1.92-0.96 1.2-0.48 0.96-0.24 1.2-0.48 0.96-0.48 0.96-0.24 1.2-0.48 0.96-0.24 1.2-0.48 0.96-0.24 1.2-0.48 0.96-0.24 1.2-0.48 0.96-0.24 1.2-0.48 0.96-0.24 1.2-0.24 0.96-0.48 1.2-0.24 0.96-0.24 1.2-0.48 0.96-0.24 1.2-0.24 0.96-0.24 1.2-0.24 0.96-0.48 2.4-0.48 0.96-0.24 1.2-0.24 0.96-0.24 1.2-0.24 0.96-0.24 2.4-0.48 0.96-0.24 1.2-0.24h1.2l0.96-0.24 1.2-0.24 0.96-0.24 1.2-0.24h1.2l0.96-0.24 1.2-0.24h1.2l0.96-0.24 1.2-0.24h1.2l0.96-0.24h1.2l1.2-0.24h0.96l1.2-0.24h1.2l0.96-0.24h2.4l1.2-0.24h2.16l1.2-0.24h4.32l1.2-0.24h12.48l1.2 0.24h4.32l1.2 0.24h2.16l1.2 0.24h2.4l0.96 0.24h1.2l1.2 0.24h0.96l1.2 0.24h1.2l0.96 0.24h1.2l1.2 0.24 0.96 0.24h1.2l1.2 0.24 0.96 0.24h1.2l1.2 0.24 0.96 0.24 1.2 0.24 0.96 0.24h1.2l1.2 0.24 0.96 0.24 2.4 0.48 0.96 0.24 1.2 0.24 0.96 0.24 1.2 0.24 0.96 0.24 2.4 0.48 0.96 0.48 1.2 0.24 0.96 0.24 1.2 0.24 0.96 0.24 1.2 0.48 0.96 0.24 1.2 0.24 0.96 0.48 1.2 0.24 0.96 0.24 1.2 0.48 0.96 0.24 1.2 0.48 0.96 0.24 1.2 0.48 0.96 0.24 1.2 0.48 0.96 0.24 1.2 0.48 0.96 0.24 0.96 0.48 1.2 0.48 0.96 0.24 1.2 0.48 1.92 0.96 1.2 0.24 1.92 0.96 1.2 0.48 1.92 0.96 1.2 0.48 0.96 0.24 1.92 0.96 1.2 0.48 1.92 0.96 0.96 0.72 1.2 0.48 3.84 1.92 1.2 0.48 0.96 0.72 2.88 1.44 0.96 0.72 1.92 0.96 0.96 0.72 0.96 0.48 1.2 0.72 1.92 0.96 0.96 0.72 0.96 0.48 0.96 0.72 0.72 0.48 1.92 1.44 0.96 0.48 0.96 0.72 0.96 0.48 1.92 1.44 0.96 0.48 0.96 0.72 0.72 0.72 0.96 0.72 0.96 0.48 0.96 0.72 0.72 0.72 2.88 2.16 0.72 0.72 0.96 0.72 0.96 0.48 0.72 0.72 1.92 1.44 0.72 0.72 0.96 0.72 1.68 1.68 0.96 0.72 0.72 0.72 0.96 0.72 0.72 0.72 0.96 0.72 3.12 3.12 0.96 0.72 0.72 0.96 0.96 0.72 3.12 3.12 0.72 0.96 0.72 0.72 0.96 0.72 0.72 0.96 0.72 0.72 0.72 0.96 2.4 2.4 0.72 0.96 0.72 0.72 0.72 0.96 0.72 0.72 0.72 0.96 0.72 0.72 1.44 1.92 0.72 0.72 1.44 1.92 0.72 0.72 1.44 1.92 0.48 0.96 0.72 0.72 2.16 2.88 0.48 0.96 0.72 0.72 1.44 1.92 0.48 0.96 1.44 1.92 0.48 0.96 0.72 0.96 0.48 0.96 0.72 0.96 0.48 0.72 0.72 0.96 0.48 0.96 0.72 0.96 0.48 0.96 0.72 1.2 0.96 1.92 0.72 0.96 0.96 1.92 0.72 0.96 0.96 1.92 0.72 0.96 0.48 1.2 2.4 4.8 0.72 1.2 1.44 2.88 0.48 1.2 0.96 1.92 0.24 1.2 1.44 2.88 0.48 1.2 0.96 1.92 0.24 1.2 0.48 0.96 0.48 1.2 0.24 0.96 0.48 0.96 0.48 1.2 0.24 0.96 0.48 1.2 0.48 0.96 0.24 0.96 0.48 1.2 0.24 0.96 0.48 1.2 0.24 0.96 0.48 1.2 0.24 0.96 0.24 1.2 0.48 0.96 0.24 1.2 0.24 0.96 0.48 1.2 0.24 0.96 0.24 1.2 0.24 0.96 0.48 1.2 0.24 1.2 0.24 0.96 0.24 1.2 0.24 0.96 0.24 1.2 0.24 0.96 0.48 2.4 0.24 0.96 0.24 1.2 0.24 0.96 0.48 2.4 0.24 0.96 0.48 2.4v0.96l0.24 1.2 0.24 0.96 0.24 1.2v1.2l0.24 0.96 0.24 1.2v1.2l0.24 0.96 0.24 1.2v1.2l0.24 0.96v1.2l0.24 1.2v2.16l0.24 1.2v1.2l0.24 0.96v2.4l0.24 0.96v4.56l0.24 1.2v5.52" fill="#fff"/></g><path id="path16036" d="m363.41 273.88l-0.75 0.37h-5.63l-1.12 0.37h1.12l-2.62 0.38-4.13 0.38 1.5 0.37-5.62 0.37-3.38 0.38-3.37 0.75 8.62-0.75 0.38-0.38 1.87 0.38 1.13-0.38 0.75 0.38h0.75l1.12 0.38h14.25l-6.75-0.76h3l-0.37-0.37 7.5 0.75-0.75-0.75 1.87 0.37v-0.74h-0.75l-1.5-0.38-1.87 0.38-0.75-0.38-1.13-0.38-2.25 0.38v-0.38h2.25 0.75l-1.5-0.37h2.63l1.5 0.37 1.5-0.37-1.13 0.37 3.75-0.37-3 0.37 4.5 0.38 0.38-0.75 1.87 0.37-0.37-0.37h0.37v-0.37l-2.25 0.37 1.5-0.37h-0.75-1.12-1.5-2.63-0.75-0.37-0.75-6zm14.62 0.37h1.88 1.12 0.38l-1.5-0.37-1.88 0.37zm20.63-0.37l2.25 0.37h0.75l-2.25-0.31-0.75-0.06zm0.75 0.06h0.31l-0.69-0.06 0.38 0.06zm0.31 0l2.69 0.31h0.37 0.38l2.62 0.37-7.5-0.37 4.13 0.37h-2.25l4.12 0.38h1.5l1.88 0.38-4.88-0.38 1.5 0.38 0.75 0.37h0.75 1.88 0.37l-1.12-0.37 4.12 0.74-3.37-0.37 1.56 0.31 0.69 0.06h-0.38-1.5-1.12l2.62 0.38h-1.5l3 0.38-0.37 0.37 1.5-0.37-1.13 0.37 3 0.37-0.75 0.38h2.25l-0.75 0.38h0.75l3.38 0.37 1.12 0.75h6.38l-2.25 0.38h1.87 1.13l0.37 0.37h1.13l-0.75 0.37h1.5v0.38l0.97-0.31-0.22-0.07 0.28 0.04 0.09-0.04 0.31 0.07 3.07 0.31-2.25-0.75h1.87l-1.87-0.37h1.87l-3.37-0.76 2.62 0.38-3.37-0.75 3.37 0.37-1.5-0.37 2.25 0.37-2.25-0.74 2.25 0.37h0.75l-2.62-0.37 3 0.37-1.13-0.37-3-0.76 2.25 0.38-0.37-0.38 3.75 0.76-1.13-0.38h1.88l-1.13-0.38h-1.87l-1.13-0.37h-1.12l-0.75-0.37h-1.13-1.12l-0.57-0.19-0.18-0.19h-1.13l-1.12-0.38h-0.38-1.87l-0.75-0.37h-3.38l-0.75-0.37h-2.25l-1.12-0.38h-3l-1.13-0.38h-3l-1.12-0.37h-1.88-0.75-0.37l-4.19-0.31zm37.19 4.06l-0.38 0.38h1.5 0.38l2.25 0.37-1.13-0.37h-0.75l-1.12-0.38h-0.75zm2.62 0.38l0.88 0.24-0.5-0.24h-0.38zm0.88 0.24l0.25 0.13h0.18l-0.43-0.13zm0.43 0.13l0.13 0.03h0.03l0.94 0.1-0.16-0.13h-0.94zm0.94 0l0.31 0.16h-0.15l0.22 0.03 0.37 0.18h1.13l0.75 0.38h0.93l-1.31-0.38-0.84-0.09-1.41-0.28zm3.56 0.75l1.32 0.38-0.75-0.38h-0.57zm0.57 0l0.47 0.09-0.1-0.09h-0.37zm0.47 0.09l0.28 0.29h1.12l-1.4-0.29zm1.4 0.29l0.81 0.15-0.43-0.15h-0.38zm0.81 0.15l0.69 0.22h0.56l-1.25-0.22zm1.25 0.22l0.28 0.06-0.09-0.06h-0.19zm0.28 0.06l0.66 0.31h1.13l-1.79-0.31zm1.79 0.31l0.75 0.38h0.56l-1.31-0.38zm1.31 0.38l1.31 0.38-1.12-0.38h-0.19zm-11.28-2.09l-0.94-0.13 1.16 0.34-0.22-0.21zm-11.1 1.78l-0.4-0.03-0.06 0.03 3.53 0.69-3.07-0.69zm-21.31-4.57l-0.31-0.06-3.44-0.31 3.75 0.37zm-3.75-1.5l-3.37-0.37h-0.75l4.12 0.37zm-53.25 0l-0.75 0.38 2.25-0.38h-1.5zm1.5 0l-1.87 0.38 2.62-0.38h-0.75zm-5.25 0.38l-0.37 0.38 1.12-0.38h-0.75zm-0.37 0.38l-2.25 0.37 3.75-0.37 1.5-0.38-3 0.38zm-9.38 0.74l-0.09 0.1 0.84-0.1h-0.75zl-2.62 0.38 2.03-0.22 0.59-0.16zm-0.59 0.16l-0.91 0.22 1.28-0.16 0.13-0.12-0.5 0.06zm0.37 0.06l-0.15 0.16 1.87-0.38-1.72 0.22zm-1.28 0.16h-1.12l-2.63 0.38-0.75 0.37 4.5-0.75zm-4.5 0.75h-1.87l-2.25 0.37-2.63 0.76-2.62 0.37 2.34-0.31-1.22 0.31-5.25 1.5-3.75 0.75 4.13-0.75-0.38 0.37 7.5-1.87 0.38 0.37 3-0.37 3-0.37h-1.5l-2.63 0.37 1.13-0.37h-2.25-1.63l1.44-0.19 0.19 0.19 1.5-0.38h-0.38-1.5l3-0.38 2.25-0.37zm-8.25 1.5h-1.12l0.37-0.13-3 0.5 0.5-0.24-1.25 0.24h-0.37l-0.75 0.38h-1.13l-0.31 0.16-0.06 0.03-0.38 0.19h-0.37l-0.53 0.06-0.6 0.31 3.75-0.75 5.25-0.75zm-9 1.5h-0.75l1.35-0.31-1.54 0.22-3.93 0.84-1.32 0.38h-0.56l-3 0.74h-0.37l-0.38 0.38-3.75 0.75-1.37 0.37h-0.5l-0.6 0.32h-0.06l-0.22 0.06h-0.62l-0.32 0.16-1 0.22h-0.18l-0.16 0.06-1.34 0.31-0.19 0.19 1.03-0.25 1.41-0.31h-0.19l0.44-0.13-0.25 0.13-1.85 0.5-0.75 0.18v0.03l-0.03 0.03-1.5 0.38h-0.06l-0.66 0.22-0.34 0.09-0.25 0.07-1.31 0.37-0.75 0.37-1.88 0.38 1.75-0.5 0.5-0.25 0.6-0.28-2.47 0.65-0.75 0.38-1.5 0.38-0.16 0.12-0.22 0.25h-0.56l-0.94 0.37-0.75 0.38h-0.19l-0.31 0.12-0.25 0.26h-0.37-0.38-0.19l-1.31 0.37-1.12 0.37h-0.1l-1.03 0.38 2.63-0.75-1.13 0.37-1.5 0.38 0.75-0.38-4.87 1.5 1.5-0.37 0.5-0.13-0.32 0.13h-0.18l-0.75 0.37h-0.38-0.37l-0.38 0.38h-0.37l-0.63 0.31-0.19 0.07h-0.31l-0.5 0.24-0.19 0.07-0.06 0.06h0.38l-2.5 0.75 2.12-0.75h-0.15l0.21-0.06 0.32-0.31-3.1 1.12h-0.28l-0.15 0.16-0.6 0.22 0.53-0.16 0.19-0.06 0.28-0.1-0.25 0.13-0.31 0.12-0.06 0.07-1.41 0.5 0.28-0.13 1.19-0.44 0.09-0.09-2.4 0.9h-0.38v0.13l-0.75 0.25 0.75-0.19-3.87 1.41 1.62-0.47 2.25-0.91v0.16l0.75-0.38 1.16-0.4-1.91 0.78-2.25 0.75-1.25 0.5-0.25 0.06-0.12 0.07 0.22-0.07-0.47 0.19-1 0.25-0.5 0.13-0.91 0.37h-0.09l1-0.37-1.13 0.37-0.37 0.19-1.5 0.56 1.12-0.38-0.56 0.29-0.19 0.09h-0.37l-0.75 0.38-0.75 0.37-0.13 0.06 5-1.56-7.5 2.63-1.87 0.74 0.75-0.37 0.03-0.03 0.81-0.34h-0.47l-2.25 1.12h0.19l-0.94 0.38-1.5 0.74h-0.37-0.38l-2.25 1.13-0.75 0.37-1.5 0.76h-0.37l-0.75 0.37-0.38 0.37-0.75 0.38h-0.75l-3 1.5-0.75 0.38-0.37 0.37-1.5 0.75h-0.38l-1.5 0.75-0.37 0.37-1.5 0.76h-0.38l-0.75 0.37-0.37 0.37-1.5 0.76-0.75 0.37h-0.38l-0.75 0.37-0.37 0.38-0.75 0.38-0.75 0.37-0.38 0.37-0.75 0.38-0.75 0.38h-0.37l-0.75 0.37-0.38 0.37-1.5 0.76-1.5 0.74-0.37 0.38-0.75 0.38h-0.38v0.18l-0.37 0.19-0.75 0.37-0.38 0.38-0.75 0.38-0.37 0.18-0.38 0.19-0.06 0.06-1.81 1.07-1.5 0.74h0.18l-0.56 0.38-1.12 0.75-1.5 0.75-1.5 1.12-0.75 0.5-3 1.76 0.37-0.38-2.25 1.88-0.75 0.37-1.87 1.13 0.75-0.38-1.13 0.75-0.62 0.37-0.1 0.07-0.84 0.5-1.63 1.12 1.32-0.93-1.13 0.74-0.84 0.66-0.06 0.03-0.22 0.07-0.28 0.28-0.35 0.22 0.25-0.13-0.44 0.28-0.68 0.47-0.66 0.47 0.28-0.09-0.37 0.37-0.75 0.37-0.47 0.29 1.31-0.94-0.09 0.03 0.75-0.5-0.38 0.19-0.12 0.06-0.25 0.13 0.56-0.38-1.31 0.75-0.38 0.37-1.12 0.76 0.93-0.57-0.18 0.19-0.75 0.38v0.12l-0.38 0.25 0.38-0.22v0.03l-0.22 0.19h-0.03-0.13l-0.37 0.37-0.75 0.57-0.75 0.37-0.13 0.06-0.25 0.13-0.19 0.19-1.31 0.94 0.41-0.22-0.47 0.37 1.56-0.91-2.06 1.5 1.69-1.12 2.5-1.88h0.12l-5.62 4.5 2.25-1.87-3.38 2.63 3.75-3-1.31 0.74-0.19 0.1-1.12 0.66-4.5 3.74 0.75-0.37-3.38 2.63-13.5 11.62-3.75 4.5-4.5 4.12-3.37 4.5-1.5 2.63 0.28-0.22-1.41 2.09-2.25 5.63-1.87 2.25 1.12-0.38 3-0.37 0.75 1.5-3.75 11.25-0.37 0.75 2.25 3-2.25 3 0.75 0.37-3.38 1.13 2.25 2.63 2.25-1.88 1.13 2.62-2.25 5.63 3.75 3v2.63l2.62-2.26v-3.37h-2.25l1.5-8.63-1.5-3.74 1.13-2.63-1.88-4.13 3.38-7.12h4.12l-1.5 4.5-0.75 3.75 1.13 2.63 1.87-0.38-1.12 2.62 2.62 2.26-2.25 3 3.75 1.12-0.37 1.5 4.5 5.62 0.75 5.26-2.25 3.74 0.75 0.38-1.88 1.5v1.5l6 5.62 6-0.37 3 2.25 4.13 0.75 14.25 1.87 10.87-4.87 12.75 7.5 13.88 1.5-1.13-0.37 6.75-1.88v2.25l-1.87 0.37 9.37 7.5-1.5 1.13 1.5 0.37-0.37 4.13v0.37l2.62 1.5 1.5-1.87-0.75-0.75-1.12-1.12 2.25 1.12h0.37l5.63 3.75v3.37h1.5l-0.38-1.87 2.63 3.37 0.75-1.5 5.25-0.37 1.12 2.63 2.63-1.5 0.75 3.74 2.62-0.74 2.63-1.5-2.63-3.38 2.63-1.88 5.25-3.37 3.37 3.37 2.25-0.74-2.25 2.62 6 6.75-1.5 12.75 2.63 1.12-0.75 1.5-3.38 5.63-4.5 1.87v3.76l-3 0.74 0.75 3-6 2.26-0.37 0.37 0.37 1.87 0.38 1.13-0.38 0.37-2.62 3.38 1.12 1.12-3.37 2.63v7.13l3.75 1.87 1.12-2.25 0.75-0.75 1.13 1.87-1.88 4.5-6.75 6 2.63 7.5-1.5 2.26 6.37 3.37 6 7.87 4.88 9.76 3.37 7.12 8.63 11.62-0.75 3 3 4.13 4.5 4.13 21 9.37 6.75 6.37 1.5 9.38 0.75 8.25-2.25 12.37 1.5 10.88-3.75 21 1.87 5.62-0.37 0.76-1.5 3.37 2.25 17.25-4.88 20.25-2.25 1.5 3.75 11.63-1.87 9 2.25 2.62-0.75 1.12 3-1.87 1.87 0.75 1.13-1.12-2.25 3 2.62 1.12-0.37 1.88-1.88-1.13 1.88 1.87-1.5-0.74-0.38 5.24 1.88 1.88-1.88 1.88 3.38 1.87-3.38 3.75 3 1.12-3 0.38v1.88l1.88-1.13-1.13 4.87-1.5-1.87-2.25 0.37 1.88-0.37h-1.5l0.75-1.87-1.13 1.5-1.5-1.13-1.5 0.37 2.63 0.76-1.13 1.87-1.97 1.69 1.97-1.32 0.75 1.88 2.25-0.38 1.5 2.26-1.87 1.5h2.25l-3 1.12 3.75-0.75 2.62 1.87-1.87-0.37 1.5 1.87-5.25-1.12 3.37 1.88-1.87 1.12 1.5 0.75-0.75 3.37 1.12-1.12 2.25 2.62-2.62-0.37 1.12 1.87 1.13 1.5-3-0.37 2.62 0.75 0.38 2.62 1.12-2.62 1.13 1.5-2.25 1.12-0.75 0.38 2.25 0.75-0.38 2.63 2.25 1.87-0.37-1.87 1.12 1.87-1.12-2.63 3 1.13-3.38-1.5 1.5-1.5-0.37 1.87 2.62 1.13-0.75 3.37v-2.24l-0.37 1.87-0.38-1.5h-0.75-0.75-1.12l0.75 3.75 2.62-1.5h4.88l1.12 2.62-1.87 2.26 0.37-1.5-2.25 0.74 4.5 2.26 0.38-6 5.62-2.63 3.38 0.37-2.63-3.37h-2.25l2.25-0.37-2.25-2.26 3.38-4.87-0.75-0.75-0.75-1.5 1.12 1.5 0.38 0.38 1.5-0.38v-0.38l0.75-4.87 6.75-6-0.38-3.75-4.12-0.75-3.75-4.87 2.25-4.5 6-1.88 0.37-6.75 4.13-3.75-3-1.88 2.62-0.74 1.13 1.87 2.25-1.5-0.75-2.63-3 1.88-2.63-1.88-0.37-7.5 5.62 2.26 6.38-1.5v-9l1.5 0.74-1.5-3.37 5.62 1.13 4.88-1.13 7.12-1.5 4.5-2.25 4.13-6.75v-3l-3-2.25 1.12-3.75-6.75-5.25 1.13-7.5-0.38 4.88 3 3 7.88 3 9.75-1.13 8.25-9 2.25-7.13 6.75-7.87-1.13-2.25 3.38 3-8.25 9.38 6.75-5.63 4.12-6.37 2.63-3.76 5.25-4.12 2.25-8.25-1.5-4.87 3-4.13-1.88-1.13 2.63 0.76 3.75-4.5 6.75-4.13h4.87l6-4.5 4.13 1.13 2.62-1.88v1.88l5.63 0.37 0.37-2.63 5.63-2.24-0.38-3 6.75-8.63 1.13-1.87 1.5-7.13 3.37-3.37 4.5-28.13 0.75-1.5 1.13 2.63 2.25-1.5 11.62-13.88 6.75-8.62 1.13-6.76-1.88-9.74-1.87-2.63-7.88-1.87-7.12-8.26-8.25-6-12.38-1.5-6.37-3.74-8.25 4.87 0.75-3.75 2.25-1.5-3.75 0.38 3-2.26-1.88-3.74-2.62 2.24-0.38-3-1.12 1.13 0.75-1.13-1.88 0.38-1.5-2.25-0.75 1.5-0.37-2.25-0.75 1.12-5.63-3.37-0.37 1.13-3.75-1.13-2.63 4.13 2.25 0.74-1.87 0.76-1.5-1.88-4.88 5.25 1.5-3.75-6.75 0.75 9-1.87 3-6.38-11.62-1.88-2.63 4.88v-2.62l-2.62 2.24v-2.62l-2.63 2.62 2.25-4.87 8.25-6.75h-1.12l1.12-2.62-4.87-2.63-3.38-11.63-1.5-1.12-0.37 1.88-3.75-4.88-11.25-5.62-17.25-0.38-7.13-5.62-1.87 2.62 1.12-4.88-3.37-3.37-5.25-3-1.5-0.37h-3.75v-4.13l-4.5-2.63-4.13 0.76-0.75-1.13-2.25-1.87 6-1.88-13.87 0.38 3.37 1.12-8.25 2.25-6.75-3-10.87 1.5-1.5-3.75-6.75-0.75-2.25-3.75-1.13 3 2.25-0.38v1.13l-1.87-0.37-8.25 4.12 1.87 4.12 1.13 1.13-0.38 2.25-3.75 1.5-2.25-3.75 0.75-0.75 2.63-3.75-2.25-4.5 5.25-2.63-3.38-1.87-9.37 6.37-4.88 0.38-0.75 1.88-3-0.38-2.62 1.5-2.63 3.75v0.75l0.38 2.62-7.5 5.26 0.75 3.37-6-5.63-6-1.5h-3.38l-2.25 1.5-6 3.76-4.5-1.5 0.38 1.12h-2.25l-3.38-4.5-4.5-6 5.25-15.38-0.75-4.5-7.87-2.24-16.13 4.12-4.12-0.38 4.5-5.62 1.87-6.75h-1.5l2.25-2.63 0.38 3 3.37-6.74-1.5-0.38 6-8.25h-6.37l-10.88 4.5-3.75 7.87-4.87 5.26-3.75-0.38-10.13 5.25-3-2.63-3 0.76-4.5-13.13v-2.25l3-8.62 1.13-3.38 2.25-1.12-1.13 1.87 3-4.5 0.75-5.25 2.25-3.75 4.13-1.87-0.75-1.13 2.62-0.37-1.12 1.12 5.62-3.75 1.5-2.63h1.88l-1.5 1.13 4.5-1.87 0.09-0.38 6.28-0.75 2.63-1.5 3 2.25 2.25-1.5 1.5 0.38v-1.5h1.87l0.75 1.87 2.25-1.5-2.62-0.75 2.62-1.88h-2.25-2.62l10.5-2.24 1.12-1.88 0.38 1.12-1.13 0.76 4.88-2.26-1.13 1.13 4.88-1.13-1.5 0.76 4.12-0.38v1.12 1.13l4.5-1.87 1.5-0.76 1.5 0.38h0.75l4.13 3.38-2.25 4.12 2.25-0.75-1.88 2.25 1.13 2.25 1.87-0.75v4.12l3.38 1.13-0.75 1.87 2.62-0.37v0.75l4.13-7.88-2.63-12-0.75-4.5 5.63-4.12-0.38-1.12 0.38 0.74 3.75-1.87 6.75-4.5 12.37-4.87-3-0.38 2.63-0.75-2.25-0.75 3.75 0.38 2.25-1.5-0.38-1.13-1.12 1.5 0.37-1.5-3.37 0.75 3-1.5 1.5 0.38v-1.88l1.12 3-1.12-3.75-4.13-0.37h2.25l-0.37-0.38 1.5-1.12-0.28-0.13 0.65-1-4.5-0.75 1.13-1.12 3.37 1.5-0.37-3.76 3.75-1.12-3 2.25 2.62 2.63-2.25 2.62 5.25-4.12-1.12-4.13 2.25 2.25 4.12-2.62v-2.26l1.34-0.74h0.16l0.38-0.1-0.47 0.06 1.97-1.09 9.37-1.5 0.75-1.5 0.75 1.13 5.25-0.76v-1.12l-1.5 1.12-2.62-1.87 4.12-3.75 2.25-0.38v-0.74l2.25 0.37 2.25-1.87-0.37 0.74 2.62-0.74 0.75 0.37 4.88-1.13-0.75-1.12 3 0.38 9-2.26-3 1.5 6.75-0.37-3 1.13-1.88-0.76-6.75 2.26-0.75 1.5 3 1.12 5.25-3h2.63v-0.75l10.12-1.13 1.13-0.37-3.75-1.13-5.63 0.38-5.62-1.5-0.38-1.5h-2.25l2.63-1.88-3.38 0.76-0.75-0.76h-3.75l6-0.37 3.75-1.13-0.75-1.12-6-0.38-7.87 1.5-13.13 4.88 5.63-2.62v-0.76l10.87-3 2.63-1.5 1.12-0.37 24.38-0.37h0.37l4.5-1.88 6.38-0.38 4.12-1.12-2.25-0.38h2.25l-3.37-0.37h3l-1.5-0.37 1.12-0.76-2.62-1.12-3 0.75 0.75-0.75-3.75-0.75-6.38 1.13 5.63-1.13-4.13 0.37 7.5-0.74-3-0.38 1.13-0.38h-3.75v-0.37l-1.5 0.37 0.75-0.37-2.25 0.75 1.5-0.75h-1.88l-2.25 0.37 1.13-1.12h-1.13l0.38-0.38h-4.13l1.5-0.37h-0.75l-2.25-0.37h1.88l-2.63-0.38h2.63l1.12-0.38-3.75-0.74h1.88l-2.25-0.38 0.75-0.38-3 0.38 2.62-0.75-3.37 0.37 2.62-0.37-0.75-0.75-3 0.38 2.25-0.38-3.75-0.75 1.13-0.37h-1.5l-2.25 0.74 1.5 0.38h-2.25l1.12 0.38-2.25 0.37v0.37l-1.12-0.37-4.13 1.13-0.75-0.76-2.62 0.76 1.5-0.76h-3.38-2.25l1.5-0.37 0.75 0.37 1.13-0.74h-1.5l0.75-0.38h-3.38l3.75-0.38 1.13-0.74h-6l0.75-0.38-2.25 0.38-2.63-0.76-3 0.76h-6.75l-2.62 0.74 0.75 0.38-3 0.75h1.87v0.75l-6 1.88 3.75 0.37-0.69 2.03 0.69-0.16 0.75 0.38h-1.5l-5.25 1.88-7.87 1.87 1.87 0.37-0.75 3.38-3 1.12v0.76l-0.75-0.76-2.62 1.5h-0.75-1.88l0.75-0.74-3.75-1.88 3.75-3.75-8.62 1.13-12-0.38-6.38 1.88 2.25-1.13 1.5-1.5-2.25 0.37-1.5 0.76v-0.76l4.88-1.87 7.12-2.25h-0.37l5.62-1.5h-0.37l1.12-0.38-1.87 0.38 0.37-0.38 1.13-0.37 1.84-0.28-2.97 0.65h1.5l1.13-0.37 2.62-0.37h-1.12l-1.88 0.37 0.97-0.31 2.78-0.44 3.38-1.12 4.12-0.76 5.25-1.12-4.5 0.75zm9.38 38.53l5.62-0.66 1.88-1.12-7.5 1.78zm14.62 475.22l-1.12 2.25 1.5 0.37-0.38-2.62zm-15.47-29.06l-0.28 0.18 0.03 0.04 0.25-0.22zm-0.25 0.22l-0.4 0.34 1.5 0.75-1.1-1.09zm-52.9-247.91l0.75 1.5 0.37-1.13 0.75-0.74-0.75 0.37h-1.12zm-88.19-178.72l-1.06 0.59 0.75-0.37 0.31-0.22zm7-5.03l-0.19 0.19 1.06-0.66 0.19-0.15-0.81 0.46-0.25 0.16zm5.19-3.38l1-0.74 1.87-1.5-2.87 2.24zm17.5-11.06l0.43-0.25 0.32-0.31-0.75 0.56zm42.62-20.75l-1 0.31h0.38l0.62-0.31zm6.13-2.31l0.25-0.12-0.44 0.12h0.19zm-0.19 0h-0.19l-0.47 0.19 0.66-0.19zm-0.19 0l0.75-0.19 0.38-0.19-0.82 0.22-0.46 0.16h0.15zm-0.15 0h-0.22l-0.54 0.28 0.76-0.28zm-0.22 0l0.68-0.16 0.32-0.12-1 0.28zm18.37-6.38h0.28l3.1-1.12-2.63 0.75-0.75 0.37zm3.38-1.12h0.37l1.91-0.62-2.28 0.62zm12.37-3.38h-0.12l-0.35 0.1 0.47-0.1zm0.38-0.37l-3.69 1.03 1.03-0.25 0.12-0.03 0.88-0.19 0.16-0.06 0.25-0.06 0.31-0.07h-0.19l1.13-0.37zm19.68-4.59l1.69-0.28h-0.37l-1.32 0.28zm1.69-0.28l-0.15 0.06 0.34-0.06h-0.19zm0.19 0h0.19l0.75-0.19-0.94 0.19zm4.81-1l2.5-0.5-2.25 0.37-0.25 0.13zm2.5-0.26l1.5-0.24 1.13-0.38-1.88 0.38-0.75 0.24zm12.75-0.62l0.75 0.38 1.5-0.38h-2.25zm-4.5 1.12l-2.25 0.76 2.25-0.38v-0.38zm13.88 0v0.38l-4.13 0.38 4.13-0.76zm-18.75 0.38l-3 0.38-3 0.74v0.38l6-1.5zm15.37 1.12h2.63l-4.13 0.38 1.5-0.38zm-2.25 2.63l-1.87 0.37h0.75l-3.38 0.38 4.5-0.75zm27 0.37v0.38h-1.87l1.87-0.38zm2.63 0h1.87l-0.37 0.38-1.5-0.38zm94.87 0.38l1.5 0.38-0.03-0.04 2.53 0.57 1.63 0.47 0.37 0.12-0.09-0.06 0.28 0.09 0.12 0.03 0.13 0.03 0.06 0.03 0.63 0.26-0.38-0.19-0.19-0.1 1.69 0.29-2.53-0.57 0.16 0.07-0.25-0.07h0.09l-0.47-0.19 0.31 0.16-0.68-0.16-3.38-1.12h-0.37l0.31 0.31-1.44-0.31zm8.25 1.88h-0.75l-0.75-0.19 2.03 0.56h-0.15l0.75 0.16 0.37 0.09-0.75-0.25h0.38l-0.63-0.13-0.5-0.24zm1.5 0.62l0.38 0.12h-0.75l6 1.5-0.75-0.37-0.88-0.25-0.25-0.12h-0.19l-1.31-0.38 1.13 0.38-1.13-0.26-0.37-0.12-0.19-0.09 0.56 0.09-0.69-0.16-0.43-0.22h-0.57l-0.56-0.12zm-136.12-1.75l0.75 0.37h-2.25l1.5-0.37zm24.37 0.37l4.13 1.88 1.87-0.38-0.09-0.03-0.28 0.03-1.13-0.74 1.41 0.71 2.34-0.34-0.75-0.75 1.88 1.12h2.62l-3.75 0.38-1.87-0.38-2.25 0.38 1.12 0.75h-1.5l0.38-0.75-3.75-1.12v0.74l-0.38-1.5zm-39 0.76l-3.37 1.5 2.62-0.76 0.75-0.74zm-0.75 0.74l-0.37 0.38 1.87-0.75-1.5 0.37zm28.5-0.37l0.38 0.37-2.25 0.38 1.87-0.75zm5.25 1.5l-0.75 0.75h-2.25l3-0.75zm12 0.75l1.88 0.75h-1.88v-0.75zm114.75 0.75l2.25 0.75 1.5 0.38h0.38l-3.38-1.13h-0.75zm-202.12 0.37l-3.75 1.13h0.37l-2.25 1.13h-0.75l0.38-0.38h0.18l0.57-0.38 1.87-0.74 0.69-0.16 2.69-0.6zm66.37 1.5h1.5l-0.75 0.76-0.75-0.76zm3.75 0h4.13l-2.63 1.88-1.5-1.88zm49.13 0l-5.25 1.5-0.38 1.5-0.37 1.13h-2.25l1.5 0.75-1.88-0.38-3.37 1.5h3.75l-4.13 1.13 0.75 0.75 3.38-0.38 6 0.76 4.12-0.76-1.12 0.76h5.25l-4.5 1.5h3l4.12-1.88 1.13 1.12-1.13 1.13 2.25-0.75v1.5h1.88l1.87-1.88-1.12-0.74-1.5 0.37 0.75-1.13-1.88 1.13-1.87-0.75 1.12-0.38-1.5-0.37 3.75-0.75-4.5 0.38 2.25-1.88h-3.75l-0.37-0.75-3 1.13 0.37-1.13h-3.37l2.25-1.13h-3l0.37-0.37-0.75 0.37-1.87 0.76 1.12-0.76 2.63-2.24-1.5-0.38h2.25l-1.5-0.38zm-46.5 0.38l-1.88 0.38 1.13 0.37 0.75-0.75zm-81.38 0.75l-1.87 0.75h-0.38l2.25-0.75zm39.75 0l-3.37 0.75h3.75l-0.38-0.75zm-42 0.19l-0.37 0.18h-0.22l0.59-0.18zm0 0.18l-1.87 0.76-1.13 0.37 3-1.13zm68.25 0l-6.37 3 1.87-1.87 4.5-1.13zm-69.25 0.13l-0.5 0.25h-0.16l0.19-0.09 0.25-0.1 0.22-0.06zm82 0.25l0.38 1.5v0.75l-1.13-0.75-0.75-0.38 1.5-1.12zm-78.37 0.75l-2.25 1.13-4.88 1.5 3.38-1.13 3.75-1.5zm-6.38 0.37l-0.75 0.38-1.5 0.38 2.25-0.76zm101.63 0l9.75 1.5 0.37-0.37-3-0.75-7.12-0.38zm-43.5 0.38l-2.63 0.75v-0.37l2.63-0.38zm4.12 0.38h1.88l-1.88 1.12v-1.12zm17.63 0l1.87 1.12-1.87-0.38-3 0.76 3-1.5zm-82.5 0.74l-3.38 1.5-1.5 0.38 3-1.12 1.88-0.76zm1.5 0l-4.13 1.88-3.75 1.5-0.75 0.38 0.28-0.19-1.4 0.56 2.25-1.13-0.85 0.57 0.47-0.19 1.5-0.75 1.13-0.75 5.25-1.88zm11.25 0.38l-4.5 1.5 2.25-1.12 2.25-0.38zm43.87 0.38h0.38v0.37 0.37l-2.63 0.38 1.13-0.38 1.12-0.74zm-58.5 1.5l-0.37 0.74-1.5 0.38 1.87-1.12zm9.75 0h1.13l-2.25 0.74 1.12-0.74zm57.75 0.74l1.5 0.76-2.72-0.35-0.65 0.22-0.75 0.5 0.37-0.37-1.12 0.37 1.5-0.75-0.38 0.38 0.38-0.13 0.37-0.25 0.28 0.03 1.22-0.41zm-76.12 0.76h0.37l-0.75 0.37-3 1.13 3.38-1.5zm10.12 0l-0.37 0.37-3.38 4.87-3.37 2.26 3-2.63-2.25 0.75 1.12-1.5-1.87 1.12v-1.5l1.5-0.37 0.37-0.37h-1.12l2.25-1.13 2.25-0.37 1.87-1.5zm106.13 0.74l-1.88 1.13 6 1.5 3.75-1.13h-7.87v-1.5zm14.25 0l-4.5 2.63 1.12 1.13 1.75-0.38h-1.37l3-1.5v-1.88zm-1.63 3.38h0.13l0.06-0.03-0.19 0.03zm0.19-0.03l3.31-0.72h0.75l-0.75-0.37-1.12-0.38-2.19 1.47zm-124.56-2.22l-1.5 0.75h-0.38l-0.37 0.38v0.37h-0.38l0.38 0.37h-0.75-0.38l-1.87 0.38 2.25-0.75 1.12-0.75 1.88-0.75zm24.75 0.37l0.37 0.38-2.62 1.5-1.5-0.38 0.75-0.37 0.75-0.37 2.25-0.76zm38.25 0l-0.38 1.5-1.12-0.74 1.5-0.76zm19.5 0.38v0.38l-20.25 6.74-2.63 1.13v1.5l-3.37 1.13-11.63 1.12 3.38-1.88 8.25-0.74 1.5-0.76h-3l7.5-1.5 8.25-3 12-4.12zm-67.13 0.75l-1.87 0.75-2.25 0.75-1.5-0.37h2.25l3.37-1.13zm-28.5 0.37h0.38l-1.22 0.57-0.28 0.19-1.88 1.12h-0.37l-1.13 0.38 3.66-1.69 0.84-0.57zm9.75 0.38l-4.12 3 2.25-1.88 0.37-0.37-2.25 0.37 0.75-0.37 1.5-0.37h0.38 0.37l0.75-0.38zm31.5 0.38l0.75 1.5 3.38-0.76-1.13 3.38 13.13-0.38 1.87 1.5 1.13 0.76-1.88 0.74-0.37 0.38h-3.38l-1.87-1.12 0.75 1.12-3.75 3.75-3 1.5v-2.63l-5.25 1.5 3.37-2.24 1.5-2.26-5.25-0.37-3.75 3 0.75-1.5-3.75 1.87-3 4.88-3.37 3.38-3.38 1.12 0.75-4.12 5.25-4.88-2.62 0.75 6-3.75 0.75 0.75 4.87-2.25 6-0.38-0.75-1.12-2.62 0.38 0.75-0.76-9.38 2.26-0.75-0.76-3 0.76 0.38-1.13-7.5 3h-1.88l1.13-0.75-4.88 1.12 14.25-6h1.13l1.87-1.5-1.12 1.13 1.5-0.37 0.75-1.13 5.62-0.37zm-33.37 1.87l-1.5 2.63 0.75-1.88h-1.13l1.88-0.75zm273 0l0.75 0.37 1.12 0.38-1.87-0.75zm-264 0.37v1.5l-0.63 0.1-4.25 1.78 3.75-2.25-1.87 0.37 3-1.5zm44.25 0h2.25l-2.25 0.32v0.06h-0.38-1.5l1.88-0.38zm222.75 1.13l2.53 1.13 1.59 0.9v-0.16l-0.75-0.37-0.75-0.37-0.4-0.19-2.22-0.94zm4.12 2.03v0.22l4.5 2.25-1.87-0.75 0.37 0.38 2.25 1.12-3.37-1.5 3 1.5v0.38l3.37 1.87 0.38 0.37 2.25 0.76-2.25-0.38 1.87 0.75h-0.37l1.5 0.75h-0.38l1.5 0.38v0.37l2.63 0.75 2.25 0.75-7.13-4.13-3.62-2.31 2.87 1.57 1.5 0.74-1.12-0.37 3.75 1.87 2.62 1.5 2.25 1.5-0.75-0.37 0.38 0.37 1.12 0.38 1.5 1.12v0.38l5.63 3h0.37l-0.19-0.19 0.32 0.19h-0.13l1.13 1.12-2.25-1.5 1.12 1.5 3.75 1.88-1.5-1.12 3.97 2.12 0.06 0.03 0.47 0.47h0.38l0.37 0.19-0.28-0.19 0.56 0.28 0.06 0.03 0.04 0.07 0.37 0.18 0.75 0.56-0.59-0.37 0.22 0.19-1.5-0.94 4.87 3.38-1.5-1.13 0.63 0.37-0.5-0.37h0.25l-3.38-2.25-1.12-0.75 0.37 0.37-2.25-1.5-0.59-0.34-0.41-0.28-0.12-0.12-0.19-0.1-0.94-0.66-0.75-0.37-0.37-0.37-0.75-0.38h-0.19l-0.56-0.38-0.38-0.37-1.87-1.13-0.25-0.12-2.75-1.75 0.37 0.37 1 0.63 0.5 0.5-1.5-1.13-3.75-2.24-7.12-4.13-2.25-1.13-1.6-0.96-2.9-1.28-0.75-0.38-0.75-0.38-1.5-0.74-0.75-0.38-0.38-0.22zm37.88 21.97l0.56 0.56-0.31-0.19 0.5 0.38 0.37 0.38 2.25 1.5-5.25-3.38 5.25 3.75-2.25-1.13-2.25-1.5-1.87-0.74 1.12 0.74 2.25 1.88 5.25 3 4.88 3.75 2.25 1.5 1.87 1.87 0.75 0.38 6.75 6.38-13.12-6.76-2.63-1.87-1.87 0.37 4.12 3.38 6.38 7.12 1.87 3.76h1.13l0.75 1.5 1.87 0.74h-0.75l3.38 4.5 5.25 1.88 7.12 6.38 1.13-1.13 5.62 3.37-0.37-2.24 1.12 0.74-1.87-2.24 0.37-0.38v-0.38l-1.12-1.12-1.13-0.75-1.87-2.25v-0.38l-1.88-2.62h1.5l-4.87-4.88h0.37l5.63 4.88-0.75-1.12 0.37 0.37 0.19 0.09-0.94-0.84-1.5-1.5-0.75-0.38-0.37-0.74-0.75-0.38-1.13-1.12-0.75-0.38-0.37-0.75-1.5-0.75-0.38-0.75-0.75-0.37-0.37-0.76-0.75-0.37-0.38-0.37-0.25-0.13-0.12-0.25-0.25-0.12 0.12 0.24-0.25-0.12-0.37-0.38 0.5 0.26-0.13-0.26-0.75-0.37-0.37-0.37-0.38-0.38-0.25-0.12 0.13 0.24-0.25-0.12-0.38-0.38 0.5 0.26-0.12-0.26-0.75-0.37-0.75-0.75-0.38-0.38-0.75-0.37-0.37-0.37-0.38-0.38-0.37-0.38-0.75-0.37-1.13-1.13-0.37-0.37-0.75-0.37-0.38-0.38-0.37-0.38-0.38-0.12-0.37-0.25 0.18 0.19-0.56-0.19-0.37-0.37 0.75 0.37-0.38-0.37-0.75-0.38-0.37-0.38-0.38-0.37-0.37-0.37-0.75-0.38-0.75-0.75-0.38-0.37-0.56-0.19-0.19-0.19-0.75-0.38-0.75-0.74-0.37-0.38-0.75-0.38-1.5-1.12-0.38-0.19-0.75-0.56-0.37-0.37h-0.13l-1-0.76 0.38 0.38 0.5 0.38h-0.13l-1.12-0.76-0.75-0.74-0.75-0.38-1-0.75 0.62 0.37-1.12-0.74-1.5-1.13zm38.06 30.09l0.19 0.16v0.12l4.5 4.13 0.37 0.37 0.75 0.76 0.75 0.74-0.22-0.34-0.03-0.03-0.12-0.19v-0.03h-0.03l-0.35-0.53h-0.22l-2.78-2.62-2.25-2.26-0.37-0.37v0.19l-0.19-0.1zm6.19 5.72l0.56 0.53-0.19-0.34-0.37-0.19zm0.56 0.53l0.03 0.1v0.03l0.12 0.22 0.04 0.06 1.87 1.88 1.56 1.24 0.22 0.19v-0.03l-0.28-0.28-1.12-1.12-1.5-1.5-0.29-0.16 0.41 0.4-0.47-0.4 2.32 2.22-2.63-2.41 0.22 0.13 0.09 0.06h0.06l-0.65-0.63zm-47.28-37.84l-0.53-0.37-0.38-0.19 0.91 0.56zm-305.03-22.13l1.5 1.13h-2.63l1.13-1.13zm35.62 0.38l-6 0.75 4.5 0.37 1.5-1.12zm238.88 3.75l1.03 0.63-1.03-0.26v-0.18l0.37 0.18-0.37-0.37zm0.75 0.37l0.62 0.35-0.19-0.03-0.03-0.03-0.4-0.29zm-308.25 1.13v0.37l-4.88 2.26 3-1.5 1.88-1.13zm75.75 1.13l-1.5 1.12-4.13 1.5-8.25 3-6.75 0.38 4.5-3.38 0.75 0.75-2.25 0.75-0.37 0.75 6-2.25 6.37-0.75h-1.5l2.25-0.75 4.88-1.12zm-74.63 3v0.74l1.5-0.74-1.12 0.74 3.37-0.74-4.12 1.12v-0.75l-2.63 0.75 3-1.12zm2.63 1.87l-5.25 6h-1.88l2.63-1.5 4.5-4.5zm-23.25 0.75l-0.38 0.38-0.75 0.37-0.37 0.25 0.28-0.16-0.28 0.28v-0.12-0.09l0.56-0.35-0.19 0.19 1.13-0.75zm10.12 1.5l-1.12 0.75 0.37-0.37-5.62 2.62 0.37-0.75 6-2.25zm10.13 4.12l0.37 1.88-1.5-0.38 1.13-1.5zm348 11.63l0.75 0.5-0.38-0.13-0.37-0.37zm-299.25 7.5l0.37 0.75-1.87 0.38 1.5-1.13zm-96 2.25v1.5l-0.38-0.38-1.5 1.5 1.88-2.62zm35.62 8.62l-0.75 0.76-1.5 0.37 2.25-1.13zm-39.75 1.13v0.37l-2.62 2.63-3.38 1.87 6-4.87zm-15.37 9.75v0.38l-0.75 1.12 0.75-0.75v0.37l-2.63 1.5 2.63-2.62zm131.62 2.25l1.88 1.5-1.5 2.25 0.75 0.38 1.5-3-2.63-1.13zm318.75 0l-0.37 0.37 2.25 1.88-0.38-0.75-1.5-1.5zm-334.5 0.75l-0.37 1.88-1.5-0.76 1.87-1.12zm-131.25 2.25l-1.5 1.87v-0.68l1.5-1.19zm457.13 0l2.62 5.63-3.75 2.62 1.13 4.12 3.75 5.63v2.25l-2.25 2.62-3.75-0.37v4.5l-2.25 1.13 1.12 6-2.25 2.62 0.38-0.38-1.13 7.88 0.75 4.5 0.38-1.12 4.12 5.24v3.38l4.13 8.62v6.38l0.75-0.75 0.28 0.06 0.09-0.06 6.75 1.87 4.13 3.76 3.75 6-7.88-9.76-6.84-1.81-1.03 0.69v3l-2.63 3.38 4.88 5.62 0.75 2.62 3.37 0.38-2.62 0.38-1.88-1.5 0.75 4.5 2.25 0.37-2.25 0.37 3.38 1.5-1.5 0.76 2.25 1.12v1.12h3.75l-2.25 0.38 2.25 1.5-1.88 0.75 1.5 2.25 0.75-0.75v1.5l1.5-0.37 1.5 4.87 1.88 1.5 1.87 1.87-0.37 1.13 1.87 1.5 1.13 4.5 1.12 0.37h-1.5l3.38 4.88v1.88l5.25 5.24 10.12 14.26 4.88 4.5 4.12-1.13 6.75 1.87 6.75 6.38 5.25-1.12 3.75-0.76 6 1.88-0.75 0.75 2.25 1.87 1.88 4.5 0.75-0.74-0.38 1.12 1.13 1.12-1.13-0.37 0.75 1.5 0.75-0.37-0.75 1.5 1.88 5.62 1.5 1.5v-1.5l0.37 1.5-0.37-1.88 0.75 2.26v-1.88l0.75 1.88 1.87 1.5-0.37-2.26 1.12 3 0.38-1.12 1.12 5.25h0.75l0.38 1.87-0.38-0.74 1.13 4.87-1.13 9.37 0.75 1.13v3.37l-0.75-0.74 0.38 0.74 1.12 2.26h-1.12v-2.26l-0.75 5.63-0.75-1.13 1.5 11.26 3.37 15.74v7.88l0.75 2.62-0.75-0.37 0.38 14.63-1.5 3.37v5.63l-0.38 6.74-1.87 6.38-3 4.12-4.88 12-3.37 11.63-4.88 29.63-8.25 20.62-7.5 22.5-4.12 10.12-2.25 4.5-1.5 0.38-4.13 8.25 1.13-0.37-1.5 5.24v0.38h4.5v4.88l2.62 0.74 7.5-5.62 3.75-4.5 1.5-1.88 2.25-2.62 6.38-10.88 0.75-1.5 3-3.74 4.5-9.38 4.12-10.12 1.5-4.5-0.37 1.5 0.75-2.26h0.37l1.5-4.12 0.38-1.5 0.37-1.12 0.38-0.76v-0.74l0.75-1.5v-0.76l0.37-0.37v-0.75l0.75-1.5v-0.75l0.75-1.5v-0.75l0.38-0.75v-0.75l0.75-1.5v-0.75l0.37-0.75v-0.75l0.75-1.5v-0.75l0.38-0.75v-0.75l0.37-0.75v-0.75l0.56-1.12 0.04-0.07 0.15-0.69v-0.37l0.19-0.34 0.19-0.85v-0.31l0.15-0.31 0.22-0.91v-0.28l0.13-0.25 0.25-1.03v-0.22l0.09-0.19 0.28-1.15v-0.16l0.06-0.16 0.32-1.25v-0.09l0.06-0.09 0.31-1.35v0.69l1.13-4.5 1.03-5-0.28 0.88 0.28-1.63 0.09-0.25v0.59l0.75-3.59 0.38-1.88-0.25 0.26-0.13 0.5v-0.38l0.13-0.12 0.06-0.26 0.19-0.37v-0.37l0.37-1.13 0.38-1.87 1.12-7.13 0.47-4.06 0.06-0.5 0.22-1.81 0.25-1.6 0.5-3.66 0.22-1.59 0.16-1.75v-1.16l0.12-0.24 0.25-2.76 0.75-10.12v-0.03l0.38-1.09v-2.63l0.37-0.75v-6-1.5l0.38-3v-20.25l-0.38-0.75v-7.5l-0.37-0.75v-4.13l-0.38-0.74v-4.13l-0.37-0.75v-3.38l-0.38-1.12v-2.25-0.37l-0.37-0.38v-2.62l-0.38-0.76v-2.24-0.38l-0.37-0.38v-1.5-0.74l-0.38-0.76v-1.87l-0.37-0.75v-1.5l-0.38-0.75v-1.5-0.37l-0.37-0.76v-1.5l-0.38-0.74v-0.76-0.74l-0.37-0.76v-1.12l-0.38-0.75v-1.5l-0.37-0.75v-0.75l-0.38-1.13v-0.74l0.38 1.5-0.38-1.88v0.31l-4.12-17.19-1.5-6.37-1.5-4.91v-0.72l-0.38-0.74v-0.76l-0.75-1.5v-1.12l-1.12-2.25v-0.25-0.03-0.47l-0.38-1.12-0.37-0.76v-0.12-0.03-0.59l-0.75-1.5v-0.32-0.06-0.75l-0.85-1.72-0.28-0.53v-0.25l0.28 0.78-0.28-0.91v-0.37l-0.37-0.75-0.38-1.12-0.75-2.26-1.5-3.74v-0.38l-0.75-1.5 0.38 0.38-1.5-3.32v-0.44l-0.75-1.5-0.38-1.12v-0.38l-0.37-0.37-0.75-1.5v-0.75l-0.38-0.75-0.37-1.13-1.5-3v-0.37l-1.88-3.75-0.75-1.81v-0.44l-1.12-2.25-1.88-3.75-0.09-0.09-0.66-1.41 0.16 0.44-0.16-0.28v-0.03-0.13-0.37l-3.37-6.76-2.25-4.5-0.38-0.37-1.12-2.25-0.38-0.38-1.87-3.74-0.38-0.38-0.37-0.75-0.75-0.75-0.38-1.12-0.37-0.76-0.38-0.37-0.75-1.5-0.37-0.37-1.13-2.26-0.75-1.12-0.19-0.19-0.18-0.56-0.75-1.13-1.13-1.87-0.06-0.06-1.81-2.94-3-4.13-0.75-1.5-7.5-10.5-1.5-1.5-7.5-9.37-1.5-2.63-4.13-4.87-0.37-0.5 0.75 0.87 3.75 4.5-3.41-4.24 0.78 0.5-2.62-3-0.38-0.38-0.19-0.25-0.15-0.16-1.16-1.47-0.37-0.37 0.84 1.06-0.47-0.53 0.94 1.16-0.56-0.56-0.44-0.54 0.06 0.16-0.37-0.38 1.5 1.88-3.38-3.75-1.12-0.75-3.38-3h-0.75l-3.37-3-4.88-2.62-0.37 1.12-1.88-1.12-0.37 1.12-2.25-1.12-1.5-1.5-3.75-1.5-4.13-3.76-1.12-0.37zm30.75 18.37l-1.5-1.87-0.5-0.63 0.4 0.44-0.9-1.06 0.09 0.19-2.47-2.69-0.37-0.38 4.87 5.63 0.38 0.37zm-4.88-5.62l1.88 1.88-1.97-2.07 0.09 0.19zm-0.09-0.19l-0.28-0.56-0.47-0.25 0.75 0.81zm-0.75-0.81l-0.44-0.44 0.03 0.1 0.03 0.03 0.1 0.19 0.28 0.12zm-0.41-0.34l-0.47-0.57 0.44 0.47-0.22-0.44-1.5-1.5-0.75-0.74-0.06-0.04 1.5 1.63 1.06 1.19zm3.13 3.22l0.46 0.56-0.09-0.19-0.37-0.37zm1.4 1.68l0.47 0.56 0.75 0.76-1.22-1.32zm1.22 1.32l0.47 0.59-0.09-0.22-0.38-0.37zm0.47 0.59l-1.22-1.35-0.37-0.37 1.81 2.09-0.16-0.31-0.06-0.06zm82.41 230.03l-0.22 2.69 0.22-0.44v-2.25zm-0.75 13.88l-0.29 2.81 0.29-0.57v-2.24zm-1.13 11.24l0.38-0.74v-3l-0.38 3.74zm-0.53 5.91l-0.16 1.72 0.32-2v-0.91l-0.16 1.19zm-4.72 29.56l-0.09 0.41 0.09-0.25v-0.16zm-2.25 9.91l-0.31 0.66-0.06 0.18v0.6l0.37-1.44zm-0.69 2.09l-0.06 0.32v0.5l0.35-1.35-0.29 0.53zm-0.06 0.82l-0.06 0.18 0.06-0.09v-0.09zm-0.06 0.18l-0.22 0.47-0.09 0.41v0.41l0.31-1.29zm-0.31 1.29l-0.07 0.28 0.07-0.16v-0.12zm-0.07 0.28l-0.18 0.34-0.13 0.53v0.28l0.31-1.15zm-0.31 1.15l-0.09 0.38 0.09-0.19v-0.19zm-0.09 0.38l-0.13 0.25-0.15 0.62v0.19l0.28-1.06zm-0.28 1.06l-0.13 0.5 0.13-0.25v-0.25zm-0.13 0.5l-0.06 0.16-0.19 0.71v0.1l0.25-0.97zm-0.25 0.97l-0.15 0.59 0.15-0.31v-0.28zm-87.75-327.1l7.5 7.88 0.66 0.31-0.66-0.69-0.44-0.53-0.31-0.59-0.37-0.19-0.69-0.78-0.06-0.15-0.1-0.07-0.28-0.31-1.87-1.88-0.75-0.74-1.5-1.5-0.38-0.38h-0.03l-0.09-0.06-0.63-0.32zm-320.62 1.88l2.62 1.88-0.37 1.87 0.75-2.25-3-1.5zm322.9 0.22l1.32 1.34-0.13-0.22 0.66 0.72-0.13-0.06 0.78 0.81 0.1 0.19 0.15 0.09 0.6 0.66-0.75-0.75-0.75-0.75-0.32-0.34 0.19 0.09-0.4-0.44 0.12 0.22-1.44-1.56zm-423.4 0.16h0.75l-1.13 0.37h-0.75l1.13-0.37zm-4.13 1.12h0.38l-1.13 0.38-0.75 0.37h-0.75l2.25-0.75zm96.75 0.75l-1.87 2.63 2.25 0.74 1.5-1.5-1.88-1.87zm-103.12 1.13h0.37l-1.12 0.37-0.75 0.37-1.13 0.38h-0.37l0.75-0.38 2.25-0.74zm-7.13 2.24h0.38l-1.13 0.38-0.75 0.38-1.12 0.37h-0.38l0.75-0.37 2.25-0.76zm112.5 0l-1.5 0.76 0.47 0.62 1.03-1.38zm-1.03 1.38l-0.09 0.12 0.15-0.03-0.06-0.09zm0.06 0.09l0.6 0.79 0.75-1.13-1.35 0.34zm-120.53 1.53h0.38l-1.13 0.38-0.75 0.38-1.12 0.37-0.75 0.37-1.13 0.38-0.75 0.38h-0.75l1.13-0.38 0.75-0.38 2.25-0.74 0.75-0.38 1.12-0.38zm102.75 3.76l-15 4.12-1.87 3.38-3.38 1.12 4.5-0.75 7.13-4.5 4.5-0.37 1.12 0.37-2.62 0.75 1.5 0.75 9 0.37 6.37 0.38 2.63 3.38h4.5l0.75 1.5-3.75 2.62 14.62-1.88 4.88-1.87-8.25-1.13 0.37-1.87-6.37-0.37-13.88-5.63h-1.12l-5.63-0.37zm313.5 1.12l1.5 1.5 1.13-1.5h-2.63zm10.5 0.75l-0.37 0.75h1.12l-0.75-0.75zm-438.37 1.13h1.12l-1.5 1.5 0.38-1.5zm432.75 0.37v0.75l1.5 0.38-1.5-1.13zm5.25 0l-0.75 1.87h1.5l-0.75-1.87zm-282.38 0.75l-3.75 1.5h3l0.75-1.5zm-164.25 2.62l-1.12 1.13 0.37 0.75 0.75-1.88zm112.5 0l-0.37 2.26 2.62-0.76-0.75-1.5h-1.5zm52.5 3.38l-3.75 1.5 4.13 0.75-0.75 1.87 2.25 2.26h-10.13l-1.5 1.5 3 1.5 10.13-1.88 3.37 3 1.5-1.88 3-2.24 10.88 0.37 1.87-1.87-7.12-1.88 3-1.12-3.38 0.37-1.12-1.87-15.38-0.38zm39 5.25l-9 0.37 0.38 1.88 6.37-0.38 2.25-1.87zm-61.87 3.75l-7.88 1.12 3 1.88 4.13-0.38 4.5-0.74-3.75-1.88zm85.12 4.5l-1.87 1.12 1.12 1.5 2.25-1.12-1.5-1.5zm-208.87 10.12l0.75 0.76-3 0.37 2.25-1.13zm1.5 6l2.62 0.76h0.38l-2.25 0.37-0.38 1.5-0.37-2.63zm39.37 1.13l3 1.87h-3.37l0.37-1.87zm458.88 8.25l0.5 0.75-0.38-0.37-0.12-0.38zm-287.88 2.62l-4.12 0.38 1.12 2.25-2.62 1.13 5.25-0.38 0.37-3.38zm196.5 0.38l0.38 1.88h1.5l-1.88-1.88zm-337.5 1.88l0.75 1.5-2.62-0.38 1.87-1.12zm2.25 1.5l4.88 4.5-4.88-0.76v-3.74zm130.5 1.87l1.5 5.25 2.63 0.38-14.07 3.68 10.32-3.68 0.37-1.5-0.75-4.13zm-18.75 9.37l4.31 1.44 4.32-1.44-4.13 1.5-0.19-0.06-0.18 0.06-4.13-1.12-4.5 1.5-6.75 7.88 2.25-5.26 4.5-3 4.5-1.5zm16.5 0.76l-0.75 4.87-1.12-4.13 1.87-0.74zm313.69 9.93l0.34 0.72-0.15-0.15-0.19-0.57zm-32.06 0.57l1.5 2.24h-0.75l-0.75-2.24zm-236.25 4.87l0.75 2.25h-3l2.25-2.25zm280.87 23.94l0.19 0.43-0.19-0.37v-0.06zm-249.75 2.69l-4.12 0.37 2.25 1.87 1.87-2.24zm251.25 1.06l0.47 1.4-0.47-0.96v-0.44zm-346.12 0.44h12.75l12.37 6 9.38 9.74 9 0.38 5.25-4.5 5.25 1.12 3.75-3.37 6.75 0.37 1.87 1.13v1.5h1.88l9-4.13-8.25 4.13-5.25 0.37-2.25 6.38 1.12-7.12 2.63 0.37-5.25-1.13h3.37l-3.37-1.5-6 3.38-5.25-1.12-6.38 5.24-6.37-1.12-1.5 0.38-10.88 4.12-3.37-1.88-6.75 4.5-0.38-1.87 1.88-0.75-8.25-3.38-0.38 1.13-3-4.5-4.12-1.5-8.25 0.75-4.5 5.62h-6.38l-1.87 2.63 1.12 0.75-2.62 1.88-0.13-0.16-0.25 0.16-2.25-2.63-6.75-0.37h6.75l2.5 2.84 2.75-1.72-1.5-0.38 2.25-3.37 6.75-0.37 4.13-4.88 11.62-1.12 6.38 6 7.5 3 3.75-2.26 3 1.5 5.62-1.87 0.75-2.63 4.88 0.38-3.38-1.12-6.37-8.63-11.63-5.63h-16.12l3-0.74zm303.75 4.12h0.37l-0.37 3.38 0.37 1.5 0.75-1.13v2.63l-1.5-2.63 0.38-3.75zm-250.13 1.5l4.5 1.12 0.38 1.88-4.88-3zm262.88 0.38l4.46 8.93-0.06-0.84v-0.03l-0.28-4.69 0.84 8.44 0.29 0.56v2.22l-0.38-1.09v-1.88l-0.37-0.75-0.75-0.75 0.75 0.38-1.88-1.13h1.5l-2.25-3-0.75-3.37-2.25-1.13 1.88 0.75-0.75-2.62zm14.25 1.12l0.37 4.5-1.12-2.62 0.75-1.88zm13.12 0h0.38l1.12 4.12 0.38-0.37 0.37 1.87 1.5 2.26-0.75 0.74-3-8.62zm-260.25 2.62l5.25 0.38-1.84 2.19 1.09 1.56-1.12-1.5 0.03-0.06-1.53-2.19-0.75 2.62-1.13-3zm-225.75 3.38l-1.12 1.12 2.62 3-2.25 1.88h2.25l1.5-1.5-3-4.5zm107.25 4.88l-6.75 2.24 1.88-1.12-1.13-0.75 2.63 0.37 3.37-0.74zm354.38 1.12l2.25 2.25v-0.66l0.15 1.57 0.22 0.22v1.87l-0.22-2.09-0.15-0.16-2.25-3zm16.87 3l1.5 4.88 1.13 12.74-1.13-12.37-1.5-5.25zm8.25 31.12l-0.75 1.13 0.75 1.5v-2.63zm3 27l0.38 1.5-0.38 0.38v-1.88zm14.25 4.5l1.88 3.76 1.12 12.37-1.5-12.37-1.5-1.88-0.75-0.75-0.75 1.87v4.88l-3 7.5 2.25-6.75 0.75-6.75 1.13-1.5 0.37-0.38zm-383.62 2.63l1.87 0.37 5.63 4.88-1.5 1.88-1.13-2.63-1.12 1.13-4.5-2.63 0.75-3zm381.37 13.87h0.75l-0.37 1.88 0.37 1.5-0.75 2.25v-5.63zm-365.25 1.5l1.13 6.38-1.88-3 0.75-3.38zm120.75 4.5l2.25 3.76-1.5 1.12-1.87-0.38 1.5-2.62-1.88 0.38 1.5-2.26zm-2.25 13.5l-0.37 1.13 1.87 2.63-3.37-3-1.88 0.74 3 4.5-1.87-1.87-1.5 0.75 1.5-1.5-1.88-3 4.5-0.38zm-21.37 14.26h3.37l-0.37 1.87-3-1.87zm273.37 5.24l-0.34 3.29 0.34-0.66v-2.63zm-0.75 9.38l-0.06 0.5 0.06-0.12v-0.38zm-321.75 6.75l13.5 1.5-16.12-0.37-3.75 11.62v3l-0.38 3.75-0.37 0.5v0.25l-0.75 0.75-1.13 1.5-3.37 4.5 1.12 7.13-1.5-7.5 3.75-4.5v-1.88l0.38-0.75v-3.75h1.5l0.37-4.12 1.13-1.5 2.62-9 3-1.13zm319.88 4.87l-0.75 3.76v-0.38l0.37-2.25 0.38-1.13zm0 0.38v1.12l-0.38 1.13 0.38-2.25zm-2.25 13.5l-0.75 2.62v-0.37l0.75-2.25zm-337.88 0.75l-2.25 1.87-1.5-1.5 3.75-0.37zm337.13 4.87v0.38l-0.32 0.91-0.06 0.37v-0.16l0.06-0.21 0.16-0.85 0.16-0.44zm-0.97 4.79l-0.16 0.78v-0.31l0.16-0.47zm-288.53 0.47l-0.38 3.74-1.87-0.37-2.63 4.5v-3.37l4.88-4.5zm288.34 0.46l-0.34 1.78-0.38 1.32v-0.94l0.38-0.38v-0.74l0.34-1.04zm-302.22 0.28l-3.37 1.88 0.75 1.12-3.75-0.74h-0.38l6.75-2.26zm301.44 3.07l-0.31 1.06-0.38 1.5 0.38-1.87v-0.38l0.31-0.31zm-5.94 13.43l0.38 1.13-0.38-0.37-1.87 3.74 1.87-4.5zm-370.5 31.5l2.63 1.88-2.25 0.38-0.38-2.26zm-4.87 1.5l1.5 1.13-1.5 0.75v-1.88zm-4.5 4.88v8.25l1.87 0.37 1.88-1.5-1.5-7.12h-2.25zm6.75 13.5l-1.5 1.5 1.87 1.12-0.37-2.62zm349.5 0l-1.13 1.88 0.38-1.5-0.75 1.87 0.37-1.87 1.13-0.38zm-354 10.5l1.5 0.38-0.75 1.5-0.75-1.88zm7.5 0.38h6.37l-4.5 0.37-2.25 2.63 0.38-3zm-6 9.37l-0.75 2.63h2.25l-1.5-2.63zm6.75 0.75l1.5 2.25v-1.87l1.87 3.37-3.37-0.75v-3zm-6.38 2.25l0.38 3.37h-2.63l2.25 3 1.13-3.37-0.38 3.75 1.88-1.12-2.63-5.63zm6.75 6.37l4.88 0.38-3.75 1.12 0.37 1.5-1.5-3zm-7.87 0.76l0.75 1.87 0.75-1.87h-1.5zm61.5 3.74v2.63l4.5-0.37-0.75-1.5-1.13 1.5-2.62-2.26zm0 2.63l-3 1.87 1.5 1.13 1.12-1.5 1.5-0.37-1.12-1.13zm-6.38-2.25l2.63 1.88-2.63-0.38 1.88 0.75-3 1.5 3.75-0.37 3-3h-3l-2.63-0.38zm-28.87 6.75l-5.63 1.5 0.38 3h3.75l-1.88 3 4.13 1.87-1.13 1.13-0.75-1.5-0.75 1.13-4.5-1.88 3 1.88-1.87 0.37-0.38-1.5-3.75 1.87 18 0.76 5.25-1.88-9.75-3.75-4.12-6zm-13.5 1.5l-0.75 2.63 1.87 1.12-0.75-1.12 3.38-2.63h-3.75zm-7.13 0.75l2.63 1.88 3.75 0.74-6.38-2.62zm6.38 2.62l-1.88 1.88 2.25 1.5 1.5-1.12-1.12 1.12 2.62-1.5-3.37-1.88zm9 0.38l-1.13 2.25 2.63 1.13-1.5-3.38zm-3.75 2.25l0.37 1.13 2.25 0.37-2.62-1.5zm11.62 4.13l-5.25 1.12 2.63 1.88-0.75-1.5h2.25v1.12l3 0.75-3.75-2.63 1.87-0.74zm102.38 0.37l4.87 4.5-0.37-3.37-4.5-1.13zm-64.13 36.75l-1.12 1.12 3.75-0.37-2.63-0.75zm-3.37 0.38l-7.13 2.24-2.62 1.13-5.25 4.5-1.88-0.37 0.75 1.87-4.5 2.63v2.24h-2.25l0.75 2.63-2.62-1.13v2.26l2.62-0.38-1.5 1.88 1.5 1.12-3.75 4.5 1.13 1.5-1.5 0.75-3.75-4.5-3 1.5 1.12 1.13h-1.87l0.37 1.12-7.12 0.75 2.25 1.13 2.62 1.5-1.87 1.5 4.5 0.37-3.38 2.63 6 1.5 1.88 3.74-9.75-2.24-2.25 1.87 2.25 1.87-3-1.5h-0.75l-13.13 1.88-1.12-1.88-10.5 3.38-2.25-0.38 0.75-0.74-3-1.5-4.5 1.5-2.25 1.12-1.13 2.25 3.75 2.25h4.5l-1.87 0.75 6.37 4.13-4.87 0.37 1.5 1.5-3.75-3-2.63 0.75 0.75 2.25-9.37-0.37-4.5 2.24-1.5 0.38-6.75 1.12 2.62 5.26v4.87h-2.25l3.38 1.87 0.75 0.38 0.75 3.38 2.62 0.37 0.38 3.37h2.25l3 1.5-1.13 2.26 4.5 0.74 0.75 0.76 3 1.87 2.25 0.37 4.13 4.88v0.75l0.75 2.25 4.5 2.62 3-0.37 2.25 0.75-1.88 0.75h-6.37l-1.88-0.37v0.37l-3-0.37-1.5-0.38h-1.5l-1.5-0.38-4.5-0.74-1.5-0.76-6-0.74-3-0.76v1.5l5.63 1.88v0.38 0.37h0.37l5.25 1.5 0.75 0.37 10.13 2.26-1.88-0.38 3 0.75 2.63 0.37-1.88-0.37 2.25 0.37 8.63 1.5 2.12 0.32h0.03l0.1 0.06h0.25l1.9 0.28 0.1 0.1h0.5l2.5 0.37h1.12l1.63 0.16 0.65 0.09 0.35 0.12h0.37l2.69 0.29 0.31 0.09h0.75l3.22 0.31 0.16 0.07h0.37l3.75 0.37h1.5l4.38 0.31 0.12 0.06h0.75 4.13l2.93 0.32h0.04l0.03 0.06h0.37 9v-0.09c4.69 0.06 9.15 0 13.34-0.13l-0.12 0.13h-0.03l-0.81 0.09h0.75l0.03-0.06h0.03l2.03-0.22c2.06-0.08 3.95-0.21 5.84-0.31l-1.93 0.21h1.87l0.13-0.06 4.37-0.31h-1.5c1.09-0.07 2.05-0.14 3.06-0.22l-0.06 0.03-0.31 0.1-1.19 0.09h1.13l0.25-0.13 2.56-0.24h-0.41c0.52-0.05 1.1-0.09 1.6-0.13l-1.19 0.13h1.31l0.47-0.16 0.06-0.03c0.17-0.02 0.3-0.02 0.47-0.03l-0.62 0.22h0.37l1.28-0.32 0.53-0.06h0.07 1.87l0.44-0.22h0.09l1.53-0.16h-0.28c0.5-0.05 0.87-0.1 1.31-0.15l-0.24 0.09-0.79 0.06h0.94l0.85-0.15 2.15-0.22h0.38 0.37l0.1-0.09 0.65-0.13 0.94-0.15h1.31 0.38l0.09-0.1 1.41-0.28h0.37 0.75l7.31-1.12h0.19l0.31-0.07 1.94-0.31 3.5-0.75h1l1.5-0.37 1.88-0.38 1.5-0.38 3.75-0.74 1.5-0.38 1.87-0.38 1.5-0.37 1.88-0.37 1-0.26 0.87-0.12 3-0.75 1.88-0.37 3-0.76 1.87-0.74 1.5-0.38 1.88-0.38 1.5-0.37 1.87-0.75 1.5-0.38 1.88-0.37 1.5-0.75 1.5-0.38 1.87-0.37 1.5-0.75 1.88-0.38 1.5-0.74 1.5-0.38 1.87-0.75 1.5-0.37 1.5-0.76-6.66-0.03 4.04-1.84 1.12-0.75 5.25-2.25 1.5-0.37 6.38-3.38 0.75-1.5-4.5 1.5 3.37-1.88h-1.12l-1.5 0.76h-1.13l3.38-1.88-1.88 0.38-1.87-2.26h-3l-4.13 0.76h-0.37l0.75-0.38 2.62-1.12-0.37-0.38 6.37-4.12h-1.12l-3.75 1.12v-0.75l3-1.87-4.13 0.37-1.12-0.75-3-1.5 1.5-3.38 0.37-0.37 0.75-2.25-1.87-1.12 2.62-1.5-4.87 0.37h-0.38l-3-3.75h-0.37l-2.25 0.38-3.38-4.5 3.94-3.29 0.19-0.09 0.37-0.38-1.12-0.37-2.63 2.25-3.37 0.38h-1.5l-7.88-1.5-0.37-1.5-8.25 1.5-3.38 1.5-3-0.76-5.25 0.76-1.5-1.13-4.87 2.63-1.88 0.74-13.5 3-2.25 1.88-8.25 1.88h-3l-4.12 1.87-4.5-1.5-1.13-0.37-1.12 0.37-0.38-0.75-4.12 1.12-17.25-10.12-3-1.12 3.37-5.63v-2.25l-1.5-9 0.75-1.12 1.13-1.88 2.25-4.5-2.25-0.38-2.25-6 2.25-4.5 4.12-6.74 1.47-0.47-1.09 0.84 0.75 1.5 2.62-0.75-1.75-1.75 2.88-0.87-1.5-1.5zm-13.88 3.37l-0.37 1.87 1.87-1.5-1.5-0.37zm-1.87 0.75l-2.25 1.88 3-0.38h0.37l-1.12-1.5zm-9.38 10.12l-2.62 4.13 2.25-0.75 0.37-3.38zm-56.25 36.38l2.25 1.88 3 0.37-1.5-1.5-3.75-0.75z" transform="matrix(.64 0 0 -.64 43.42 750.71)" fill="#b9b9b9"/><g id="g4194" transform="translate(280.8,501.6)"><path id="path4196" d="m0 0h0.48-1.2 0.72" fill="#dcdcdc"/></g><g id="g4298" transform="translate(280.8,501.6)"><path id="path4300" d="m0 0h0.48-1.2 0.72" fill="#dcdcdc"/></g><g id="g4518" transform="translate(295.92,503.76)"><path id="path4520" d="m0 0h2.16-0.48 2.16-3.84" fill="#dcdcdc"/></g><g id="g5890" transform="translate(291.84,350.4)"><path id="path5892" d="m0 0h0.24-0.24" fill="#dcdcdc"/></g><g id="g6150" transform="translate(258.48,178.8)"><path id="path6152" d="m0 0v0.24-0.24" fill="#fff"/></g><g id="g6350" transform="translate(356.88,106.56)"><path id="path6352" d="m0 0h-0.24 0.24" fill="#dcdcdc"/></g><g id="g16050" transform="translate(289.2,114.72)"><path id="path6840" d="m0 0v1.44-1.44" fill="#dcdcdc"/></g><path id="path17592" d="m836.41 156.44l-2.85 0.31 0.6 0.78-0.1 0.28-1.78 1.69-7.97 2.34-0.59 1.69-8.16-2.65-0.12 0.37 2.56 7.09 3.16 0.41-0.1 1.06-9.84 6.81-0.41-1.5-3.22 1-2.87-1.96-2.56-3.66-1.97 1.78-1.47-1.19 0.19 1.1-7.57 0.59-0.09 2.75 2.56-0.09 0.38 1.78-3.75 0.28-0.28 3.16v0.37l3.15 4.25-2.56 13.94 0.22 0.25 2.19-1.38-1.19-0.28 1.78-2.69 5.34-0.28 3.29-3.87 9.21-0.91 5.07 4.78 5.93 2.38 3-1.78 2.38 1.18 4.47-1.5 0.59-2.06 3.85 0.28-2.66-0.9-5.06-6.82-9.22-4.46h-12.82l2.41-0.6h10.09l9.82 4.75 7.44 7.75 7.15 0.28 4.16-3.56 4.15 0.88 3-2.66 5.35 0.28 1.5 0.91v1.19h1.47l7.15-3.29-6.56 3.29-4.16 0.28-1.78 5.06 0.88-5.66 2.09 0.32-4.16-0.91h2.66l-2.66-1.19-4.78 2.69-4.15-0.91-5.07 4.19-5.06-0.91-1.18 0.32-8.63 3.25-2.66-1.47-5.37 3.56-0.28-1.5 1.47-0.59-6.53-2.66-0.32 0.87-2.37-3.56-3.25-1.18-6.56 0.59-3.57 4.47h-5.06l-1.5 2.06 0.91 0.59-2.1 1.5-0.09-0.12-0.19 0.12-0.09-0.12-0.03 0.19-3.66-0.69-9.62 5.09-1 5.82-3.76 5.43 4.94 6.19-1.09 1.78 4.03 0.38 0.59 2.28 1.97-0.22 2.28 0.12 3.13-2.96 0.12 2.06-0.31 5.12 8.97 0.1 4.53-2.16 0.69-0.78 3.72-2.97 5.81-1.09v7l2.06 3.56 3.47 2.16 5.31 0.59 5.5 4.12 6.32 1.29-0.32 5.9 1.78 5.31 8.07 0.41-0.28 4.5 4.03 4.34-2.85 8.75 1.16 4.35-0.78 4.9 6.41 0.41 2.93 1.56 1.28 7.41 5.03 0.59-1.28 6.97 2.47 0.5-0.31 6.88-8.25 4.75-7.69 8.65 0.19 0.38 3.06-0.38 2.85 4.41 1.87-0.97 6.78 5.72 2.03 2.72 2-1.85-0.28 3-1.5-0.31-1.44 2.47 0.22 2 3-3.28 1.78-5.66 5.38-6.25-0.91-1.78 2.69 2.38-6.56 7.43 5.37-4.43 3.25-5.07 2.1-2.97 4.15-3.28 1.79-6.56-1.19-3.84 2.4-3.28-1.5-0.91 2.1 0.59 2.97-3.56 5.34-3.28h3.88l4.74-3.56 3.29 0.9 2.09-1.5v1.5l4.44 0.28 0.31-2.06 4.47-1.78-0.31-2.4 5.34-6.85 0.91-1.47 1.18-5.65 2.69-2.69 3.56-22.31 0.6-1.19 0.9 2.09 1.79-1.19 9.21-11 5.35-6.84 0.9-5.37-1.5-7.72-1.46-2.1-6.26-1.47-5.65-6.56-6.56-4.75-9.82-1.19-5.06-2.96-6.53 3.84 0.59-2.97 1.79-1.19-2.97 0.32 2.37-1.82-1.5-2.96-2.06 1.78-0.31-2.38-0.88 0.91 0.59-0.91-1.5 0.31-1.18-1.78-0.6 1.19-0.28-1.78-0.62 0.87-4.44-2.68-0.31 0.9-2.97-0.9-2.1 3.28 1.79 0.59-1.47 0.6-1.19-1.47-3.87 4.15 1.18-2.97-5.34 0.6 7.12-1.5 2.38-5.07-9.22-1.46-2.06 3.84v-2.06l-2.1 1.78v-2.1l-2.09 2.1 1.78-3.88 6.56-5.34h-0.9l0.9-2.09-3.87-2.07-2.69-9.25-1.19-0.87-0.28 1.5-0.09-0.13-5.69 7.82-3.62-0.88-1.78 0.78-3.85-1.97h-4.72l0.28 2.75-0.47 0.22-6.21-0.59-7 3.34-4.22-3.15-1.1-4.13 1.97-4.62-2.25-2.19-0.59-0.38 0.19-3.15zm48.37 22.94l-3.28 0.28 1.78 1.5 1.5-1.78zm-32.72 5.62l3.56 0.91 0.32 1.5-3.88-2.41zm23.78 3.28l4.19 0.31-1.47 1.72 0.88 1.25-0.91-1.18 0.03-0.07-1.22-1.72-0.59 2.07-0.91-2.38zm25 77.34l1.78 2.97-1.18 0.91-1.5-0.28 1.22-2.1-1.5 0.29 1.18-1.79zm-1.78 10.72l-0.31 0.91 1.5 2.06-2.69-2.37-1.47 0.59 2.38 3.56-1.5-1.47-1.19 0.6 1.19-1.19-1.47-2.37 3.56-0.32zm-16.97 11.32h2.69l-0.31 1.46-2.38-1.46z" fill-rule="evenodd" transform="matrix(.80676 0 0 -.80676 -383.33 578.06)" fill="#346733"/><g id="g11246" transform="translate(-457.44)" stroke="#fff" stroke-width=".36788" fill="none"><g id="g6862" transform="translate(808.96,181.84)"><path id="path6864" stroke-linejoin="bevel" d="m0 0h-0.96l-5.04 0.96-0.24 0.96-5.28-0.96-2.16-0.96-1.92 0.48-3.36-0.48-0.96 0.72-3.12-1.68"/><g id="g6866" transform="translate(36.48,369.36)"><path id="path6868" stroke-linejoin="bevel" d="m0 0l0.24-0.48 3.36-1.68"/><g id="g6870" transform="translate(76.32,-68.4)"><path id="path6872" stroke-linejoin="bevel" d="m0 0l-0.24 0.24-0.24 0.72-1.68 2.64v0.96l-1.44 1.92"/><g id="g6874" transform="translate(-30.96,36.96)"><path id="path6876" stroke-linejoin="bevel" d="m0 0l-0.96 0.72-1.2 0.96-2.16 1.92v0.24l-1.44 1.2v-0.24"/><g id="g6878" transform="translate(-7.44,6.24)"><path id="path6880" stroke-linejoin="bevel" d="m0 0l-0.96 0.72"/><g id="g6882" transform="translate(38.16,-42.96)"><path id="path6884" stroke-linejoin="bevel" d="m0 0l-3.84 5.76-1.68 1.92-3.6 4.56-0.72 1.44-3.84 4.8-0.48 0.72"/><g id="g6886" transform="translate(-34.8,39.12)"><path id="path6888" stroke-linejoin="bevel" d="m0 0l-2.4 1.44"/><g id="g6890" transform="translate(2.4,-1.92)"><path id="path6892" stroke-linejoin="bevel" d="m0 0l-1.92 1.44"/><g id="g6894" transform="translate(-1.92,1.44)"><path id="path6896" stroke-linejoin="bevel" d="m0 0l-0.48 0.48 0.48-0.48z"/><g id="g6898" transform="translate(10.8,-8.88)"><path id="path6900" stroke-linejoin="bevel" d="m0 0l0.24-0.24"/><g id="g6902" transform="translate(-280.8,20.64)"><path id="path6904" stroke-linejoin="bevel" d="m0 0l1.2 0.72 1.68 1.2 4.08 2.4"/><g id="g6906" transform="translate(-22.8,-29.76)"><path id="path6908" stroke-linejoin="bevel" d="m0 0l4.8 2.4-0.72-0.48 5.76 0.24 6 2.16 0.72 1.2 3.84 1.44 1.92-1.92-0.24-1.2"/><g id="g6910" transform="translate(29.76,34.08)"><path id="path6912" stroke-linejoin="bevel" d="m0 0l15.6 7.44 16.56 5.28"/><g id="g6914" transform="translate(32.16,12.72)"><path id="path6916" stroke-linejoin="bevel" d="m0 0l9.6 2.4 0.72 0.72 0.24-0.72 7.92 0.96"/><g id="g6918" transform="translate(30.48,-2.88)"><path id="path6920" stroke-linejoin="bevel" d="m0 0l-1.68-1.2 1.44-0.48 7.2 2.4"/><g id="g6922" transform="translate(-12,6.24)"><path id="path6924" stroke-linejoin="bevel" d="m0 0l2.16 0.24 2.64 0.72 7.68-0.96-0.24-0.72 2.88-0.72-0.72-2.88-1.2-1.2-1.2-0.72"/><g id="g6926" transform="translate(18.96,-5.52)"><path id="path6928" stroke-linejoin="bevel" d="m0 0l2.88 0.96v0.96l1.44 0.48 5.04 0.48 5.52 2.64 10.8 1.2 2.16 1.44"/><g id="g6930" transform="translate(31.68,10.08)"><path id="path6932" stroke-linejoin="bevel" d="m0 0l1.44 0.24 1.2-0.48-0.24-1.92 0.72-0.24"/><g id="g16090" transform="translate(-3.84,-1.92)"><path id="path6936" stroke-linejoin="bevel" d="m0 0l3.12 2.16 0.72-0.24"/><g id="g6938" transform="translate(7.2 -.48)"><path id="path6940" stroke-linejoin="bevel" d="m0 0l0.24-0.48"/><g id="g6942" transform="translate(170.4,-58.32)"><path id="path6944" stroke-linejoin="bevel" d="m0 0l2.4 0.72-1.44 1.92 0.96 0.24 2.64-1.44-5.52 7.2-1.44 1.44"/><g id="g6946" transform="translate(-26.64,31.44)"><path id="path6948" stroke-linejoin="bevel" d="m0 0l3.36-1.44 1.68-1.44v-0.48l2.4-3.12-0.96 0.48 2.4-1.92 2.64-3.84"/><g id="g6950" transform="translate(11.76,-5.52)"><path id="path6952" stroke-linejoin="bevel" d="m0 0l-3.84 2.88"/><g id="g6954" transform="translate(11.04,-14.88)"><path id="path6956" stroke-linejoin="bevel" d="m0 0l-0.24 0.24"/><g id="g6958" transform="translate(-5.28,3.6)"><path id="path6960" stroke-linejoin="bevel" d="m0 0l-0.24 0.24"/><g id="g6962" transform="translate(47.76,-75.36)"><path id="path6964" stroke-linejoin="bevel" d="m0 0l1.68-1.92 1.2-2.64 0.72 0.24 2.88-4.08 0.72 0.72 2.4-3.36 0.48 0.96 1.68-5.28 0.48-1.2 0.48-2.16-0.48-0.72 0.24-2.88"/><g id="g6966" transform="translate(6.24,7.92)"><path id="path6968" stroke-linejoin="bevel" d="m0 0l-5.52 11.04-0.24-0.72-1.44 2.4-1.92 2.88-1.44 2.88-1.92 2.4-3.36 5.76v0.48l-2.16 3.84-4.32 6.96"/><g id="g16109" transform="translate(-10.56 -.72)"><path id="path6972" stroke-linejoin="bevel" d="m0 0l0.24 2.64-2.88 8.64-1.2 0.48-1.2 2.88-2.4 2.64-5.04 6.96"/><g id="g6974" transform="translate(-1.44,-13.44)"><path id="path6976" stroke-linejoin="bevel" d="m0 0l0.24-0.96"/><g id="g6978" transform="translate(2.88,4.32)"><path id="path6980" stroke-linejoin="bevel" d="m0 0l1.68-3.12 1.2-4.08-0.24-1.68"/><g id="g6982" transform="translate(12.96,-8.16)"><path id="path6984" stroke-linejoin="bevel" d="m0 0l-0.72 2.64-0.72 5.76-3.6 10.56-2.16 4.56-2.16 5.04"/><g id="g6986" transform="translate(4.56,-15.12)"><path id="path6988" stroke-linejoin="bevel" d="m0 0l-0.72 2.4-0.96 5.04-1.2 3.6"/><g id="g6990" transform="translate(-19.92,20.88)"><path id="path6992" stroke-linejoin="bevel" d="m0 0l0.24-1.92 1.2-1.92"/><g id="g6994" transform="translate(-4.08,13.92)"><path id="path6996" stroke-linejoin="bevel" d="m0 0l1.2-3.84 1.92-2.64-0.24-0.72 1.44-2.16 0.72-0.24 0.96-3.12"/><g id="g6998" transform="translate(6.24,-13.2)"><path id="path7000" stroke-linejoin="bevel" d="m0 0l-1.44 0.24-0.24-1.2-1.92 1.44"/><g id="g16126" transform="translate(-1.44,24)"><path id="path7004" stroke-linejoin="bevel" d="m0 0l1.68 3.12"/><g id="g7006" transform="translate(1.2,-24)"><path id="path7008" stroke-linejoin="bevel" d="m0 0l-0.24 1.68h0.72"/><g id="g7010" transform="translate(-.96 10.8)"><path id="path7012" stroke-linejoin="bevel" d="m0 0l-5.52 2.64"/><g id="g7014" transform="translate(3.12,-12.24)"><path id="path7016" stroke-linejoin="bevel" d="m0 0l-0.48 5.28 1.68-0.24"/><g id="g7018" transform="translate(-5.76,23.52)"><path id="path7020" stroke-linejoin="bevel" d="m0 0l1.92-0.72 0.48 2.64"/><g id="g7022" transform="translate(1.2,-24.72)"><path id="path7024" stroke-linejoin="bevel" d="m0 0l-0.72 1.44"/><g id="g7026" transform="translate(17.52,-7.92)"><path id="path7028" stroke-linejoin="bevel" d="m0 0l-0.72 1.44"/><g id="g7030" transform="translate(-18.48,10.56)"><path id="path7032" stroke-linejoin="bevel" d="m0 0l-0.24 0.48"/><g id="g7034" transform="translate(25.44,-27.6)"><path id="path7036" stroke-linejoin="bevel" d="m0 0l0.72-3.84"/><g id="g7038" transform="translate(-11.28,36.48)"><path id="path7040" stroke-linejoin="bevel" d="m0 0l-1.2 2.64"/><g id="g7042" transform="translate(7.2,-20.88)"><path id="path7044" stroke-linejoin="bevel" d="m0 0v0.24l2.16-7.92 0.48-1.44 1.44-6.48-0.48 0.48 0.24-1.44"/><g id="g7046" transform="translate(-336,86.16)"><path id="path7048" stroke-linejoin="bevel" d="m0 0v-0.96l1.92-0.72 3.6 3.12 2.16 0.24 1.68-3.12"/><g id="g7050" transform="translate(20.64,-35.76)"><path id="path7052" stroke-linejoin="bevel" d="m0 0l2.4 5.04 4.08 0.96 0.24 0.96-2.64 1.92 1.2 0.24 0.48 1.92 5.76 0.96-1.2-6 0.96 0.24"/><g id="g7054" transform="translate(-11.28,34.32)"><path id="path7056" stroke-linejoin="bevel" d="m0 0l0.48-1.2v-2.88l4.8 0.24"/><g id="g7058" transform="translate(41.04,-27.84)"><path id="path7060" stroke-linejoin="bevel" d="m0 0l-4.56-1.68-1.44 0.24-3.12-3.36-0.72 0.48-2.64-1.44v-1.44l-1.2-0.96"/><g id="g7062" transform="translate(-10.08,-13.68)"><path id="path7064" stroke-linejoin="bevel" d="m0 0l6.24-0.24 0.96 0.72"/><g id="g7066" transform="translate(-5.52,7.68)"><path id="path7068" stroke-linejoin="bevel" d="m0 0l-2.4-0.24-2.64 1.2"/><g id="g7070" transform="translate(-4.08,3.12)"><path id="path7072" stroke-linejoin="bevel" d="m0 0l-1.68-2.64"/><g id="g7074" transform="translate(6,10.32)"><path id="path7076" stroke-linejoin="bevel" d="m0 0l-2.16 0.48-2.4-2.4"/><g id="g7078" transform="translate(-7.68,-13.2)"><path id="path7080" stroke-linejoin="bevel" d="m0 0l-1.92-1.92"/><g id="g7082" transform="translate(1.68,2.88)"><path id="path7084" stroke-linejoin="bevel" d="m0 0l3.36 2.64"/><g id="g7086" transform="translate(4.08,-3.12)"><path id="path7088" stroke-linejoin="bevel" d="m0 0l-0.48-1.44"/><g id="g7090" transform="translate(.96 -2.4)"><path id="path7092" stroke-linejoin="bevel" d="m0 0l0.96 0.24"/><g id="g7094" transform="translate(55.44,2.64)"><path id="path7096" stroke-linejoin="bevel" d="m0 0l-4.32-2.64-1.92-3.84"/><g id="g7098" transform="translate(0,24)"><path id="path7100" stroke-linejoin="bevel" d="m0 0l-0.48-5.04"/><g id="g7102" transform="translate(178.08,-15.12)"><path id="path7104" stroke-linejoin="bevel" d="m0 0l-0.24 1.68 9.6-3.36-1.92 4.56 1.92 0.72-3.12 7.2 7.2-2.88-3.6 7.44 3.6 0.96"/><g id="g7106" transform="translate(36,-45.6)"><path id="path7108" stroke-linejoin="bevel" d="m0 0l-1.2 1.92 0.24 2.88-0.72 1.68 1.68 0.48v3.36l1.2-1.2"/><g id="g7110" transform="translate(-18.72,22.56)"><path id="path7112" stroke-linejoin="bevel" d="m0 0l-6.96 8.16-4.8 1.2-0.24-1.2"/><g id="g7114" transform="translate(.72 -3.36)"><path id="path7116" stroke-linejoin="bevel" d="m0 0l2.16-3.12 0.48-1.92-9.84 4.56-3.6 0.24"/><g id="g7118" transform="translate(8.88,-8.88)"><path id="path7120" stroke-linejoin="bevel" d="m0 0l1.2-2.4-0.48-0.96 0.96-0.24 1.2-3.12v-0.72"/><g id="g7122" transform="translate(-20.16,12.48)"><path id="path7124" stroke-linejoin="bevel" d="m0 0l3.84-0.48 3.36-2.4-1.2-0.24-2.16 1.92-3.84-0.24"/><g id="g7126" transform="translate(24.72,-4.32)"><path id="path7128" stroke-linejoin="bevel" d="m0 0l-8.4 4.56v-0.72l-3.12 1.2v-0.96l-1.92 2.4-0.72-2.4"/><g id="g7130"><path id="path7132" stroke-linejoin="bevel" d="m0 0l-0.48 2.4-0.72 0.96-11.28 26.88 3.6-1.68-10.8 10.08"/><g id="g7134" transform="translate(8.64,-17.52)"><path id="path7136" stroke-linejoin="bevel" d="m0 0l0.72-3.6"/><g id="g16195" transform="translate(-27.84,12)"><path id="path7140" stroke-linejoin="bevel" d="m0 0l0.72 1.44 2.4-0.24-0.96 1.68"/><g id="g7142" transform="translate(20.16,-9.12)"><path id="path7144" stroke-linejoin="bevel" d="m0 0l-0.48-1.44-1.2 1.68-0.96-0.48"/><g id="g7146" transform="translate(4.8,5.28)"><path id="path7148" stroke-linejoin="bevel" d="m0 0l1.2 2.16 0.96-0.72-0.24 1.2 1.92 0.24 1.2-0.96"/><g id="g7150" transform="translate(-14.64,2.88)"><path id="path7152" stroke-linejoin="bevel" d="m0 0l0.48 0.72 2.4-0.96"/><g id="g7154" transform="translate(-1.92,2.16)"><path id="path7156" stroke-linejoin="bevel" d="m0 0l0.24-1.2 0.96 0.24 0.72-1.2"/><g id="g7158" transform="translate(24.48,-16.08)"><path id="path7160" stroke-linejoin="bevel" d="m0 0l-5.04 2.88"/><g id="g7162" transform="translate(-22.56,48.96)"><path id="path7164" stroke-linejoin="bevel" d="m0 0l12.72-14.4"/><g id="g7166" transform="translate(-5.76,-24.24)"><path id="path7168" stroke-linejoin="bevel" d="m0 0l1.2-3.6"/><g id="g7170" transform="translate(16.56,-20.88)"><path id="path7172" stroke-linejoin="bevel" d="m0 0l-0.24 1.68-0.72 0.24"/><g id="g7174" transform="translate(-8.16,10.56)"><path id="path7176" stroke-linejoin="bevel" d="m0 0l1.68-2.16"/><g id="g7178" transform="translate(9.6,-10.56)"><path id="path7180" stroke-linejoin="bevel" d="m0 0h-1.44"/><g id="g7182" transform="translate(-33.12,60.24)"><path id="path7184" stroke-linejoin="bevel" d="m0 0l9.6-4.08"/><g id="g7186" transform="translate(13.2,-46.08)"><path id="path7188" stroke-linejoin="bevel" d="m0 0l-0.48-0.24"/><g id="g7190" transform="translate(10.56,-4.32)"><path id="path7192" stroke-linejoin="bevel" d="m0 0l-0.24 0.72"/><g id="g7194" transform="translate(-10.56,4.32)"><path id="path7196" stroke-linejoin="bevel" d="m0 0l-0.24 1.2"/><g id="g7198" transform="translate(30.72,-19.68)"><path id="path7200" stroke-linejoin="bevel" d="m0 0l-0.24 1.2"/><g id="g7202" transform="translate(-.48 1.68)"><path id="path7204" stroke-linejoin="bevel" d="m0 0l-0.24 0.48"/><g id="g7206" transform="translate(26.4,-87.6)"><path id="path7208" stroke-linejoin="bevel" d="m0 0l-0.24 0.72-0.48-3.36-1.2 1.92-0.24 4.08 0.24 5.04-3.12 4.32"/><g id="g7210" transform="translate(-6.96,68.4)"><path id="path7212" stroke-linejoin="bevel" d="m0 0v-9.6h-0.48l-0.96 2.88h-0.72l-0.72-2.4-0.24-3.6"/><g id="g7214" transform="translate(.96 -24.96)"><path id="path7216" stroke-linejoin="bevel" d="m0 0l2.16-1.92v-3.6l0.96-0.96 0.24-2.16-0.48-2.64 0.48-2.4v-2.88l-0.48-3.36-0.24 1.92-0.48-0.96-0.48 0.96-0.24 2.4-0.24-1.68-0.96 1.2 0.24-5.04-0.48 0.96-0.48-1.2"/><g id="g7218" transform="translate(5.04,13.44)"><path id="path7220" stroke-linejoin="bevel" d="m0 0l-0.72 0.96 0.48-1.2-0.24-1.68-0.48 0.96"/><g id="g7222" transform="translate(1.92,-15.12)"><path id="path7224" stroke-linejoin="bevel" d="m0 0l-0.48 2.16-0.24-1.68 0.24-3.12"/><g id="g7226" transform="translate(-.72 -6)"><path id="path7228" stroke-linejoin="bevel" d="m0 0v-9.84l-1.44-3.84-0.48-5.76-1.44-1.92v2.4l-1.2-0.96-0.48 2.64-0.96-1.2"/><g id="g7230" transform="translate(-3.6,21.36)"><path id="path7232" stroke-linejoin="bevel" d="m0 0l-0.48-3.84 1.44-8.16 0.96-5.04 0.24-4.08-1.44 3.6-1.2 1.44"/><g id="g7234" transform="translate(-21.6,26.4)"><path id="path7236" stroke-linejoin="bevel" d="m0 0v-1.68l0.72-0.48 1.44-9.84"/><g id="g7238" transform="translate(22.56,-28.08)"><path id="path7240" stroke-linejoin="bevel" d="m0 0l-0.24 1.68h-0.72l-0.96 3.6-1.68 5.52v0.96l1.44-1.68"/><g id="g7242" transform="translate(-17.28,24.48)"><path id="path7244" stroke-linejoin="bevel" d="m0 0l-0.24-2.64-0.48 0.24 0.48-3.84"/><g id="g7246" transform="translate(20.16,-42.24)"><path id="path7248" stroke-linejoin="bevel" d="m0 0l-0.24 2.16-1.2 1.92-0.24-4.08"/><g id="g7250" transform="translate(-5.04,27.84)"><path id="path7252" stroke-linejoin="bevel" d="m0 0h-0.24"/><g id="g16254" transform="translate(-3.36,-19.44)"><path id="path7256" stroke-linejoin="bevel" d="m0 0l1.92-2.64 0.24-4.08-2.4 2.16"/><g id="g16257" transform="translate(-15.36,36.48)"><path id="path7260" stroke-linejoin="bevel" d="m0 0v-0.24l0.96-3.36 1.68-9.84"/><g id="g7262" transform="translate(18.72,-65.28)"><path id="path7264" stroke-linejoin="bevel" d="m0 0l-0.96-0.72v-2.4h-0.48"/><g id="g7266" transform="translate(-14.64,51.12)"><path id="path7268" stroke-linejoin="bevel" d="m0 0l-0.72 5.28"/><g id="g7270" transform="translate(16.8,-12.96)"><path id="path7272" stroke-linejoin="bevel" d="m0 0l0.48 0.48"/><g id="g7274" transform="translate(-2.64,-42.72)"><path id="path7276" stroke-linejoin="bevel" d="m0 0l-0.72 0.24"/><g id="g7278" transform="translate(5.52,24.96)"><path id="path7280" stroke-linejoin="bevel" d="m0 0l-0.24-1.92"/><g id="g16270" transform="translate(-22.08,31.68)"><path id="path7284" stroke-linejoin="bevel" d="m0 0l-1.2 2.16"/><g id="g7286" transform="translate(.96 -.24)"><path id="path7288" stroke-linejoin="bevel" d="m0 0h-0.24"/><g id="g7290" transform="translate(22.56,-85.44)"><path id="path7292" stroke-linejoin="bevel" d="m0 0l-0.48-2.16-0.48-2.64"/><g id="g7294" transform="translate(-2.4,3.12)"><path id="path7296" stroke-linejoin="bevel" d="m0 0l0.24 2.64 1.2 7.44-0.96 3.12"/><g id="g7298" transform="translate(.48 68.88)"><path id="path7300" stroke-linejoin="bevel" d="m0 0l0.24-0.72 0.72-3.84 0.24-0.96v-1.2l0.72-3.12v-0.96l0.72-4.56 0.24-2.16 0.24-1.2"/><g id="g7302" transform="translate(-.96 2.88)"><path id="path7304" stroke-linejoin="bevel" d="m0 0l0.24-1.92-0.24 0.24"/><g id="g16283" transform="translate(4.32,-24.72)"><path id="path7308" stroke-linejoin="bevel" d="m0 0l-0.48 3.12 0.24-0.96-0.24 1.44-0.24-0.48-0.24 1.44v-1.68l-0.96 3.12-0.48 1.92"/><g id="g7310" transform="translate(.48 -32.4)"><path id="path7312" stroke-linejoin="bevel" d="m0 0l-0.24-4.32v-0.48l0.24 2.16"/><g id="g7314" transform="translate(.24 2.16)"><path id="path7316" stroke-linejoin="bevel" d="m0 0v-0.96 1.44l-0.24-2.64"/><g id="g7318" transform="translate(-.48 -6.48)"><path id="path7320" stroke-linejoin="bevel" d="m0 0l-0.48-6.72-1.2-8.16v1.44"/><g id="g7322" transform="translate(-1.68,-14.88)"><path id="path7324" stroke-linejoin="bevel" d="m0 0l-0.72-5.04"/><g id="g7326" transform="translate(2.4,24.96)"><path id="path7328" stroke-linejoin="bevel" d="m0 0l-0.24-3.6"/><g id="g7330" transform="translate(0 .48)"><path id="path7332" stroke-linejoin="bevel" d="m0 0v-0.48"/><g id="g7334" transform="translate(-286.08,60)"><path id="path7336" stroke-linejoin="bevel" d="m0 0l-0.48 0.24"/><g id="g7338" transform="translate(-8.16,47.28)"><path id="path7340" stroke-linejoin="bevel" d="m0 0l-1.44-0.48v-4.8"/><g id="g7342" transform="translate(7.68,-47.04)"><path id="path7344" stroke-linejoin="bevel" d="m0 0l-1.2-0.72 0.96 2.16-0.72 1.68"/><g id="g16304" transform="translate(4.56,20.88)"><path id="path7348" stroke-linejoin="bevel" d="m0 0l5.04-3.12 4.08 0.72 5.28-1.92 6.96-7.44 4.32 1.44 6.24-1.44-2.4-4.32 2.88-1.44 2.16 11.04-2.64 3.6 0.24 2.64 3.12 0.24"/><g id="g16307" transform="translate(44.64,-38.16)"><path id="path7352" stroke-linejoin="bevel" d="m0 0l0.48 0.24 4.56 0.96v-1.2"/><g id="g16310" transform="translate(-12.48,20.16)"><path id="path7356" stroke-linejoin="bevel" d="m0 0l-2.64 0.48-7.92-4.08-0.72-4.8-3.12-4.32 4.08-5.04-0.96-1.44 3.36-0.24 0.48-1.68"/><g id="g7358" transform="translate(-5.76,-21.12)"><path id="path7360" stroke-linejoin="bevel" d="m0 0h1.68l2.64 2.4v-2.16"/><g id="g7362" transform="translate(42.96,55.92)"><path id="path7364" stroke-linejoin="bevel" d="m0 0l-0.24-2.64 0.72-0.24"/><g id="g7366" transform="translate(-47.52,14.16)"><path id="path7368" stroke-linejoin="bevel" d="m0 0l-1.68-2.64 2.4-0.24 1.44-3.12-0.48-2.16 1.92-1.44 6.48 0.24 2.64-2.64 7.2 0.48"/><g id="g7370" transform="translate(-9.12,-35.04)"><path id="path7372" stroke-linejoin="bevel" d="m0 0l-1.2-0.24 1.44-2.88-1.2-2.16-4.08-4.08-6-3.6-2.4-6-3.36 1.92"/><g id="g7374" transform="translate(39.6,17.28)"><path id="path7376" stroke-linejoin="bevel" d="m0 0l2.16-6 2.64-0.24-0.24-0.96-7.92-5.52-0.24 1.2-2.64-0.72-2.16 1.44"/><g id="g7378" transform="translate(14.64,3.36)"><path id="path7380" stroke-linejoin="bevel" d="m0 0l0.72-0.72-1.68-1.44-6.48-1.92-0.48-1.44-6.72 2.16"/><g id="g7382" transform="translate(-61.2,8.88)"><path id="path7384" stroke-linejoin="bevel" d="m0 0l0.72-2.4-1.68-1.68-0.48 0.72-0.48-1.68"/><g id="g7386" transform="translate(63.6,-8.64)"><path id="path7388" stroke-linejoin="bevel" d="m0 0l-2.4-0.24-2.4 2.64 0.96 2.64 3.12 0.96-1.68 1.68 1.44 0.96"/><g id="g7390" transform="translate(-27.6,2.64)"><path id="path7392" stroke-linejoin="bevel" d="m0 0l-1.44-5.52 2.16-3.84-2.16-2.4"/><g id="g7394" transform="translate(2.16,-17.04)"><path id="path7396" stroke-linejoin="bevel" d="m0 0l-2.16 3.12-1.68-1.44-1.2 0.96 0.24-0.96-6.24-0.48"/><g id="g16333" transform="translate(-3.6,5.28)"><path id="path7400" stroke-linejoin="bevel" d="m0 0l2.4-1.2 1.2-4.08"/><g id="g7402" transform="translate(-7.44,-4.08)"><path id="path7404" stroke-linejoin="bevel" d="m0 0v-2.16h2.16l0.24-1.44"/><g id="g7406" transform="translate(35.52,21.84)"><path id="path7408" stroke-linejoin="bevel" d="m0 0l1.44 0.96"/><g id="g7410" transform="translate(1.44,-11.52)"><path id="path7412" stroke-linejoin="bevel" d="m0 0l1.68-1.68-1.68-3.84 0.96-3.36 3.36-2.4 5.76 2.64 3.12-0.24-6 7.44 0.48 2.88 2.4 0.48 0.24 1.68"/><g id="g7414" transform="translate(13.2,-8.88)"><path id="path7416" stroke-linejoin="bevel" d="m0 0l2.16-0.24-0.24 2.4h3.84l3.12-1.68 1.44 0.72 2.88-0.72 4.56 6.24"/><g id="g7418" transform="translate(6.96,1.2)"><path id="path7420" stroke-linejoin="bevel" d="m0 0l2.16 3.84-1.68 5.04 1.92 2.88"/><g id="g7422" transform="translate(-20.16,20.16)"><path id="path7424" stroke-linejoin="bevel" d="m0 0l0.72 0.48-0.72 0.96"/><g id="g7426" transform="translate(177.36,-30)"><path id="path7428" stroke-linejoin="bevel" d="m0 0l-1.2 1.92-2.88 0.72-0.96 1.68"/><g id="g7430" transform="translate(-11.28,7.2)"><path id="path7432" stroke-linejoin="bevel" d="m0 0v-1.44l0.72-0.72 0.72-3.6"/><g id="g16352" transform="translate(0,-7.68)"><path id="path7436" stroke-linejoin="bevel" d="m0 0l0.72-2.16-0.72-1.44 2.88-3.36 0.24-5.04"/><g id="g7438" transform="translate(-12.24,9.6)"><path id="path7440" stroke-linejoin="bevel" d="m0 0l1.68 2.16 3.12-0.72 1.92-3.84v-2.64"/><g id="g7442" transform="translate(13.68,-7.68)"><path id="path7444" stroke-linejoin="bevel" d="m0 0l-1.2 0.72 0.72-1.68-0.24-1.2-1.2 0.96-0.72-1.44-0.72 0.96-1.44 4.56-2.16-0.24"/><g id="g7446" transform="translate(9.6 .24)"><path id="path7448" stroke-linejoin="bevel" d="m0 0l0.96-4.32"/><g id="g7450" transform="translate(-15.6,2.88)"><path id="path7452" stroke-linejoin="bevel" d="m0 0l-2.4-4.32"/><g id="g7454" transform="translate(16.56,-7.2)"><path id="path7456" stroke-linejoin="bevel" d="m0 0l0.48-1.92-0.96-4.56 1.44-4.08-0.24-1.68"/><g id="g7458" transform="translate(.24 -12)"><path id="path7460" stroke-linejoin="bevel" d="m0 0l0.48-0.24"/><g id="g7462" transform="translate(20.88,-108.48)"><path id="path7464" stroke-linejoin="bevel" d="m0 0l-0.48 1.68v1.92l-3.6 5.28v2.16l-1.92 0.96"/><g id="g7466" transform="translate(-5.28,-13.92)"><path id="path7468" stroke-linejoin="bevel" d="m0 0l-2.88-6.72"/><g id="g7470" transform="translate(-10.08,-21.12)"><path id="path16372" stroke-linejoin="bevel" d="m0 0l-1.44-0.72-0.48 1.2-0.24 1.44 0.96 2.64-1.2-1.2"/><g id="g7474" transform="translate(3.36,6.24)"><path id="path7476" stroke-linejoin="bevel" d="m0 0l-3.36-6.24"/><g id="g7478" transform="translate(1.92,18.96)"><path id="path7480" stroke-linejoin="bevel" d="m0 0l-0.72-2.16v0.72"/><g id="g7482" transform="translate(19.68,26.64)"><path id="path7484" stroke-linejoin="bevel" d="m0 0l-0.96-5.28-0.72-3.84h0.24l-1.2-4.56 0.24 1.2 1.2 8.64-0.24-0.96-0.24 1.2 0.48 3.36-0.48 0.72 0.24 2.16-0.72 0.96 0.72 4.32"/><g id="g7486" transform="translate(-6.72,-30.72)"><path id="path7488" stroke-linejoin="bevel" d="m0 0l-0.72-2.16 1.68 5.28 0.96 3.6"/><g id="g16382" transform="translate(2.16,7.44)"><path id="path16384" stroke-linejoin="bevel" d="m0 0l0.24 0.72 1.92 7.68v0.24l0.24 0.72"/><g id="g7494" transform="translate(-2.88 .48)"><path id="path7496" stroke-linejoin="bevel" d="m0 0l0.24-2.88 1.2 2.4 0.48 0.24 0.48 1.92 0.24-0.72 0.72 2.4 0.48-0.48"/><g id="g7498" transform="translate(-1.68,3.84)"><path id="path7500" stroke-linejoin="bevel" d="m0 0l-0.48 2.16"/><g id="g7502" transform="translate(-9.12,-30.24)"><path id="path7504" stroke-linejoin="bevel" d="m0 0l-0.48 0.24 0.24 3.84-2.4-3.36-1.2 0.72"/><g id="g16392" transform="translate(10.56,29.04)"><path id="path7508" stroke-linejoin="bevel" d="m0 0l0.96 6.72 2.88 11.04 0.96-2.4 1.44 7.44"/><g id="g7510" transform="translate(-.48 -.96)"><path id="path7512" stroke-linejoin="bevel" d="m0 0l-1.44 1.68-4.8-12.48-0.48 1.2"/><g id="g7514" transform="translate(-9.6,-16.32)"><path id="path7516" stroke-linejoin="bevel" d="m0 0l-1.2-2.64-0.72-2.88-2.4-4.8"/><g id="g7518" transform="translate(10.32,16.8)"><path id="path7520" stroke-linejoin="bevel" d="m0 0l0.24-1.2-2.16-7.92-0.96-5.28"/><g id="g16401" transform="translate(-9.12,-26.4)"><path id="path7524" stroke-linejoin="bevel" d="m0 0l1.92 2.88 1.92 1.68"/><g id="g7526" transform="translate(-9.12,-19.68)"><path id="path7528" stroke-linejoin="bevel" d="m0 0l0.24-0.24 1.2 1.44 1.2 3.12"/><g id="g7530" transform="translate(12.48,21.12)"><path id="path7532" stroke-linejoin="bevel" d="m0 0l-3.12-7.44-2.4-4.8 0.24 1.2-1.44-2.4-0.96-2.4v-0.48l0.72 1.44-0.24-1.2"/><g id="g7534" transform="translate(1.44,2.16)"><path id="path7536" stroke-linejoin="bevel" d="m0 0l1.44 3.6 1.44 4.08 0.72 1.44"/><g id="g7538" transform="translate(6.96,21.6)"><path id="path7540" stroke-linejoin="bevel" d="m0 0l-0.24-1.44-1.2-5.52-0.72-2.16"/><g id="g7542" transform="translate(-3.36 .72)"><path id="path7544" stroke-linejoin="bevel" d="m0 0l-0.48-2.16 1.2 0.48"/><g id="g7546" transform="translate(-2.16,-13.92)"><path id="path7548" stroke-linejoin="bevel" d="m0 0l-1.44-3.84-0.72-3.12"/><g id="g7550" transform="translate(-2.4,-7.44)"><path id="path7552" stroke-linejoin="bevel" d="m0 0l-0.48-3.12 1.44 2.16"/><g id="g7554" transform="translate(-10.32,-19.92)"><path id="path7556" stroke-linejoin="bevel" d="m0 0l-0.48 0.24-1.44-1.44"/><g id="g7558" transform="translate(4.08,22.32)"><path id="path7560" stroke-linejoin="bevel" d="m0 0l-2.64-5.52"/><g id="g7562" transform="translate(12,9.12)"><path id="path7564" stroke-linejoin="bevel" d="m0 0l-1.2-3.6"/><g id="g7566" transform="translate(-.48 10.32)"><path id="path7568" stroke-linejoin="bevel" d="m0 0l-1.68 1.68"/><g id="g16426" transform="translate(-17.52,-42.96)"><path id="path16428" stroke-linejoin="bevel" d="m0 0l-0.72-1.44"/><g id="g7574" transform="translate(6.72,14.4)"><path id="path7576" stroke-linejoin="bevel" d="m0 0l1.44 2.4"/><g id="g7578" transform="translate(-1.92,-11.52)"><path id="path7580" stroke-linejoin="bevel" d="m0 0l1.44 2.88"/><g id="g16434" transform="translate(3.6,13.68)"><path id="path7584" stroke-linejoin="bevel" d="m0 0l-0.24 0.24"/><g id="g7586" transform="translate(4.08,5.04)"><path id="path7588" stroke-linejoin="bevel" d="m0 0l-0.24-0.48"/><g id="g16439" transform="translate(-230.64,85.2)"><path id="path7592" stroke-linejoin="bevel" d="m0 0l2.16-5.28 1.92-1.68-0.96-3.84 3.6-8.88 2.88-0.72-0.96-3.84-4.08-2.88 1.44-8.64-1.68-0.24-2.4-5.04-0.96-3.36 0.72-2.4"/><g id="g7594" transform="translate(5.76,25.92)"><path id="path7596" stroke-linejoin="bevel" d="m0 0l3.36 2.64"/><g id="g16444" transform="translate(8.4,2.64)"><path id="path7600" stroke-linejoin="bevel" d="m0 0v-4.56l1.68-2.88 2.64-1.68 4.32-0.48 4.56-3.36 5.04-0.96-0.24-4.8 1.44-4.32h0.48"/><g id="g7602" transform="translate(-24.96 -.96)"><path id="path7604" stroke-linejoin="bevel" d="m0 0v-0.24l1.68 0.24"/><g id="g7606" transform="translate(6 .24)"><path id="path7608" stroke-linejoin="bevel" d="m0 0l-0.24-3.84h7.2l3.6 1.68"/><g id="g7610" transform="translate(3.6,-3.36)"><path id="path7612" stroke-linejoin="bevel" d="m0 0l3.6-5.52-2.4-11.76 2.16-2.64-2.64-3.36-0.48-3.6-2.16-0.96"/><g id="g7614" transform="translate(10.32,-44.16)"><path id="path7616" stroke-linejoin="bevel" d="m0 0l3.12 4.08 5.76-1.44 0.96-2.64 1.2 3.36 4.08 0.24 6.24-6.96 3.36-1.2"/><g id="g7618" transform="translate(15.6,2.64)"><path id="path7620" stroke-linejoin="bevel" d="m0 0l3.12 9.84 6.24 1.2"/><g id="g7622" transform="translate(9.36,22.56)"><path id="path7624" stroke-linejoin="bevel" d="m0 0l6-0.24-0.24-3.6 3.36-3.6-2.64-7.44"/><g id="g7626" transform="translate(20.4,-41.52)"><path id="path7628" stroke-linejoin="bevel" d="m0 0l-6.72-3.84-5.76-6.48"/><g id="g7630" transform="translate(-8.16,19.2)"><path id="path7632" stroke-linejoin="bevel" d="m0 0l2.4-1.2 0.96-6 4.08-0.48-1.92-8.64-3.84-3.84"/><g id="g7634" transform="translate(-12.48,-7.44)"><path id="path7636" stroke-linejoin="bevel" d="m0 0l1.92-0.72"/><g id="g7638" transform="translate(1.44 -.48)"><path id="path7640" stroke-linejoin="bevel" d="m0 0l6.96-4.56-3.84-6.96"/><g id="g16467" transform="translate(-1.2,18.72)"><path id="path7644" stroke-linejoin="bevel" d="m0 0l6.48-2.16 1.2-4.32-0.72-4.08"/><g id="g7646" transform="translate(18.24,-24)"><path id="path7648" stroke-linejoin="bevel" d="m0 0l2.4-0.48-0.24-5.52" stroke="#fff" stroke-width=".36788" fill="none"/></g></g></g></g></g></g></g></g></g></g></g></g></g></g></g></g></g></g></g></g></g></g></g></g></g></g></g></g></g></g></g></g></g></g></g></g></g></g></g></g></g></g></g></g></g></g></g></g></g></g></g></g></g></g></g></g></g></g></g></g></g></g></g></g></g></g></g></g></g></g></g></g></g></g></g></g></g></g></g></g></g></g></g></g></g></g></g></g></g></g></g></g></g></g></g></g></g></g></g></g></g></g></g></g></g></g></g></g></g></g></g></g></g></g></g></g></g></g></g></g></g></g></g></g></g></g></g></g></g></g></g></g></g></g></g></g></g></g></g></g></g></g></g></g></g></g></g></g></g></g></g></g></g></g></g></g></g></g></g></g></g></g></g></g></g></g></g></g></g></g></g></g></g></g></g></g></g></g></g></g></g></g></g></g></g></g></g></g></g></g></g></g></g></g></g></g></g><g id="g7650" transform="translate(753.52,332.08)"><path id="path7652" stroke-linejoin="bevel" d="m0 0l9.6-0.72"/><g id="g7654" transform="translate(7.92,19.44)"><path id="path7656" stroke-linejoin="bevel" d="m0 0l-5.28 0.24"/><g id="g7658" transform="translate(170.4,-92.88)"><path id="path7660" stroke-linejoin="bevel" d="m0 0l-0.48-1.44 0.96 1.2h0.24"/><g id="g7662" transform="translate(.72 1.44)"><path id="path7664" stroke-linejoin="bevel" d="m0 0l-0.48-0.96"/><g id="g7666" transform="translate(-.72 -1.44)"><path id="path7668" stroke-linejoin="bevel" d="m0 0l0.24 0.48"/><g id="g7670" transform="translate(-215.04,62.88)"><path id="path7672" stroke-linejoin="bevel" d="m0 0l0.24-0.72-2.16-4.32 3.36-10.56-1.92-3.84 0.96-2.88-2.16-3.12 1.68-6-2.16-3.84 1.2-8.88-1.2-0.72 1.92-6.96 1.92-0.48-2.4-0.96 2.4-1.68-1.2-1.2 0.96-3.6-1.44-2.64 0.24-4.56-1.92-2.4 0.72-1.68"/><g id="g7674" transform="translate(40.32 .48)"><path id="path7676" stroke-linejoin="bevel" d="m0 0l-0.48-0.72-2.16-8.16"/><g id="g7678" transform="translate(12.24,-14.16)"><path id="path7680" stroke-linejoin="bevel" d="m0 0l-0.24 2.16 1.44 1.44-1.92 2.64-5.52 4.56-1.44-0.72-2.4 3.6-2.64-0.24"/><g id="g7682" transform="translate(-14.88,5.28)"><path id="path7684" stroke-linejoin="bevel" d="m0 0l-0.24-6.48"/><g id="g7686" transform="translate(-38.64,-62.64)"><path id="path7688" stroke-linejoin="bevel" d="m0 0l0.96-2.4 1.92 0.48 0.24-2.88 1.44-1.2"/><g id="g7690" transform="translate(12.48,-7.68)"><path id="path7692" stroke-linejoin="bevel" d="m0 0l0.72-6.96"/><g id="g7694" transform="translate(-7.92,1.68)"><path id="path7696" stroke-linejoin="bevel" d="m0 0l8.16-0.96" stroke="#fff" stroke-width=".36788" fill="none"/></g></g></g></g></g></g></g></g></g></g></g></g></g><g id="g7698" stroke-opacity=".46667" transform="translate(288.16 156.64)" stroke="#000" stroke-width=".23961" fill="none"><path id="path7700" d="m0 0c49.699 9.6071 95.735 39.493 127.68 77.76 38.36 44.96 61.62 103.53 61.2 162.67 0.05 45.29-15.68 91.37-47.28 123.89-8.43 8.51-17.72 16.04-28.08 22.56"/><g id="g7702"><path id="path7704" d="m0 0c54.902-0.49164 110.09 19.805 150.96 56.88 37.6 34.044 62.52 84.07 64.8 135.12"/><g id="g7706"><path id="path7708" d="m0 0c36.209-7.4616 75.381-2.9936 106.8 15.36"/><g id="g7710"><path id="path7712" d="m0 0c12.161-7.3068 26.282-12.038 40.32-9.12"/><g id="g7714"><path id="path7716" d="m0 0c-0.28435-4.3714-0.26199-8.8481-1.2-12.96"/><g id="g7718"><path id="path7720" d="m0 0c-13.153-7.4425-28.366-11.618-43.44-8.64"/><g id="g16508"><path id="path7724" d="m0 0c-39.038-7.4526-79.979-1.5457-113.52 19.2"/><g id="g16511"><path id="path7728" d="m0 0c-77.936-0.072271-156.25 43.131-192.85 112.83-16.72 31.32-24.58 65.66-22.91 101.25"/><g id="g16514"><path id="path7732" d="m0 0c-50.131 10.484-95.999 42.246-127.2 81.84-34.58 42.77-55.91 96.95-57.84 151.67-1.72 46.29 11.39 92.41 41.52 127.45 10.63 11.53 22.69 22.09 36.72 29.76"/><g id="g16517"><path id="path7736" d="m0 0c-40.841 27.673-62.767 74.694-79.44 119.52-20.344 60.01-29.8 124.92-23.04 189.36 4.783 33.17 11.85 66.14 35.76 91.92 7.346 6.92 16.442 12.77 26.4 14.4"/><g id="g7738"><path id="path7740" d="m0 0c4.153 127.46 4.3145 256.36 3.12 384.48-0.8672 11.27 0.1939 24.35-1.92 34.56"/><g id="g7742"><path id="path7744" d="m0 0c42.844 26.568 66.907 73.966 84.96 120 21.64 60.76 31.65 126.88 23.28 192-5.31 32.62-13.657 64.9-38.64 89.04-7.337 6.55-16.511 11.61-26.16 13.68"/><g id="g7746"><path id="path7748" d="m0 0c49.699 9.6071 95.735 39.493 127.68 77.76 38.36 44.96 61.62 103.53 61.2 162.67 0.05 45.29-15.68 91.37-47.28 123.89-8.43 8.51-17.72 16.04-28.08 22.56"/><g id="g7750" transform="translate(94.56,45.12)"><path id="path7752" d="m0 0c10.608-4.8518 18.732-19.217 8.88-28.32-5.2214-5.978-12.773-10.134-19.68-12.72"/><g id="g7754" transform="translate(-178.32,-41.04)"><path id="path7756" d="m0 0c-11.776 4.2842-29.927 15.541-22.32 30.24 12.576 16.592 34.05 20.672 53.04 25.2 44.665 7.449 94.28 7.13 136.08-8.64 3.83-1.589 7.71-3.433 11.52-5.76"/><g id="g7758" transform="translate(247.44,128.4)"><path id="path7760" d="m0 0c13.29-8.0922 31.788-24.061 19.2-44.4"/><g id="g7762" transform="translate(-346.56,-44.4)"><path id="path7764" d="m0 0c-10.134 14.234 0.036068 32.367 13.2 40.32 25.347 17.616 54.759 24.299 83.28 30 67.59 11.123 141.45 9.884 206.4-7.68 14.17-4.317 30.18-9.756 43.68-18.24"/><g id="g7766" transform="translate(371.76,150.72)"><path id="path7768" d="m0 0c12.931-7.9158 26.837-19.645 27.12-35.76"/><g id="g7770" transform="translate(-404.88,-35.76)"><path id="path7772" d="m0 0c1.4307 23.874 27.286 36.801 46.32 45.84 55.19 22.504 117.62 28.148 179.52 28.08 55.16-1.633 110.79-7.674 160.08-28.32 6.23-2.713 12.93-5.945 18.96-9.84"/><g id="g7774" transform="translate(379.68,132.48)"><path id="path7776" d="m0 0c7.3814-4.6937 14.39-10.026 19.2-17.52"/><g id="g7778" transform="translate(-346.56,-17.52)"><path id="path7780" d="m0 0c15.883 21.896 45.57 30.609 69.6 37.44 62.8 15.736 134.23 16.757 199.2 6 26.91-5.271 52.79-11.272 77.76-25.92"/><g id="g7782" transform="translate(99.12,84)"><path id="path7784" d="m0 0c39.313 15.57 85.708 16.062 128.4 10.56 13.3-2.4298 27.09-5.1263 39.12-10.56" stroke-opacity=".46667" stroke="#000" stroke-width=".23961" fill="none"/></g></g></g></g></g></g></g></g></g></g></g></g></g></g></g></g></g></g></g></g></g></g></g></g><path id="path17647" opacity=".25941" d="m158.39 145.58a44.901 44.901 0 1 1 -89.801 0 44.901 44.901 0 1 1 89.801 0z" fill-rule="evenodd" transform="matrix(4.6679 -1.0333 -1.0316 -4.6725 357.59 1085.6)" fill="url(#radialGradient18143)"/><path id="path17649" d="m951.23 288.08c0.59 73.7-39.98 145.81-103.22 183.39-63.78 39.45-148.36 41.23-213.76 4.56-65.18-35.07-109.33-106.37-110.91-180.56-3.78-78.18 40.07-156.22 108.46-193.87 64.91-37.742 149.82-36.988 214.07 1.9 64.54 37.19 105.91 109.98 105.36 184.58z" stroke="#aaa" stroke-miterlimit="10" stroke-width="1.19" fill="none"/></g></g></svg>
