<?xml version="1.0" encoding="UTF-8" standalone="no"?>
<!-- Created with Inkscape (http://www.inkscape.org/) -->
<svg id="svg25913" xmlns:rdf="http://www.w3.org/1999/02/22-rdf-syntax-ns#" xmlns="http://www.w3.org/2000/svg" height="548.7" width="548.73" version="1.0" xmlns:cc="http://creativecommons.org/ns#" xmlns:xlink="http://www.w3.org/1999/xlink" xmlns:dc="http://purl.org/dc/elements/1.1/">
 <defs id="defs25915">
  <radialGradient id="radialGradient11773" gradientUnits="userSpaceOnUse" cy="139.37" cx="99.958" gradientTransform="matrix(-.21405 1.3758 -1.2457 -.19403 303.11 18.168)" r="45.07">
   <stop id="stop4611" stop-opacity="0" offset="0"/>
   <stop id="stop4623" stop-opacity=".023529" offset=".49270"/>
   <stop id="stop4621" stop-opacity=".035294" offset=".57087"/>
   <stop id="stop4619" stop-opacity=".066667" offset=".63646"/>
   <stop id="stop4617" stop-opacity=".14894" offset=".69579"/>
   <stop id="stop4625" stop-opacity=".21277" offset=".73030"/>
   <stop id="stop4613" stop-opacity=".54610" offset="1"/>
  </radialGradient>
 </defs>
 <metadata id="metadata25918">
  <rdf:RDF>
   <cc:Work rdf:about="">
    <dc:format>image/svg+xml</dc:format>
    <dc:type rdf:resource="http://purl.org/dc/dcmitype/StillImage"/>
    <dc:title/>
   </cc:Work>
  </rdf:RDF>
 </metadata>
 <g id="layer1" transform="matrix(1.0023 0 0 1.0023 252.77 252.67)">
  <path id="path-globefill" fill="#fff" d="m294.39 21.621c0.74977-94.068-51.105-186.12-131.94-234.09-81.516-50.355-189.62-52.618-273.22-5.8206-83.309 44.769-139.74 135.78-141.76 230.48-4.8323 99.789 51.208 199.4 138.63 247.46 82.962 48.17 191.5 47.207 273.61-2.4322 82.496-47.471 135.37-140.39 134.68-235.61z"/>
  <path id="path3141" d="m67.328 194.65 0.02166 0.50817-2.2097 1.7015-0.95022-0.0663-0.30939 0.88383-0.41987-0.0663-0.3977 0.3536-0.68504-0.50817-0.906-1.5247 0.57456-0.57457 0.44191 0.44192-0.0446 0.64082 0.9943 0.26518 0.72926-0.5524-0.37565-0.48613 0.77335 0.33144 0.13252-0.66287-0.99443-0.72926-0.08792-0.66287 0.68504 0.64083h0.64082l0.11086-0.59661 0.55239 0.61878 1.7236 0.0446z" fill-rule="evenodd" fill="#b9b9b9"/>
  <path id="path3913" d="m65.273 197.46 1.0385-0.3977 0.41987-0.88383 0.97226-0.0663 0.50817-1.7015 0.81756 0.0663 0.08792 0.77335 0.86178 0.72926 0.66287-0.0217 0.35361 0.64082-0.37565 0.26518-0.81756 0.0446-0.906 0.44192-0.88383-0.77335-0.02166 0.35361 0.44191 0.66287-0.46408 0.72925-0.7513-0.95021-0.0446 1.1932-0.46408-0.26518-0.41987 0.46409 0.02166-0.70709-0.35348 0.35361-0.68504-0.95022z" fill-rule="evenodd" fill="#b9b9b9"/>
  <path id="path3915" d="m46.952 206.19-0.05734 1.1919-1.0804 0.39094-1.3516-0.41834-1.4168 0.0204-0.36571 0.24797-0.58858-0.64745 0.13877 0.80304-0.69587 0.67472-0.43299-0.19764-0.02039-0.48766-0.41834 0.42255-1.3054-0.46039-0.09684-0.75679-1.4525-1.0868 0.32787 0.54653-1.0658 0.0815-0.62095 0.093-1.3172 0.25485-0.09684-0.30786 0.38381-0.0242 0.01402-0.39018 0.23166 0.40382 0.06371-0.33654 0.78864 0.028-0.70543-0.22312-1.1057-0.008-1.2697-0.28173 0.42675-0.59916-0.50448 0.37412-0.62005 0.0153 0.02166-0.4414-0.637 0.36788-0.10067-0.66848-0.29843-0.23548-0.27957 0.29639 0.21025 0.23128-0.55711 0.54857-0.01258-0.66427-0.51289 0.55073 0.15559-0.47925-0.22491 0.0777-0.23969 0.38674-0.37208-0.5487 0.31321-0.0739-0.09812-0.71257 0.64108 0.47301 0.02294-0.48562 0.4688 0.37629-0.15138-0.53812 0.38049 0.37208 0.27116-0.11978-0.20605-0.31959 0.39094 0.15139 0.33207 0.45822 0.10322-0.3048 0.37629 0.46039 0.21662-0.83031 0.56972 0.11596-0.31117 0.95849 0.35106 0.0612-0.25014-0.32162 0.42038-0.46664 0.75882 0.78839 0.23332-0.25435-0.93964-0.70848 0.01263-0.26492 0.18502-0.1682 0.80712 0.70211 0.11723-0.61381 0.47925 0.15559 0.25855 1.0742-0.02676-1.2844 0.53595 0.82189 0.20184-0.52129 0.55914 0.3364-0.45198 1.1289 1.0638-0.96691-2.4951-1.4905-0.32366-1.564 2.1295-1.0488 0.03568-0.75041-1.3307 0.0688-0.90816 0.48766-0.64108-0.47301-0.01045-1.6375 0.5213 0.20185 0.64325-0.50028-0.80712-0.70211 0.52971 0.0255 0.50868 0.46676 0.91861-0.70836 0.11341-0.5255 0.71473-0.14285 0.31946 0.72315 0.44357-0.0229 0.51085-0.50665 0.72939 0.47721 0.72301 1.5388 0.19764 0.49606-0.93339 0.0879 0.39935 0.90396 0.69371 0.29856 0.578 1.7973 1.4903 1.2214 1.5618 1.5788 0.88701 0.88294 1.6501 0.65382 0.57813-0.0612z" fill-rule="evenodd" fill="#b9b9b9"/>
  <path id="path3917" d="m39.251 207.61-0.93161-0.037-0.78736-0.77513-0.88778-0.0306-1.0427 0.12742-0.31589 0.35871 0.52206 0.42713 0.41439 0.23421 0.92715 1.0615-0.26772-0.66045-0.52461-0.73971 0.43796 0.0586 0.37642 0.18451 0.0069-0.71257 0.21216 0.74213 0.40012 0.009 0.46408 0.19636-0.20477 0.19535-0.29232 0.18362-0.08537 0.30072 0.16578 0.4237 0.38827 0.0968 0.14068-0.38241 0.27702 0.26034 0.14667-0.42612 0.15406 0.51136 0.33271 0.17865-0.04715 0.35043 0.39413 0.0535 0.11596 0.46167 0.42713-0.52219-0.40152-0.99061-0.47594-0.10831-0.05224-0.27461 0.43554-0.25345-0.42267-0.50295z" fill-rule="evenodd" fill="#b9b9b9"/>
  <path id="path3919" d="m33.872 199.96 0.56246 2.625-1.0625-1 0.25001 0.87503 0.75003 0.56246-1.5625-0.37501v-1.4375l0.62502-0.0624-0.06244-0.37501 0.50002-0.81247z" fill-rule="evenodd" fill="#b9b9b9"/>
  <path id="path3921" d="m32.692 202.55-0.0076 0.77908-0.31245 0.43746-0.56246-0.81247-0.18757 0.37501-0.37501-0.31245-0.50002-0.25-0.06244-0.37502-0.28123 0.0319 0.28123 0.84368 0.37501 0.25001-0.75003 0.18757-0.56246-0.56245 0.25001-0.43746-0.43745-0.25001-0.25001 0.68747 0.62502 0.56245-0.50002 0.43746-0.50002-0.12488v-0.68746l-0.62502-0.50002 0.12488-0.43745h-0.43745l0.12488-0.62503-0.43745 0.0624-0.31245-0.37501-0.18744 0.56245 0.25001 0.50002 0.31245 0.50002-0.68746-0.25001-0.56246-0.0624 0.68746-0.0624 0.06244-0.31244-0.37502-0.18757-0.25001-0.50002-0.12488-0.56246-0.87503 0.0624-0.12488-0.50002 0.56246 0.25001 0.18744-0.31245 0.43745 0.31245-0.25001-0.50002h-0.68746l-0.68746 0.12488v-0.50002l0.62502 0.12487-0.31245-0.50001-0.50002 0.0624v-0.50001l1.125 0.62502 0.75003 0.0624 0.37502 0.31245-0.31245-0.43746-0.68746-0.18744-0.25001-0.43745-0.48511-0.44689 0.08792 0.57457-0.48613-0.57457-0.17674 0.30939-0.3977-0.44191-0.35348 0.0446-0.13265 0.44191-0.13252-0.61878-1.0607-1.1048 0.88383 0.61865 0.97226 0.0879 0.48613 0.22095 1.3258 0.75131 1.0165 0.79552 0.2156 0.73524 0.27753-0.28072 0.45516 0.59827 0.39591-0.2244 0.10831 0.48244 0.46243 0.12615-0.000892 0.47874 0.47594 0.3011 0.4688-0.4688 0.50002 0.62503 0.25001-0.21879 0.68746 0.34379v-0.40623l0.31245 0.31245 0.03186 0.43745 0.63254-0.0917z" fill-rule="evenodd" fill="#b9b9b9"/>
  <path id="America" d="m3.1531-251.06-4.25 0.90625 0.71875 1.0312-1.9375-0.15625-1.4062 2.125-3.375 0.53125 1.4062-1.9688-2.4688-0.6875-1.75 1.2188-1.4375-1.75-4.5938 0.6875 0.875 0.90625-4.4062 0.6875-0.53125 1.0625-1.9375-0.15625 1.5938-1.5938c-33.344 2.9645-71.999 18.338-95.281 33.594l1.4062 0.34375-2.4688 1.0625-0.375 1.0625-1.2188 0.53125 1.9375-0.1875-1.75 0.53125 1.0312-0.1875 0.1875 0.71875-0.875 0.1875 0.6875 0.53125 1.5938-0.71875-0.6875 2.3125 2.2812-0.90625-3.7188 7.0938 0.375-1.9688-2.3125 0.90625 2.6562-1.7812-3.3438-0.1875-2.6562 4.0625 1.4062-0.875-12.375 12.375-1.5938 3.1875-3.1875 3.7188-1.75 4.0625 0.15625 2.6562 2.125-0.53125-1.2188 2.125v-1.5938l-1.4375 2.6562 0.90625 5.6562-0.90625 1.9375 4.875 1.5312 1.8125 2.0312 0.0937 11.125 3.4688 4-1.7188 2.2188 1.25 1-3.3438 0.21875 2.9062 2.6875 1.8125-1.2188 2.4375 3.3125-1.2812 4.2188 5.0938 4.0312 0.34375 2.5312 2.7188-1.4688-0.40625-2.8438-2.9375-0.96875-0.15625-7.0938-2.9062-4.3438-0.0312-2.5938-3.5625-4.4688 1.1875-6.625 5.4688 2.1562-0.1875 7.5312 2.4688 3.25 1.9688-0.0625-0.78125 1.8125 4.2812 3.4062-1.75 1.75 3.5312 2.25 0.75 1.7812 5.4062 5.5 1.875 5.375-1.5938 2.2188 1.25 0.6875-2.2188 0.84375 0.875 1.5625 6.25 5.8125 6.5312 0.84375 2.875 2.5625 18.219 5.1875 9.8438-2.375 12.844 7.75 12.625 2.5625-1.2812-0.59375 5.9062-0.59375 0.4375 1.9688-1.7188 0.125 9.125 6.8438-1.2188 0.71875 1.2188 0.5 0.0625 3.3125 2.5312 1.4062 1.0625-1.1562-1.8125-1.875 2.5312 1.3438 5.3125 3.3438-0.0312 2.4688 1.4688-0.0312-0.125-0.875 2.125 2.2812 0.6875-1.0312 4.5938 0.375 1.0625 2.0938 2.1875-1.1562 0.6875 2.6562h2.3438l1.8125-1.2188-2.5312-2.8438 4.75-1.5 2 2.3125 1.3125 2.375 2.1875 1.0938 0.3125 1.7812 1.4062 1.375 1.4688 1.5625 1.0625 0.875 0.0937 1.5-0.78125-0.25 0.625 2.25-1 0.625 0.5625 1.0938-0.4375 2.0312 0.65625 1.125-0.90625 2.25 1 1.5-1.3438 1.3125-1.0312 1.8125-0.90625 2.0625-1.5938-0.1875-1.4688 0.59375-0.90625 1.0312 0.375 1.75-1.3125-0.0625-0.6875 0.9375 0.9375 0.71875-0.9375 1.4062-1.875 0.375-3 0.875-0.25 3.75-1.625 1.25-0.75 2.5-1.5 0.75 0.875 1.25-0.8125 1.0938 0.65625 1.8125-1.3438 0.96875 3.2188 2.3438 1.2812-1.9688-0.4375 1.5312 1.2812-1.4062 0.1875 1.6562-1.1562 2.2188-3 2-3.875 4.125 1.75 7-1.75 1.5 5.5 2.75 3.25 3.5 4.75 11.75 2.75 5.5 6 9.5-1.5 1.75 7 8.75 3.75 1.5 8.3125 3.9062 5.3125 3.875 2.9062 2.2188 1.0625 0.15625 0.28125 1.9688 3.9688 3.1562-0.4375 1.6875 0.4375 2.375 0.25 1.7812-0.25 3-0.1875 1.1562 0.4375 2.3125-0.78125 1.75-0.4375 4.875-0.71875 0.53125-0.34375-0.625-0.4375 2.2812 0.78125-0.25 0.1875 0.53125-0.90625 3c0.00002-0.00001 0.005 1.4902 0.0937 1.8438 0.0884 0.35356 0.4375 1.7812 0.4375 1.7812l-0.6875 0.78125-0.71875 1.1562 0.1875 1.3438v2.0312l-0.0937 1.5-0.625 0.96875-0.4375-0.34375 0.34375 2.2812-0.875 0.1875-0.34375 2.125-0.53125 1.6562-0.875 1.1562v1.25l0.6875 0.53125-0.0937 2.5625-0.4375 1.1562-0.78125-0.0937-0.375 1.2188 0.71875 5.3125-0.0937 4.6875-0.78125 0.71875v1.2188l0.4375 0.53125-0.625 0.96875-0.96875 1.1562-0.1875 1.3125v1.6875l-0.875 1.9375-1.1562 1.3438v0.875l-0.96875 1.5-0.15625 2.4688-0.71875 0.1875v1.4062l-0.4375 0.90625-1.5938-0.625-0.0937 1.4062 0.71875 2.4688-0.28125 1.1562 0.4375 2.0312 0.8125 2.5625-0.96875 1.9375-1.9062 0.875-0.625-0.3125 0.4375 1.1875-0.5 0.625-1-0.5-0.375 0.75 0.375 0.75-0.3125 0.65625 0.4375 0.71875 0.1875 0.75-0.21875 0.75 0.125 0.90625 0.59375 1.3438 0.15625 1.5312-0.625 0.8125 0.15625 0.78125-0.3125-0.21875-0.5 0.59375 0.125 0.4375-0.25 0.65625 0.0937 0.75-0.375 0.65625-0.0625 0.71875-0.3125 0.3125 0.3125 1.0625v0.75l0.375 0.21875-0.125 0.625 0.8125 0.0312 1 0.0937-0.0312-1.0312 0.53125-0.125 0.53125 0.4375-0.0625 0.625-0.40625 0.53125 0.8125 0.40625 0.40625-0.28125-0.0625 1.7812-0.53125-0.90625-0.6875 0.25 1.125 1.0312-0.96875-0.25-0.34375 0.9375 0.71875 0.5625-0.59375 0.84375-0.5625 0.875 0.4375 0.84375 0.25 0.96875-0.6875-0.34375-0.3125 0.75 0.1875 0.84375 0.96875 0.4375 0.53125-0.3125-0.3125 1.0625-0.90625 1.1875-0.875 0.21875-0.4375 0.8125 1.6875 0.5625-0.1875 0.5-0.125 0.21875-0.34375 0.0937 0.0312 0.46875 0.5-0.40625 0.6875 0.6875 0.40625-0.28125 0.0312 0.4375-0.53125 0.0625-0.65625-0.53125-0.5625 0.4375-0.28125 1.2812 0.8125-0.75 0.25 0.4375-0.5625 0.125-0.3125 0.3125-0.34375 0.625-0.0625 0.96875 0.65625-0.75-0.53125 1-0.375 0.59375-0.65625 1.2188-0.28125-0.15625 0.125-0.40625 0.65625-1.4062-0.0312-0.375 0.3125-0.28125-0.0937-0.9375-0.3125-0.125-0.15625 0.375-0.15625 0.8125-0.125 0.46875-0.34375-0.125 0.3125-0.875 0.15625-0.8125-0.53125 0.0625-0.34375-0.0937-0.4375 0.4375-0.625-0.21875-0.96875 0.34375-0.0937 0.75 0.34375 0.0625 0.6875-0.5-0.21875 0.71875-1.4688 0.96875-0.75 0.5-0.125 0.375v0.6875l0.375 0.46875 0.75-0.25-0.375-0.53125 0.0312-0.3125 0.8125-0.375 0.15625 0.625 0.8125 0.28125 0.625-0.0625-0.1875-0.34375 0.53125 0.0312 0.4375 0.84375-0.34375 0.3125 0.21875 0.53125h-0.5l-0.46875 0.9375h0.78125l-0.0937 0.40625 0.9375-0.28125-0.40625 0.21875-0.21875 0.3125 0.34375-0.0312-0.28125 0.21875-0.3125 0.0312-0.40625-0.53125-0.4375-0.125-0.21875 0.3125 0.25 0.625 0.5 0.0625 0.65625-0.0312 0.21875 0.3125-0.875-0.0625-0.40625 0.1875 0.4375 0.28125 0.96875 0.0312 0.375-0.0937v-0.46875l0.34375-1.0312-0.125 0.875 0.46875 0.0937-0.0937 0.375 0.71875 0.34375h-0.5625l-0.28125 0.1875 0.625 0.375 0.25-0.25-0.25 0.4375-0.34375 0.1875-0.3125-0.0625-0.40625-0.5625-0.4375-0.0937-0.40625-0.1875-0.25 0.28125 0.3125 0.5625-0.375 0.0625 0.125 0.25 0.71875 0.0937-0.71875 0.125 0.84375 0.125-0.34375 0.15625 0.0312 0.53125-0.5625-0.3125-0.4375 0.15625 0.125 0.40625-0.094 0.6563 0.1875 0.28125-0.3125 0.15625 0.21875 0.3125v0.59375 1.2812l0.4375-0.1875 0.15625-0.71875 0.28125-0.6875-0.125 0.4375 0.0625 0.78125h0.4375l0.25 0.53125-0.0312 0.3125-0.53125-0.53125-0.34375 0.5-0.40625 0.40625 0.5625 0.34375 0.40625-0.40625-0.1875 0.75-0.65625-0.3125-0.0312 0.21875 0.96875 0.9375-0.96875-0.25-0.40625-0.625-0.4375 0.4375 0.0937 0.71875 0.65625-0.25 0.15625 0.6875 0.15625-0.3125 0.46875-0.0937-0.21875 0.3125 0.21875 0.21875-0.65625-0.0937 0.21875 0.59375 0.0625 0.5 0.6875-0.46875 0.0625-0.5625 0.53125-0.6875-0.3125 0.84375 0.5625 0.375-0.34375-0.1875-0.3125 0.34375-0.1875 0.4375v0.3125l-0.40625-0.21875-0.375-0.0312-0.0625 0.3125 0.1875 0.15625-0.3125 0.1875 0.125 0.65625 0.375-0.46875 0.25-0.0937-0.21875 0.6875 0.5625-0.3125 0.0937-0.34375 0.1875 0.125-0.125 0.59375 0.3125 0.84375-0.53125-0.625-0.21875 0.25 0.65625 0.75 0.34375 0.0937-0.1875 0.125 0.15625 0.6875-0.46875-0.5 0.1875 0.625 0.65625 0.53125 0.375-0.3125 0.375-0.21875-0.15625-0.53125-0.4375-0.65625 0.59375 0.375 0.40625 0.46875 0.5-0.40625-0.3125-0.0937-0.6562-0.46895-0.0937 0.0625-0.15625-0.21875-0.375-0.21875 0.34375-0.25 0.875 0.5625 0.53125 0.8125 0.0937 0.375-0.4375 0.0937v0.40625l0.34375 0.65625-0.3125 0.40625 0.15625 0.25 0.0937 0.4375 0.46875-0.125h1.25l0.3125 0.5-0.5 0.0937-0.53125-0.15625-0.5 0.1875-0.25 0.4375-0.3125-0.1875-0.4375 0.25-0.34375-0.0625 0.4375-0.40625-0.0937-0.25-0.40625 0.0937v-0.3125l0.65625-0.21875-0.28125-0.21875-0.375 0.0312 0.375-0.21875 0.34375-0.4375-0.1875-0.65625-0.34375 0.0312-0.0937 0.75-0.21875-0.40625-0.21875 0.15625-0.0937-0.5-0.4375 0.5625-0.28125-0.34375-0.34375 0.1875-0.0312 0.4375 0.15625 0.3125-0.0625 0.34375-0.28125 0.1875-0.0937 0.53125 0.59375-0.0937 0.25-0.40625 0.125 0.40625-0.0312 0.21875-0.5-0.0312-0.0312 0.25-0.40625 0.125 0.28125 0.3125 0.5625-0.125-0.0937 0.4375 0.5 0.21875 0.4059-0.4686 0.0625 0.375v0.3125l-0.6875-0.0937-0.0625 0.46875 1.4688 1h0.40625l-0.71875-0.75 0.3125 0.0937 0.0937-0.5v-0.34375l0.53125-0.0312-0.75-0.40625 0.6875-0.1875 0.375 0.53125 1.7188-1.2188 0.46875 0.34375-0.46875 0.75-0.875 0.40625-0.0937 1.0625-0.75 0.34375 0.53125-0.625v-0.6875l-0.3125-0.0625 0.0312 0.4375-0.34375 0.375-0.1875-0.84375-0.46875 0.65625 0.15625 0.4375 0.84375 0.625 1.3438 0.75 0.53125-0.21875 0.3125-0.625 0.28125-2.4375 0.5-0.75 1.5-0.78125 0.34375 0.125 0.46875-0.125 0.21875-0.65625 0.59375-0.25 0.46875 0.59375 0.8125-0.28125 1.1562 0.40625 0.34375-0.96875-0.59375-0.53125 0.875-0.1875-0.34375-0.96875-1.25 0.0937 1.3125-0.4375 0.46875-1.3438 0.6875-0.96875 1.3438-1.2188-1.9688-0.96875 1.0625-0.1875 0.46875-0.71875 0.875 1.4375h0.875l1.25-1.9688-0.1875-0.96875 1.5-2.2812 1.9375-0.71875 2.5625-2.125-0.0625-0.625-1.25-0.15625 1.5-0.375 0.0937-1.5-0.34375-1.2188-1.5938-0.375-2.4062-2.5625 0.0937-1.8438 1.6875-2.2812 0.78125-0.71875h0.96875l0.71875-0.71875 2.125 0.4375 0.625-0.53125-0.8125-0.6875 0.4375-0.96875 1.25 0.0937v-2.8438l0.71875-1.8438 3.3438-1.5-2.2812-0.8125v-0.625l1.6562-0.15625 0.28125 0.6875 0.78125 0.8125 1.1562-0.1875 0.53125-0.96875-0.53125-2.375-1.5938-0.0937-0.0937 0.53125 0.8125 0.34375-0.4375 0.625-1.25 0.15625 0.25-0.875-0.78125-0.34375-0.625-0.53125v-2.3125l-0.15625-1.8438 0.4375-0.78125 0.59375-0.53125 1.4375 0.6875 1.3125 0.875 1.1562 0.625 4.1562-0.4375 0.71875-1.4062-0.53125-1.3438 0.59375-0.59375 0.4375-1.25 0.8125 0.1875 0.25-1.5938-0.78125-1.3438 0.0937-1.5 1.0625 0.53125 0.6875 0.625 3.0312 0.53125h3.9688l3-0.34375 6.1875-1.6875 3.5312-4.9375 0.34375-3.0312-2.8125-1.9375 1.5938-2.2812-2.6562-2.8438-1.25-2.6562-0.6875-3 2.125-3.1875-1.25 3 0.53125 2.125 1.5938 2.125 3 1.9375 3.9062 1.4375h6.5312l3.1875-3.5312 4.4062-3.7188-0.71875-1.0625-1.4062 0.15625-1.5938 2.3125-0.15625-2.3125 3.6875-2.8125 0.1875 2.3125 1.25-1.0625 0.875-3.1875 5.8438-5.3125v-2.125l1.9375 2.3125-7.25 6.3438 1.0625 0.1875 1.5938-1.5938 1.9375-0.53125 0.1875-1.4062 2.6562-0.71875 0.34375-1.9375 1.5938-2.125 2.6562-3 5.125-2.8438 0.34375-2.2812 1.0625-1.7812 1.0625-2.4688-0.53125-1.75-0.875-2.3125 1.9375-1.9375 1.4062-1.25-2.125-0.875 2.6562 0.71875 1.4062-2.6562 2.8438-1.5938 2.2812-0.875 0.53125-1.25 0.71875 0.1875 1.25-0.53125 2.2812 0.6875h2.6562l3.7188-3.5312 3.875 1.7812 1.25-1.4375 0.53125 1.25 4.4062 1.0625 0.34375-2.125 4.625-1.4062 0.15625-2.3125-0.40625-4.6875 1-3 4.5-4 1.25-3.75 1.5-2.75-1.75-1.5 2.75-1 1.75 0.25 0.5-2.75-1-2.5 1.5-3.5 1.25-6.75-0.5-4.5 1-1.25-1-2.75 1.25-1 0.25 1.75 1.5 0.75 2-2.25 1.75-3 4-3.75 3-4.75 3.6562-5.5 1-3.5 1.5-1.625 1.375-2.625-1.9688-0.375 0.5625-2.4062 0.53125-5.5938-1.5-1.75-3.375-0.125-1.7188 0.59375-2.0312-1.8438-2.625-3.5-2.375-4.375-3.2188-2.7188-3.5312-1.4062-6-0.375-2.125-1.625-1.375-0.625-4.25 0.0312-1.2188 2.7812-1.7812 0.3125-0.0312-1.4062-0.59375-1.7188 2.5-3.375 2-1.75-2.75-3.75-1 3.25-2.25-4-1.75-1-2.5 0.5-2.25-3.25-0.5 2.75-2.25-3.25-3 2.75 1.25 2.5-2.25 0.25-1.75-0.75-2.5 3 0.25-2-3.5-0.25 2.25-1.75 2.75 1 1.5-1.25 2.25-4-7.75-2.5-2 2.75-1.5-1.25-1.25 2.25-2.5-2.75 3-2.75 4.5-3 0.5-3.25-3.25-1.5-3-10.5-1.75-0.75-1.75-2.25-3-1-2.5-1.25-3.25-2-2-0.25h-11.25l-1.875 0.15625-0.375-2.4062h-2.625l-1.5-2h-1.875l-0.5-3.25-1.5-1.75-2.125-2.375-2.25-0.75-3.1562-0.8125-1.3125-1.7188-0.6875-2.3438-0.625-1.5312-1.625-0.25-1.375-0.96875-0.4375 0.90625-1.5938-1.6875-0.53125 1.1875-1.8438-1.6875 3.4062-0.125-3.5-1.6562-4.6875 1.2812-2.5625 1.2188-5.1562-1.625-2.9375-1.4062-6.1562-0.75-2.9375 0.4375-1.875-0.78125-1.4375-1.6875-2.3125-1.8438-2.9062-0.375-1.2188-1.25-0.0312-0.84375-0.6875-0.90625-1.0625 0.375-0.34375 0.9375 0.25 0.53125v0.46875l1.6562 0.0937 0.375 0.6875-1 0.0937-1.125-0.28125-0.78125 0.71875-1.0312 0.28125-0.75-0.125-2.0312 0.96875-1.3125-0.0312 0.34375 0.375-0.71875 0.375 0.0312 0.8125c0.19657 0.36491 0.0737 0.78763 0.21875 1.2188 0.18814 0.55915 0.65202 1.1517 0.96875 1.625l0.5625 0.40625-0.0312 0.75-0.0312 1.5625-0.6875 0.3125-0.4375 0.65625-1.0625 0.21875-0.84375-0.25-0.4375-0.625 0.5625-0.5-1.0625-0.84375 0.0937-0.4375-0.65625-0.65625 0.40625-0.84375 1.0938-1.0312 0.0312-0.5 0.96875-0.46875v-0.9375l-0.46875-1.3438 0.46875-0.21875-0.6875-0.59375-0.5-0.625 0.5625-1 3.7188-1.75-0.5-1.3438-1.5312-0.75-2 1.375-0.65625-0.3125-0.65625 1.25-2.6875 0.875-2 1.5938-3.9062-0.53125-1.4688 2.8125-1.0312-0.34375 1.3125-0.875-2.125-0.59375-2 1.375-1.1562 0.8125c-0.075 0.56038-0.95621 1.5425-1.0312 1.875l0.78125-0.34375-1 2 0.65625 0.625-0.6875 0.84375-1-0.34375-1.3438 0.84375-0.5 1.375-1.6875 0.75-1.0938 0.40625 0.71875 2.8438-0.96875 0.3125 0.3125-0.96875-2.4688-0.78125-2.0938-2.3438-3.2812-2.4062-5.875 0.71875-4.0625 2.25-2.375-0.9375 0.46875 0.96875-1.9688 0.0312-7.9062-8.9688 3.1562-11.875-1.2812-3.7812-7.2188-2.25-13.687 1.5314-3.4688-0.90625 3.0625-4.1562 0.71875-5.1875-1.1562-0.0312 1.5-1.8438 0.71875 2.4062 2.25-5.2188-1.4062-0.28125 4.375-6.25-5.625-0.78125-9.4688 2.3125-2.3125 6.7188-3.6562 3.1562-3.4688-0.65625-9.0312 3-3.0312-2.4063-3.0938 0.0625-6.2812-12 1.6562-11.75 1.3438-0.4375-0.0312 0.9375 1.9688-2.6875-0.125-4.5625-1.7812 0.0312 1.7188-0.5625 1-2.8125 3.4688-1.0625-0.40625-1.375 2.0938 0.5 3.8125-1.7812 1.1562-1.7812 1.4375-0.5625-0.90625 1.7812 3.5312-1.5938v-1.25l0.71875 1.4375 5.8438 0.15625 1.2188-1.5938 3.9062 3 1.5938-1.2188 1.5 0.71875-0.0937-1.5312 1.5 0.53125 1.25 1.5938 1.75-1.125-2.6562-1 1.9688-1.3125-2.5-0.25 0.71875-0.90625 6.2812-0.25 0.96875-1.5 0.34375 1.125-0.6875 0.46875 3.7812-1.3438-0.34375 0.96875 2.75-0.34375 3.3438 0.25 0.625 1.9688 4.9375-1.6875 2.4062 0.875 3.7812 3.1875-1.0625 3.375 2.0312-0.1875-1.2188 1.4062 1.2188 2.3125 1.5-0.375 0.90625 3.4688 3.0938 1.5 0.0937 1.2188 1.75-0.0937 0.0937 0.625 2.6562-6.2812-6.2812-14.75 3.9688-3.5312 7.4375-4.7812 9.625-4.1562-2.125-0.25 1.4375-0.8125-1.875-0.78125 3.375 0.53125 1.75-1.25-0.78125-0.875-0.625 0.78125-0.0937-0.78125-2.4688 0.1875 1.75-0.96875 1.5938 0.59375-0.96875-2.625-3.1875-0.625 1.5312-0.0937-1.1562-0.71875 1.1562 0.53125 1.0312-1.1562h-0.6875l0.6875-0.96875-0.59375-0.25 1.3125-0.96875 1.3438 0.96875-1.0625 2.6562 3.0938-3.7188-1.1562-2.6562 0.53125-0.53125 1.5938 1.25 2.6562-2.4062-1.25-2.0312 2.75-1.8438 7.25-0.71875 0.25-1.1562 1.0625 1 4.3438-0.8125-0.53125-1.1562-0.8125 0.90625-2.8125-1.6875 2.2812-3.625 1.4062-0.0937v-0.96875l1.875 0.4375 0.96875-2.0312 0.1875 1.1562 1.75-0.96875 0.8125 0.6875 3.5312-1.5-0.96875-0.78125 2.375 0.25 6.2812-2.125-1.4062 1.25 5.0312 0.0937-1.9375 1.0625-1.875-0.96875-4.4062 2.125 0.34375 1.75 2.375 0.875 3.0938-2.7188 2.4062 0.15625-0.1875-0.78125 8.4062-1.4062-1.3438-0.625 4.1562-0.875-1.6562-1.1562-1.25 1.4062-1.25-0.1875 1.9688-1.3125-0.96875-1.5938-2.5625 2.3125 1.0312 0.875-0.4375 0.34375-1.4062-0.96875-4.25 0.96875-5.0312-1.8438-0.78125-1.875h-2.2188l1.3125-1.5625-2.375 0.5-0.71875-0.875-2.9063-0.15625 4.9375-0.1875 2.4062-0.96875-1.4062-1.6875-4.7812-0.0937-5.4062 1.4062 2.8438-3.4375 20.594-0.53125 1.9375-2.2188h0.125l5-0.4375 2.5-1.5625-1.9375-0.75 1.4375-0.125-2.375-0.1875 1.8125-0.125-1.375-0.3125 0.4375-1.125-2.375-0.9375-2.125 0.5625 0.125-1-3.3125-0.4375-3.875 1.25 3.25-1.375-2.625 0.3125 4.9375-1.0625-2.25-0.4375 0.375-0.3125-2.5 0.3125-0.6875-0.8125-0.625 0.4375 0.1875-0.5-1.25 0.8125 0.6875-0.6875h-1.375l0.125-0.3125-1.6875 0.375-0.0625-1.375-0.4375 0.5625-0.375-0.625-3.125-0.375 0.875-0.4375-2.3125-0.5 1.25-0.125-1.8125-0.3125 1.6875 0.0625 0.1875-0.6875-3.3125-0.8125 1.375-0.1875-2-0.5625 0.1875-0.5-1.1875 0.3125-0.3125-0.25 0.8125-0.5-1.125 0.25-0.4375-0.375 0.625-0.375-0.6875-0.5-1.375-0.0625 0.6875-0.1875-1.875-0.625-1.75-1.5625-1.0625-0.1875-1.0625 1.5938 1.5938 0.34375-1.75 0.375 1.5938 0.53125-1.9688 0.15625 0.53125 1.4375-1.5625-1.25-2.3125 1.5938-1.25-1.9375-1.4062 1.5938 0.1875-1.5938-4.0625 0.34375 1.4062-0.53125-0.875-1.4062-3.1875-0.53125 3.1875-0.1875-0.1875-1.5938-1.0625 0.90625-3.7188-0.90625 0.375-1.0625-1.9688 0.90625-3.6875-1.9688-1.25 1.25-6.9062-1.0625-1.75 0.875 1.2188 0.71875-2.2812 1.5938 2.4688-0.1875 1.0625 1.5938-4.0625 2.125 4.0625 1.4062 1.4062 3-3.1875 1.9688-6 1.5938 1.9375 1.0312 1.5938 3.9062-1.9375 0.71875 0.34375 2.0938-1.2188-1.5625-1.25 1.2188-2.8125 0.1875 0.34375-1.0625-5.125-2.6562 1.0625-4.7812-7.0625 0.1875-13.094-3.9062-5.3125 0.90625 1.5938-1.0625-1.0625-2.3125-1.4062-0.15625-1.0625 1.4062-0.53125-1.0625 2.3125-3 4.9375-2.3125 0.1875-0.875 4.4062-0.1875-1.25-0.875h1.7812l1.9375-0.1875-1.75-1.0625-0.90625 0.375-3-0.375 0.875-1.2188 5.3125 1.5938 2.125-1.25h3l2.6562-1.4062-5.3125-0.71875 1.9688-0.6875 3.5312 1.2188 3.7188-1.4062-1.0625-0.71875 4.5938 0.53125-1.0625-1.2188 1.75 0.34375 1.4375 0.71875 3.5312-1.5938-1.5938-0.71875 1.9375-0.53125-1.4062-0.1875 1.4062-0.6875-2.6562 0.15625 0.53125-1.4062z" fill-rule="evenodd" fill="#b9b9b9"/>
  <path id="Peru" d="m40.556 46.02 3.9668 3.182 2.0329-0.35356-0.26517-1.8562 0.61872-3.7123 2.5633-3.182-0.066-1.4691-1.941-1.9691-0.0259-3.9864 1.6823-2.5295-0.625-2.6875 1.5625-4.625-3.9375-8.5-4.5-0.5625-0.5-6.6875-4.125 2.375-3.3125-0.8125-0.75-2.4375-2.4375 0.0625 1.125-2.375-6.375-6.5625 3.125-5.625 2.375-0.3125-0.375-2.375 2-5.25 5.9375-1.8125 3.3125-1.8125 1.75-5.5625-0.9375-2.375-2.1875-0.625-1.8125-0.125-2.25-1.3125-2.9375 1-3.5625-0.25-1-2.6875-1.4375 0.0625-0.875-2.375-2.125-0.9375-1.1875-2-2.8125-1.4375-1.8125 0.6875 1.75 1.5625 0.3125 2.3125-1.4375-0.4375-0.0625 1.3125-1.9375 4.5625-3.8125 3-5.875 1.75-2.25 3.1875-0.8125 4.125-1.8125 2.0625-1.8125-0.6875-0.875-2.0625-1.125-0.3125-1.75 0.375-0.625-2.1875 2.4375-3.25-1.4375-2.6875-2.3125 1.5-3.875 4.0625 1.75 6.9375-1.6875 1.5625 5.4375 2.875 3.125 3.1875 4.875 11.812 2.75 5.6875 6.0625 9.5625-1.625 1.6875 7.0625 8.75 4.1875 1.6875 8.0625 3.75 8.0625 6.0625 1 0.125 0.37165 1.9386z" fill-rule="evenodd" fill="#346733"/>
  <path id="path3927" d="m26.403 197.3-0.83969-0.7955-1.812-1.0165 0.53033 1.1932 1.1048 0.26516 0.39775 1.0165 0.92808 0.53033 0.17678-0.35356-0.48614-0.83968z" fill-rule="evenodd" fill="#b9b9b9"/>
  <path id="path3929" d="m25.961 195.79 0.39775-0.7071-0.7513-0.39775 0.30935-1.5026-0.35355-0.44194v0.35355l-1.8562-1.5026 0.7071 0.92807 1.0165 0.88389-0.7513-0.13258-0.53033-0.26517-0.66291-1.4142-0.70711-0.17678 0.48613 0.61872-0.17677 0.44194-0.22097-0.53033-0.22097 0.44194 0.66291 1.1932 0.7513 1.1932-0.48614-1.6794 0.30936-0.13258 0.57453 0.61872 0.57452 0.48613-0.61872 0.17678 0.39775 0.39775h0.48614l-0.0442 0.39774-0.92807-0.30936 0.44194 0.66292 0.7071-0.0442 0.48614 0.44194z" fill-rule="evenodd" fill="#b9b9b9"/>
  <path id="path3931" d="m22.249 191.64 0.39775-0.13258 0.0884-0.70711 0.22098 0.44194 0.88388-0.53033 0.13258-0.44194-0.39775-0.17677 0.22097-0.26517 0.30936 0.13258-0.0442-0.30936-0.0442-0.79549-0.30936-0.39775v0.53033l-0.44195-0.35355 0.22098-0.39775h-0.83969l0.0884 0.70711 0.39775 0.0884-0.35355 0.39775-0.0884 0.48614 0.35355-0.0884-0.0442 0.44194h-0.35355l-0.39775 0.26517 0.26516 0.39775-0.39774 0.39774 0.13258 0.30936z" fill-rule="evenodd" fill="#b9b9b9"/>
  <path id="path3935" d="m24.812 186.69-0.44194-0.44194-0.13258-0.57452v-0.7513l-0.0442-0.70711 0.30936-1.0165-0.61872-0.26516 0.22097-1.1049-0.53033-0.61871-0.39774-0.92808v-0.88389l-0.17678-0.92807-0.53033-0.83969-1.149 0.26516 0.48614 0.48614 0.44194-0.39775 0.26516 0.26517-0.57452 0.44194-0.17678 0.26516 0.48614-0.0442-0.17678 0.57452-0.44194-0.30936-0.26516-0.22097-0.13259 0.44194-0.39775-0.30935-0.0884 0.48613 0.30936 0.26517-0.13259 0.53033 0.35356 0.26516 0.44194-0.48613 0.0442 0.7071 0.22097 0.26517v0.30936l-0.53033 0.0442v-0.48613l-0.35355-0.13259-0.30936-0.0442-0.13258 0.79549 0.57452 0.17678-0.30936 0.39775 0.70711-0.35356 0.7513-0.26516 0.26517-0.53033-0.26517-0.57452 0.53033 0.30935 0.30936 0.70711 0.22097 0.44194-0.66291 0.13259 0.0442-0.53033-0.53033 0.30935v0.48614l-0.7071-0.26516-0.39775 0.39774 0.13258 0.61872 0.53033-0.44194 0.44194 0.0442 0.44194-0.22097 0.44195 0.7513-0.48614 0.26517-0.30936-0.30936-0.57452-0.0442-0.39775 0.39774 0.35355 0.48614 0.39775-0.30936 0.17678-0.39775 0.30936 0.70711 0.22097 0.26516-0.53033 0.17678h-0.57453l-0.35355-0.30936 0.0884 0.53033 0.48613 0.0442-0.13258 0.30936-0.53033-0.0884 0.0884 0.35355-0.0884 0.22097 0.66291 0.13258 0.7513 0.0442-0.0442-0.44194 0.0442-0.48614 0.13259-0.39775 0.17677 0.97227-0.22097 0.44195 0.48614 0.39774 0.53033-0.0884-0.0442-0.70711 0.13259 1.2816 0.88388 0.0442z" fill-rule="evenodd" fill="#b9b9b9"/>
  <path id="path3937" d="m23.31 186.78-0.48614 0.92808-0.79549 1.149-0.53033-0.26517 0.13258-0.39774h0.44194l-0.22097-0.57453h0.53033l-0.22097-0.22097 0.17678-0.35355-0.7513 0.35355 0.13258-0.70711 0.57452 0.26517 0.0884-0.39775-0.57452-0.66291 0.39774 0.13258 0.66292 0.44194 0.30936 0.0442 0.13258 0.26516z" fill-rule="evenodd" fill="#b9b9b9"/>
  <path id="path3939" d="m25.184 171.21 0.6875-0.5-0.375-0.6875 0.5625-1.3125-0.125-1.125 0.125-0.875 0.25-1.1875 0.3125-1.0625-1.6875-1.375v0.625l0.9375 0.375 0.125 0.6875-0.75-0.375-0.5625 0.125h-0.6875l0.75 0.5625 0.625-0.25 0.25 0.4375-0.375 0.625-0.875-0.375-0.5625 0.375 0.75 0.4375 0.75-0.125 0.375 0.625-0.6875 0.375 0.125-0.75-0.6875 0.1875-0.8125 0.1875 0.875 0.5625 0.1875-0.375 0.375 0.5 0.4375 0.0625-0.8125 0.5-0.5-0.375 0.375 0.5625h0.6875l0.125 0.4375-0.75-0.0625 0.375 0.5 0.4375 0.125-0.5625 0.375h-0.25l-0.4375-0.5 0.3125-0.1875-0.5625-0.1875-0.375 0.625 0.5 0.3125-0.75 0.6875 0.6875 0.3125 0.5625-0.5 0.5-0.125-0.5625 0.875 0.6875 0.25z" fill-rule="evenodd" fill="#b9b9b9"/>
  <path id="path3941" d="m24.434 161.21 0.625 0.75 0.8125-0.0625 0.75-0.8125-0.0625-1.3125 0.5625 0.1875-1.0625-1.0625 0.625-0.875h0.6875l-0.4375-1.125-1-0.3125-0.5 0.125-0.25 1.0625-0.0625 0.8125 0.125 0.6875-0.25 1.25-0.5625 0.6875z" fill-rule="evenodd" fill="#b9b9b9"/>
  <path id="path3943" stroke-linejoin="round" d="m44.346 49.29 2.2981-0.35356-0.35355-1.9445 1.4142-0.53033 1.591 2.4749 0.35356 4.4194 2.1213 1.4142-0.70711 2.4749-0.88388 2.1213 1.4142 1.591 2.2981 7.2478h1.9445l1.2374 1.591-1.4142 3.5355-4.4194 1.7678-0.35356 1.591 0.53033 1.4142-1.0607 4.4194 1.4142 2.6516-1.9612 1.2178-1.75 3.375-2.25 1.125 0.5 2.5-1.5 1.875 0.875 3-0.75 1.5 0.625 2.125-1.75 1.5-1.125 2.5v3.625l1.125 5.25 0.75 0.375-0.25 3.75-1.25 0.75-1.375 3.75 0.25 2.5-2.5 2.375-1 4.625 0.875 4.25-0.375 0.875-1.75 0.875-0.875 4.625-1.375 2.75 0.625 5.375-1.125 0.25-0.25 3.125 1.125 1.5-0.125 5 1.75 0.625-0.5 1.375-2.625-0.625 0.125 1 1.5 0.5 0.75 1.375-1.5 1.125-0.125 2.125-0.5 2.875-0.5 2.375-1.75 1.375-0.125 1.75 0.125 1.875-1.125 2.25-1.625 0.875-0.75 3.25 0.25 3.25 1.625-0.5 0.625 1.375-0.25 2.25 1.125 2.375 4.75 0.5 2.125 0.875 2.125 0.875-1.125 1.375-0.25 9.5" stroke="#fff" stroke-width=".5" fill="none"/>
  <path id="path3986" stroke-linejoin="round" d="m105.76 121.27-1.7929-3.5267-1.75-1.0625-0.56245-2.0625-3.125-2.9375-3.6875-2.8125-1.25 1.3125-0.31245-1.75-2.875-3.0625h-0.87503l-1.25 1.9375-0.93747 3.3125-0.93747 1.875 0.75003 0.93747-3.625 4.5 0.25001 2.625" stroke="#fff" stroke-width="0.5" fill="none"/>
  <path id="path5569" d="m16.857-248.76 2.2981 0.35356-0.53033-0.44195-1.7678 0.0884z" fill-rule="evenodd" fill="#b9b9b9"/>
  <path id="path3988" stroke-linejoin="round" d="m89.533 105.44 1.0178-2 5.1339-3.2929 14.75-5-0.25-6.25-2.5-0.5-1.25 4.25-5 1.75-9-2.75 3.25-6.75-4.3059-1.3315-3.6941-4.6685-7-2.25-3.25-4.25-1.5-4.25-4-1-1.75 2.25-3.25-3.25-1.75 0.25-2.25-0.75-2.5 0.75-3.75 3" stroke="#fff" stroke-width=".5" fill="none"/>
  <path id="path3990" stroke-linejoin="round" d="m108.38 87.285 0.17674-2.6517 1.591-6.1872-2.6517-0.35361-2.4749 0.35361-0.88382-7.2479-2.2981-1.2374-1.0607 1.0607-4.9497-1.2374 0.04332-7.432 1.4142-1.7678-0.88395-3.182 1.0607-0.70709-1.591-1.591 2.6516-2.2981 0.88383-3.182-0.53035-3.0052-2.8284-1.4142-0.35361-2.2981 0.53035-1.9445-7.0711-0.38393-1.4874-4.1265 1.3107-2.3839-0.88395-5.1265-4.2426-0.70709-4.0659-2.4749-4.0962-3.6516-5.1517-0.07263-4.932-5.3891v-5.3033l0.53035-2.6517-6.7249 0.32328-3.2175 3.6213-5.5052 1.091-2.6517 0.88383-6.364-0.88383-0.53035-6.7175-4.2426 2.4749-3.182-0.88395-0.70709-2.2981h-2.4749l1.0607-2.2981-6.3158-6.7301 3.0178-5.4927 2.4749-0.35361-0.35361-2.2981 1.9446-5.3891 5.8336-1.7678 3.6391-1.9874" stroke="#fff" stroke-width="0.5" fill="none"/>
  <path id="path5669" d="m44.684 33.894v3.25l3.25 3 2.75 0.25 0.75-1.75-6.75-4.75z" fill-rule="evenodd" fill="#fff"/>
  <path id="path7793" stroke-linejoin="round" d="m36.745-124.66-0.17678 3.7123-0.35355 0.70711 0.35355 0.88388-0.53033 3.3588" stroke="#fff" stroke-width=".5" fill="none"/>
  <path id="path3992" stroke-linejoin="round" d="m96.559 58.269-2.375-1.875-2.625 0.25001-1.125-1.625-8.75 0.25001-3 2.125 0.25001 2.625-1 3.125-2 5.375" stroke="#fff" stroke-width="0.5" fill="none"/>
  <path id="path3994" stroke-linejoin="round" d="m46.059 14.144 4 8.625-1.5 4.75 0.5 2.625-1.625 2.375 0.125 4.25 2 1.875-0.125 1.625-2.5 3-0.5 3.75" stroke="#fff" stroke-width=".5" fill="none"/>
  <path id="path4009" stroke-linejoin="round" d="m56.547-43.227 1.0858 1.4357 9.3196 1.3195 5.8107-3.9874 3.25-3.5-2.75-0.25 0.5-3.25-2.25-4 5.5 1.75 2.5 1-0.25-2 6.5-1.25 6.1516-2.8232 1.75 3 1 2.25-1.75 5.5 2 5 3.5 1.5 4.5-2.25 2-1 5.25 1.25-0.5-3 7.2552-0.48744 1.7522 3.4445 5.947-0.45741 2.283-5.2623 5.9749-3.8536" stroke="#fff" stroke-width=".5" fill="none"/>
  <path id="path4024" stroke-linejoin="round" d="m91.688-75.087-1.5 1.875-1.75 0.62502-0.50002 1 0.50002 1.625h0.87503l0.25001 1.5-3.625 0.75003 0.50002 2.625-0.82317 1.3018 2.4456 2.6313c1.5885 0.4214 3.5803 0.37234 3.8385 2.3457" stroke="#fff" stroke-width="0.5" fill="none"/>
  <path id="path4026" stroke-linejoin="round" d="m104.68-62.606-1 2.75 0.625 0.75-0.375 0.625-2.75 0.375 0.125 1.625-0.75 2.125 2.125 3.5 0.875-0.125 0.375 2 1.375 4.125" stroke="#fff" stroke-width=".5" fill="none"/>
  <path id="path4028" stroke-linejoin="round" d="m117.01-46.487 0.87503-2.25-0.37501-1.25 1-1.375-1-1.75-1.125-4.5 1.625-2.125 0.12488-1.625" stroke="#fff" stroke-width="0.5" fill="none"/>
  <path id="path4043" stroke-linejoin="round" d="m20.226-38.357-1.8256 0.59138 1.9191 1.6021 0.25077 2.3913-1.4719-0.57749-0.06499 1.2483-1.9885 4.5276-3.7894 3.0568-5.8159 1.6518-2.3044 3.3845-0.82597 3.8372-1.7465 2.2871-1.8464-0.59699-0.8814-2.299-1.117-0.18349-1.8985 0.40165-0.5134-2.1547 2.5262-3.1183-1.6875-3.1582" stroke="#fff" stroke-width="0.5" fill="none"/>
  <path id="path4073" d="m-54.806-34.696 1.3095 1.6256v0.76761l0.4516 0.40636-0.63216 0.90307-1.1289 0.0446-0.76761-0.6774 1.3547-0.58705-0.58705-1.2643-0.2258 0.6774-0.76761-0.58705 0.81285-0.13545-0.76761-0.7225 0.9483-0.4516z" fill-rule="evenodd" fill="#b9b9b9"/>
  <path id="path4075" d="m-53.412-33.902 0.73436 0.89402 0.15966-0.63866-0.89402-0.25549z" fill-rule="evenodd" fill="#b9b9b9"/>
  <path id="path4077" d="m-52.614-32.369 0.47899-0.51085 0.83018 0.60667-0.47899 0.54284-0.83018-0.63866z" fill-rule="evenodd" fill="#b9b9b9"/>
  <path id="path4079" d="m-49.804-31.443 0.60668-0.76634 0.31933 0.2235-0.926 0.54283z" fill-rule="evenodd" fill="#b9b9b9"/>
  <path id="path4081" d="m-52.678-35.722 0.25549 0.47899 0.35118-0.2235-0.60667-0.25549z" fill-rule="evenodd" fill="#b9b9b9"/>
  <path id="path4083" d="m-51.848-30.454-0.57469 0.09557 0.12768 0.44701 0.44701-0.54283z" fill-rule="evenodd" fill="#b9b9b9"/>
  <path id="path83325" d="m295.15 21.621c0.74975-94.068-51.105-186.12-131.94-234.09-81.516-50.355-189.62-52.618-273.22-5.8206-83.309 44.769-139.74 135.78-141.76 230.48-4.8323 99.79 51.208 199.4 138.63 247.46 82.962 48.17 191.5 47.207 273.61-2.4322 82.496-47.471 135.37-140.39 134.68-235.61z" stroke="#aaa" stroke-miterlimit="10" stroke-width="1.52" fill="none"/>
  <path id="path4745" d="m57.781-116.53h5.1265l1.4142-2.1213-7.6014 0.35355 1.0607 1.7678z" fill-rule="evenodd" fill="#b9b9b9"/>
  <path id="path5517" d="m52.124-119.18-0.88388 1.7678-9.7227-1.0607-3.0052 3.0052-3.182-2.1213-7.955 1.0607-2.6517-1.4142 1.0607-1.2374 7.7782 0.35355-1.9445-1.591 0.7071-1.591-3.182-0.53033 2.8284-1.591 12.374 1.0607 1.591 1.4142 2.1213-0.17677-1.7678 1.0607 5.8336 1.591z" fill-rule="evenodd" fill="#b9b9b9"/>
  <path id="path5519" d="m13.94-118.12 2.4749 2.2981-6.364 0.53033-3.0052-2.2981 6.8943-0.53033z" fill-rule="evenodd" fill="#b9b9b9"/>
  <path id="path5521" d="m27.729-127.66 2.4749 0.17677 0.53033-1.2374-3.0052 1.0607z" fill-rule="evenodd" fill="#b9b9b9"/>
  <path id="path5523" d="m25.608-124.83-3.3588 1.4142-12.728 0.53033 3.0052-1.7678-0.53033-1.591-4.0659-0.17678-3.182-3.182-13.258-1.4142-1.0607-1.0607 1.591-0.35355-0.53033-0.70711h-3.3588l-5.6568 3.3588-3.5355-0.17678 1.7678-0.53033 1.4142-2.4749 12.198-2.1213 5.8336 0.7071 12.551 5.6569 6.364 0.7071-0.35355 1.7678 6.8943 1.4142z" fill-rule="evenodd" fill="#b9b9b9"/>
  <path id="path5525" d="m-13.814-130.31-0.17678 2.1213 2.4749-0.53033-0.88388-1.4142-1.4142-0.17677z" fill-rule="evenodd" fill="#b9b9b9"/>
  <path id="path5527" d="m45.583-149.41 1.2374 1.4142 0.35355-2.2981-1.591 0.88388z" fill-rule="evenodd" fill="#b9b9b9"/>
  <path id="path5529" d="m6.9343-142.73-0.5 2.5 1.75 1 1.25-1.5-2.5-2z" fill-rule="evenodd" fill="#b9b9b9"/>
  <path id="path5590" stroke-linejoin="round" d="m-36.191-95.231 2.875-0.25 2.25-4.625 4.875 0.5 2.625-4 1.75 1.75 1.625-1.75h5.375" stroke="#fff" stroke-width=".5" fill="none"/>
  <path id="path5531" d="m10.684-145.23 1.125 0.25 0.625-2.5-2.375-1 1.5 1.25-0.875 2z" fill-rule="evenodd" fill="#b9b9b9"/>
  <path id="path5533" d="m13.934-143.73 2.5 1.25v0.75l-2.5-2z" fill-rule="evenodd" fill="#b9b9b9"/>
  <path id="path5541" d="m50.003-216.67 8.3969 1.8562 0.17678-0.61872-3.6239-0.88388-4.9498-0.35356z" fill-rule="evenodd" fill="#b9b9b9"/>
  <path id="path5543" d="m53.627-209.95-0.7071 0.88388 5.2149 2.0329 2.5633-1.5026-6.1872 0.17678-0.88389-1.591z" fill-rule="evenodd" fill="#b9b9b9"/>
  <path id="path5545" d="m22.868-192.45 6.0988-1.3258-1.6794 1.0607-4.4194 0.26517z" fill-rule="evenodd" fill="#b9b9b9"/>
  <path id="path5549" d="m-8.6907-242.04 2.9375-0.1875 0.6875 0.75 4.9375-1.8125 0.875 0.75 3.4375 0.3125 1.4375-0.6875-1.5-0.4375-2 0.3125 0.5625-1-4.9375-0.9375-0.75 0.5625-0.9375-0.875-2.375 2.4375-2.375 0.8125z" fill-rule="evenodd" fill="#b9b9b9"/>
  <path id="path5551" d="m-3.1907-240.73 0.625 0.6875 4.25-1.3125-2.4375 0.1875-2.4375 0.4375z" fill-rule="evenodd" fill="#b9b9b9"/>
  <path id="path5553" d="m5.4343-239.98 1.1875-0.75 0.4375 0.625-1.625 0.125z" fill-rule="evenodd" fill="#b9b9b9"/>
  <path id="path5555" d="m4.1843-229.29 1.75-1.25 0.1875 1.25h-1.9375z" fill-rule="evenodd" fill="#b9b9b9"/>
  <path id="path5557" d="m9.2468-242.36 1.1875 0.6875 0.5625-0.8125-1.75 0.125z" fill-rule="evenodd" fill="#b9b9b9"/>
  <path id="path5559" d="m13.247-249.17-0.375 1.4375 2.75-0.125 0.375-0.9375-2.75-0.375z" fill-rule="evenodd" fill="#b9b9b9"/>
  <path id="path5561" d="m39.559-239.54 0.375-0.625-1.4375 0.0625 1.0625 0.5625z" fill-rule="evenodd" fill="#b9b9b9"/>
  <path id="path5563" d="m69.997-218.61 3.375-2.25 1.375 0.5625-1.75 0.1875 1.5 0.625-1.375 3.375 1.25-1.25 0.1875 0.1875 1.9375 0.3125-1.1875 1.125 2.8125-0.25v1.25l2.125-1.25 0.4375 0.875 2.5625-0.125-0.75 2.0625 3.1875-0.25-2.375 0.875 1.25 0.0625-0.5625 0.5625 1.625 0.875 1.0625-1.5-0.375 1.5 1.0625-0.8125 0.9375 0.9375-0.25 2.0625h-1.5625l-0.375-1.375-1.375 0.875 0.125-1.5-1.5-0.9375-1.9375 2.0625h-2.625l3.125-1.5-4 0.3125 0.125-1.25-2.6875 1.125-4.625-0.8125-2.5 0.5-1-0.625 2.9375-1.375h-3.125l1.8125-1.5625 2.125 0.4375-1.625-1.1875 1.4375-0.125-0.8125-2.8125z" fill-rule="evenodd" fill="#b9b9b9"/>
  <path id="path5565" d="m-2.5657-222.98 3-0.625 0.875 1.375-3.875-0.75z" fill-rule="evenodd" fill="#b9b9b9"/>
  <path id="path5567" d="m19.509-245.4-4.2426 0.53033-3.2704-0.53033-1.8562 1.5026 7.4246 0.17678v-0.7955l1.9445 0.88389 0.70711-0.7955 1.3258 1.5026 3.2704-0.0884-1.8562 0.35355 1.3258 0.61872 12.463 1.2374-7.1595-2.4749 2.6516 0.70711-0.7071-0.7955 7.1594 1.7678-1.5026-1.9445 1.8562 1.0607-0.88389-1.4142h-2.4749l1.3258-0.35355-1.5026-0.44194-1.2374 0.44194-1.0607-0.97227v0.53033l-1.591-1.3258-1.7678 0.44194-0.61872-1.0607 2.3865 0.26517-1.5026-0.88389 1.591 0.0884 1.7678 0.70711 1.2374-0.35355-0.53033 0.79549 2.4749-0.70711-1.5026 0.70711 4.331 1.0607-0.61872-1.2374 1.4142 0.53033-0.53033-1.149 1.3258 0.44194-1.0607-0.61872 1.7678 0.0884-1.0607-0.35356 0.97227-0.0884-1.3258-0.35356-0.88388 0.61872-0.44194-0.53033-1.6794 0.26517 0.79549-0.7955-0.79549 0.44194-1.591-0.0884 1.2374-0.35355-1.7678-0.53033-0.97227 0.17678-0.26517 0.17677-1.149-0.53033-0.0884 0.53033-0.35355-0.79549-0.35355 0.61872v-0.7955l-0.70711 0.53033-1.149-0.61872-3.9775-0.17677 2.5633-0.26517-1.0607-0.61872h-2.3865l4.2426-0.61871-4.1542-0.35356-14.407-0.26516 1.149 1.2374 0.70711-0.26516 0.0884 0.17678 1.591 0.0884 1.0607 0.35356-1.591 0.53033 1.7678-0.17678 2.1213 0.53033 0.88389-0.44194 2.6516 1.7678-3.8891 1.591 1.9445 0.88388z" fill-rule="evenodd" fill="#b9b9b9"/>
  <path id="path5571" d="m80.541-245 3.4471 1.37-1.9445 0.13258 2.0329 0.0884 1.1932 0.66291-1.8562-0.30936 1.5026 0.53033-0.97227 0.0442 0.83969 0.26517-1.5468-0.0442 1.8562 0.44194-1.149-0.13259 0.92807 0.30936-2.2097 0.13259 2.5633 0.66291-1.5026-0.17678 2.5191 0.70711-0.97227 0.57452h1.5026l-1.1932 0.35356 1.4584 0.17677-1.0165-0.0442 1.5468 0.48614-1.2374 0.53033 1.8562 0.44194-2.6075-0.0884 1.0607 0.17678 1.37 0.48613-1.5468-0.39774-0.57452 0.79549-0.66291-1.0165-0.57453 0.66291-0.0442-0.92808-0.66291 0.48614-0.83969-0.66292-0.83969 0.26517 0.22097-0.48614-1.2816 0.17678 1.0165-0.48614-4.0217 0.30936-1.4142-0.7513-2.74-0.22097 1.37-0.30936-0.92808 0.0442-1.149-0.26516-0.0884-0.48614h-1.37l0.17677-0.22097-2.3865-0.48614-0.17678-0.79549-0.39775 0.22097-0.39774-0.44194-1.9887-0.17678 1.2816-0.0442-1.9004-0.22097 1.0165-0.30936-2.0771 0.0884 0.7955-0.48614-1.9446-0.30936 2.0771-0.48613 1.1932 0.13258-3.7565-1.2816 1.1932 0.79549-1.4584 0.61872-1.0607-0.61872 1.0607-0.48613-1.5026 0.30936-0.57453-0.88389 2.0329-0.26516-1.2374-0.22097-1.591 0.66291-1.9887-0.44194 2.0329-0.66291-2.8726 0.0884 4.1101-0.83968-1.7236-0.26517-2.3423 0.7955-0.97227-0.26517h1.3258l-1.5468-0.26516 1.6794-0.22098-3.1378-0.44194 3.3146 0.0884-3.4913-0.39775 4.2868-0.22097-2.8284-0.0884 0.57452-0.17677-2.2981 0.39775-0.13259-0.61872 1.591-0.0442-1.0607-0.48613 6.143 0.57452 9.325 1.4142 8.6621 1.591 1.6352 0.88389z" fill-rule="evenodd" fill="#b9b9b9"/>
  <path id="path5574" stroke-linejoin="round" d="m-117.39-203.68c29.834-10.222 60.969-12.35 90.138-10.607l1.9329-0.0725 4.75-1.25 5.25 1 5.5 2 7 4v3.75l-4.5 4.25 12-0.25 5-4.75 6.5 0.5 4.75-4.25 14.25-0.5 4-4.25 5.25 0.5 1 3 2.5 1.25" stroke="#fff" stroke-width=".5" fill="none"/>
  <path id="path5576" stroke-linejoin="round" d="m-133.71-162.44 8.5793 1.8042 9.5906 4.3798 8.209-1.3672 1.0186-2.1418 6.6692 1.071 3.3563 3.4348 1.9023 5.0193 3.9049-1.0317 2.0722-2.5162 3.4129 0.92292 3.2692 6.1947 1.8414 5.5156 5.1194 1.3844" stroke="#fff" stroke-width="0.5" fill="none"/>
  <path id="path5578" stroke-linejoin="round" d="m-56.566-98.356 3.125-7.25h5.75l-1-2.625-2.75-2.625h2.5l0.5-3 8.75 0.125" stroke="#fff" stroke-width=".5" fill="none"/>
  <path id="path5580" stroke-linejoin="round" d="m-39.816-106.98 0.5-9.375h2.5" stroke="#fff" stroke-width=".5" fill="none"/>
  <path id="path5582" stroke-linejoin="round" d="m-36.566-106.61-4.9856 2.7574-0.51442 3.7426-5.25 3.5" stroke="#fff" stroke-width="0.5" fill="none"/>
  <path id="path5584" stroke-linejoin="round" d="m-37.691-95.731-2.25-3-2.5-0.875" stroke="#fff" stroke-width=".5" fill="none"/>
  <path id="path5586" stroke-linejoin="round" d="m-16.648-89.856-5.7396 1.7286-5.038-0.29109" stroke="#fff" stroke-width=".5" fill="none"/>
  <path id="path5588" stroke-linejoin="round" d="m-15.924-77.96 1.6449-3.3148 4.0282-1.7458" stroke="#fff" stroke-width=".5" fill="none"/>
  <path id="path5592" d="m166.85-209.95-1.4142 0.26516 3.8007 2.9168 0.61872 1.149 1.0607-0.26517 2.8284 2.4749-0.88389-1.0607 4.2426 3.2704h1.2374l2.5633 2.2097 0.26517-0.26516 1.2374 1.2374 1.2374-0.44194-15.026-10.695 1.9445 1.9446-1.591-0.0884-2.1213-2.6517z" fill-rule="evenodd" fill="#b9b9b9"/>
  <path id="path5594" d="m173.75-203.15 0.79549 1.149 0.35355-0.70711 2.2097 1.9445 1.0607 1.4142 5.5685 4.2426-0.88389 0.97227-0.7071-0.61872-0.35356 0.53033-0.17677-0.79549-1.0607-0.17678-0.0884-0.53033-0.7955-0.44194 0.53033-0.7955-1.0607 0.17678-0.79549-1.5026-2.0329-0.97227-0.70711-0.7955-1.7678-0.88388 1.7678 0.0884-1.5026-0.88389-0.35355-1.4142z" fill-rule="evenodd" fill="#b9b9b9"/>
  <path id="path5596" d="m211.49-173.71-5.1265-1.591-1.149-1.2374-0.17674 1.8562 2.5633 1.9445 5.5685 7.513 1.6794 3.6239 0.53035-0.53034 0.97226 2.0329 0.35348-0.17677 2.5633 4.5962 2.2981-0.26516 4.5962 4.331-0.26518-1.8562 2.3865 0.70711-1.149-2.0329 0.70708-0.61872-7.6014-11.579-4.0847-3.9346-5.2719-4.7656-1.9469-0.63366 2.5531 2.6163z" fill-rule="evenodd" fill="#b9b9b9"/>
  <path id="path5598" stroke-linejoin="round" d="m207.31-172.73 2.125 0.75 2.25 0.5 1.375 2.25 3.75 4.125 1.6875 1.9688 0.1875 1.2188 1.6875 0.84375-0.3125 1.3438 1.625 4.625" stroke="#fff" stroke-width=".5" fill="none"/>
  <path id="path5600" d="m246.21-134.97-5.8943-6.7138-1.5518-0.24999-1.25-1.875-1.25 0.75-1.5-2-0.87503 0.375 3.25 5-0.75002 4.375 4.5 7.875 0.87504 3.5-0.50002 3.125-2.125 0.75003 1.5 4.5-0.75003 1.25 1.875 5.5-1.125 2.625 1.5 10.125 3.625 4.625-0.37501 2.125 3.375 6.5 1 7.375-1.375 4 3.125 3.5 0.50002 1.5 1.875-0.12488-1 1-1.5-1 0.62503 3.5 0.87503 0.25001-0.87503 0.75003 1.5 0.25001 0.12488 1 0.87503 0.25001 0.62502 1 1.25-0.62502-1 0.87503 0.87504 0.87503-0.75003 0.75003 0.87503 1.625 0.87503-0.62502-0.12487 1 1-0.25001 0.25 1.5 0.37502 1.75 2 1.875-0.12488 1.75 1 0.25001 0.50002 2.75 1 0.75003-1.25 0.62502 1.875 1.875 0.37502 2 2.75 2.625 4.875 8.375 2.625 5.375 4.25 1 3.125 1.625 3.25 2.5 3.125-4.25 2.25-0.75003-0.37502 0.75003 1.5 1.5-2.1051-13.608-3.6376-14.777-6.25-19.629-11.216-26.85-12.307-22.514-9.7883-15.533z" fill-rule="evenodd" fill="#b9b9b9"/>
  <path id="path5602" d="m232.44-133.32v2.1213l0.88383-0.70711-0.88383-1.4142z" fill-rule="evenodd" fill="#b9b9b9"/>
  <path id="path5604" d="m233.32-131.02 0.17674 2.2981 1.0607-0.35355-1.2374-1.9445z" fill-rule="evenodd" fill="#b9b9b9"/>
  <path id="path5606" d="m231.38-129.78 0.88382 0.70712-0.88382 0.53033v-1.2374z" fill-rule="evenodd" fill="#b9b9b9"/>
  <path id="path5608" d="m229.61-131.2-0.35361 1.9445-0.70708-1.0606 1.0607-0.88388z" fill-rule="evenodd" fill="#b9b9b9"/>
  <path id="path5610" d="m229.78-85.59 1.2374 1.0607-1.0607 0.35361-0.17674-1.4142z" fill-rule="evenodd" fill="#b9b9b9"/>
  <path id="path5625" stroke-linejoin="round" d="m246.93-134.05-1.2892 4.2374 1.5 2.75 0.37502 1.625-1.875-0.375-0.37501 1.625 2 2.375v1.75l3.875 6.625-5.375-1.625 5.5 10.75-1.875 0.37501 0.50002 2.125 2.625 6.625-11.048-0.41796" stroke="#fff" stroke-width="0.5" fill="none"/>
  <path id="path5627" stroke-linejoin="round" d="m239.76-122.69 7.75 2.625 10.75 13-2.25-0.37501 2.875 6 7.75 16.125 7 18.25 0.37501 2.625-5.25-0.87503-0.25001 1-1.25-1-0.50002 0.12488-0.25001 1.5-1.5-3-0.12487 2 0.50002 1.5-1 1-7.5873-5.9179-3.5-3.75h-1.25l-0.37501 0.62502h-2.75" stroke="#fff" stroke-width="0.5" fill="none"/>
  <path id="path5629" stroke-linejoin="round" d="m258.26-106.91 7.966 6.9911" stroke="#fff" stroke-width="0.5" fill="none"/>
  <path id="path5631" stroke-linejoin="round" d="m264.39-62.313 1.875 5.125 2.625 6.625-2.25 0.12488-1.875-1.25-4.375-0.25001-2.125 1.75" stroke="#fff" stroke-width="0.5" fill="none"/>
  <path id="path5633" stroke-linejoin="round" d="m264.64-51.688-0.12488 2.625 0.25001 2.25-1.5 0.62502-1.125 2.125" stroke="#fff" stroke-width="0.5" fill="none"/>
  <path id="path5635" stroke-linejoin="round" d="m256.26-54.688 2 0.12488 0.50002-1.375 1-0.37501 1.125 1.25 2 0.50002 0.12488-1.5-1.375-0.12488-1-1.125h-1.875l-0.87504 1-1.875-0.37502" stroke="#fff" stroke-width="0.5" fill="none"/>
  <path id="path5637" stroke-linejoin="round" d="m268.14-50.563 1 2 2.75 0.37501 1.125-1.625 3.75 10.375 2.25-1 0.25001-4.125-0.37502-2.75 0.50002-2.125-1.25-3 1.25-2.625-0.12488-3.875 3.0696-3.6642" stroke="#fff" stroke-width="0.5" fill="none"/>
  <path id="path5639" stroke-linejoin="round" d="m267.64-34.188 1.75-3.25 1.75-0.12488 2.125 4 0.25001 4 2 0.50002 1.125 4.5 1.375-0.25001 0.37502-3-0.75003-2.5 1-0.37502-1.125-3.5-0.75003-5.75" stroke="#fff" stroke-width="0.5" fill="none"/>
  <path id="path5641" stroke-linejoin="round" d="m273.14-21.938 0.62503-7.5" stroke="#fff" stroke-width="0.5" fill="none"/>
  <path id="path5643" stroke-linejoin="round" d="m277.89-25.063 0.75003 1.875 0.12488 3.875 1.25 2.125 0.62502 2.125v2.75" stroke="#fff" stroke-width="0.5" fill="none"/>
  <path id="path5645" stroke-linejoin="round" d="m279.39-40.938 1.5 3.75 2.125 1.625-1-5.5v-1.375l5.7338-0.35361" stroke="#fff" stroke-width="0.5" fill="none"/>
  <path id="path5647" stroke-linejoin="round" d="m283.01-35.813 1.25 4 0.50002 4.375-0.62503 5 1 3.375 0.75003 4.625" stroke="#fff" stroke-width="0.5" fill="none"/>
  <path id="path5649" d="m-118.82-173.11 2-2.25 0.75 2-2.75 0.25z" fill-rule="evenodd" fill="#fff"/>
  <path id="path5651" d="m-107.82-177.36 2-2.25 3-0.75-5 3z" fill-rule="evenodd" fill="#fff"/>
  <path id="path5653" d="m-103.82-188.61z" fill-rule="evenodd" fill="#fff"/>
  <path id="path5655" d="m-102.07-191.86-2 4.25-0.5-1.5 2.5-2.75z" fill-rule="evenodd" fill="#fff"/>
  <path id="path5657" d="m-78.816-207.86 0.4375-1.8125 4.3125 0.5625 0.25-2.25-0.85539 1.7286-4.1446-0.47855v2.25z" fill-rule="evenodd" fill="#fff"/>
  <path id="path5659" d="m-113.82-149.61z" fill-rule="evenodd" fill="#fff"/>
  <path id="path5661" d="m-115.46-149.05 0.88388-1.0607h-1.7678l0.88388 1.0607z" fill-rule="evenodd" fill="#fff"/>
  <path id="path5663" d="m-101.32-119.71 2.2981 0.35355 0.70711-1.9445 0.53033 2.6516-3.5355-1.0607z" fill-rule="evenodd" fill="#fff"/>
  <path id="path5665" d="m-58.538-109.1 0.35356 2.4749 1.4142-0.35355-1.7678-2.1213z" fill-rule="evenodd" fill="#fff"/>
  <path id="path5667" d="m-65.256-172.39 1.9445-1.4142-0.53033 2.1213-1.4142-0.70711z" fill-rule="evenodd" fill="#fff"/>
  <path id="path5671" d="m56.184 49.394 1.5-1.25-0.25 4.25-1.25-3z" fill-rule="evenodd" fill="#fff"/>
  <path id="path5673" d="m69.934 106.39 4.25 0.25-2.5 1.75-1.75-2z" fill-rule="evenodd" fill="#fff"/>
  <path id="path5675" d="m93.434 118.39 3.25-0.75 2-2-1.25 3.5-4-0.75z" fill-rule="evenodd" fill="#fff"/>
  <path id="path5677" d="m-23.978-88.242-1.7678-2.6516-3.7123-2.9168-1.6794 0.53033 2.74 2.1213 0.97227 2.6516" fill-rule="evenodd" fill="#fff"/>
  <path id="path5679" d="m131.18 76.644h2.25l-1.25 1.75-1-1.75z" fill-rule="evenodd" fill="#fff"/>
  <path id="path5681" d="m149.18 60.144 2.5-2.75-1.5-2.75-1.25 1.5 1.5 1.25-1.25 2.75z" fill-rule="evenodd" fill="#fff"/>
  <path id="path5683" d="m143.43 69.394 2.5 1v-1.25l1.75-1.25-0.5-1.5-3 0.25 1.75 1.25-2.5 1.5z" fill-rule="evenodd" fill="#fff"/>
  <path id="path5685" d="m-3.0657-154.36 0.75 2.75-2.5-0.5 1.75-2.25z" fill-rule="evenodd" fill="#fff"/>
  <path id="path5687" d="m-8.0657-176.86 0.5 2.25 2-1-2.5-1.25z" fill-rule="evenodd" fill="#fff"/>
  <path id="path5689" d="m-65.432-211.99 3.6284 1.2785 1.5499 1.8303-1.8392 2.6498 0.0821 0.99632 0.89461-1.0695 1.1106 3.0141 0.50889 0.12684-1.3695-3.723 1.0999-1.6605-1.4231-2.382 1.4142-0.88389-1.9446 0.53033-3.7123-0.7071z" fill-rule="evenodd" fill="#fff"/>
  <path id="path5691" d="m-72.68-216.05 4.5962-1.0607-0.53033-1.591-4.0659 2.6516z" fill-rule="evenodd" fill="#fff"/>
  <path id="path5693" d="m-50.23-223.83 2.4749 5.1265v-4.0659l1.9446-1.9446 3.8891 4.773 1.591-0.88388 0.17678-6.1872-10.076 3.182z" fill-rule="evenodd" fill="#fff"/>
  <path id="path5695" d="m-39.8-230.37 3.8891-2.8284-5.6568 2.1213 1.7678 0.70711z" fill-rule="evenodd" fill="#fff"/>
  <path id="path5697" d="m-32.729-227.01 3.0052-1.7678 1.4142 0.70711-4.4194 1.0607z" fill-rule="evenodd" fill="#fff"/>
  <path id="path5699" d="m-20.531-219.94-0.7071 4.2426-5.1265 1.591-2.6516-0.17677-3.7123 1.4142 6.1872 0.88389 1.7678-1.0607 3.182 0.53033 1.4142 1.2374 5.8336-0.53033-0.88389 1.591-4.773 1.2374-1.4142 2.4749 2.1213-0.17677-3.3588 3.3588 1.2374 2.8284 1.591 0.17678 2.6516-2.2981 0.70711-4.5962 4.4194-1.0607-0.53033-3.7123 0.53033-1.2374 2.4749 0.7071v2.1213l3.5355 1.4142 0.17678 2.6516-3.8891 0.88388 5.3033 0.70711 2.8284 0.17678 2.1213-3.182 5.3033-0.88389-2.2981-2.4749 3.3588-0.70711-4.2426-0.17677-4.0659 1.0607-6.7175-1.4142-1.4142-3.7123-3.8891-0.17678-4.4194-5.4801-2.6516 1.7678z" fill-rule="evenodd" fill="#fff"/>
  <path id="path5701" d="m139.1-26.9-8.3085 3.3588-0.70711 1.4142-5.4801-4.0659-5.3033 2.8284-3.7123-0.17677-2.2981 4.0659 1.2374-4.2426-3.7123-1.4142-4.4194 2.8284-0.70711-1.591-3.182 0.17678-5.6568 3.8891-5.1265-1.4142-6.1872 3.182-10.253 1.7678-2.6516-3.8891-5.8336-4.9497-8.8388 0.7071-4.773 3.5355-5.6568 0.88388-2.2981 2.1213-2.2981-2.2981h-3.3588l-3.3588-2.2981-5.1265 0.35355-1.2374 1.591 1.2374-2.6516 6.1872 0.17678 2.6516 2.8284 2.8284-0.17677 2.4749 1.9445 3.182-2.6516 4.2426-0.35355 3.5355-1.9446 3.3588-2.1213 8.1317-0.17677 4.5962 4.5962 2.8284 4.4194 5.3033-0.70711 7.2478-2.2981 1.4142-1.7678-0.70711-2.4749-3.7123-5.8336-8.4853-4.5962-6.8943-2.4749-6.1872 2.1213 4.5962-1.9446 3.182-0.88388 3.8891 2.2981 6.364 2.4749 6.5407 5.4801 4.773 5.1265 4.2426 1.9445 4.2426-3.182 3.0052-1.2374 2.8284 1.2374 3.7123-2.2981-0.35355-1.9446-2.8284-1.591 2.6516 0.17678 1.2374 3.0052 3.0052 1.591 4.0659 1.4142 7.0711-3.8891 3.8007 3.5355 3.9775-1.591 6.0104-1.9445z" fill-rule="evenodd" fill="#fff"/>
  <path id="path5714" stroke-linejoin="round" d="m9.8129-77.745 0.77129 3.1331-2.1498 2.583 1.4062 1.375 1.4688 1.5625 1.0625 0.875 0.0937 1.5-0.78125-0.25 0.625 2.25-1 0.625 0.5625 1.0938-0.4375 2.0312 0.65625 1.125-0.90625 2.25 1 1.5-1.3438 1.3125-1.0312 1.8125-0.90625 2.0625-1.5938-0.1875-1.4688 0.59375-0.90625 1.0312 0.375 1.75-1.3125-0.0625-0.6875 0.9375 0.9375 0.71875-0.875 1.2812 3.4062 2.4062 1.7812 0.1875 1.5938 1.9375 1.9375 0.53125h1.9375l0.53125-0.875 2.6562 1.0625 2.4688 0.875 3.375 1.5938 1.2188 2.125 2.125 0.875 0.875 2.3125h1.4375l0.875 2.625 3.8125 0.25 2.75-0.90625 2.3438 1.25 1.9375 0.25 2.0312 0.5625 0.96875 2.375-1.8438 5.375 1.5938-0.59375 2.0938 2.25 2.2812-14.469-0.6875-3.5312-1.9375-1.5938-0.1875-2.4688 2.4688-1.2188 1.7812 0.875-0.375-2.125h-3.3438l-0.1875-3h7.4688l-0.1875-0.90625 1.4062 1.0625 1.9688-2.2812 0.875 2.2812-0.15625 2.25 1.75-0.125-0.84375-5.0938-2.6562-3.6875 2.4688-3-1.4062-1.7812-1.0625-2.8125v-3.7188l1.9375-3.5312-6.875-0.1875-1.7812 0.875-3-3.3438-4.5938-0.71875-3.9062 0.53125-3.6562-4.5312 0.90625-3-1.9375-3.7188-2.375 0.125-2.125-0.375 2.125-2.25v-1.375l1.75-3.75 2.125-0.5 1.6562-1.0312-0.21875-0.28125 0.5625-1 3.7188-1.75-0.5-1.3438-1.5312-0.75-2 1.375-0.65625-0.3125-0.65625 1.25-2.6875 0.875-2 1.5938-3.9062-0.53125-1.4688 2.8125-1.0312-0.34375 1.3125-0.875-2.125-0.59375-2 1.375-1.1562 0.8125c-0.075 0.56038-0.95621 1.5425-1.0312 1.875l0.78125-0.34375-1 2 0.65625 0.625-0.6875 0.84375-1-0.34375-1.3438 0.84375-0.5 1.375-1.6875 0.75-1.0938 0.40625 0.71875 2.8438-0.96875 0.3125 0.3125-0.96875-1.2313-0.60447-0.73392 0.82582z" stroke="#fff" stroke-width=".5" fill="none"/>
  <path id="Antarctica" d="m117.7 222.94 3.6642 4.1535 0.2272-2.543-3.8914-1.6104zm-59.727 13.148-1.2093 0.62974 3.4634 0.37845-2.2542-1.0082zm-3.1234-0.31309-6.8389 0.40968-2.5694 0.36826-10.113 5.04-1.6372-0.60222 0.36495 1.5072-4.5216 1.1425-0.3782 1.6518-2.0402-0.39222 0.23892 2.0578-2.1912-1.2835-0.37833 1.6518 2.4434 0.18235-1.6753 1.115 1.171 1.0874-4.1566 2.6498 0.768 1.2973-1.4862 0.28913-2.6441-3.9574-2.9724 0.57813 0.83094 1.022-1.7001-0.32685 0.151 0.89122-6.5867-0.69154 1.8511 1.2182 2.1282 1.5588-1.9523 0.77436 4.0175 1.0598-3.5015 1.3387 5.1886 2.1473 1.0699 3.0798-8.4628-3.3516-2.3554 0.98423 1.7251 1.7688-2.4682-1.6242-0.68007-0.13074-12.216-0.91173-0.70505-1.5727-10.088 0.6472-1.9773-0.66758 0.8061-0.41987-2.4682-1.6242-4.3326 0.31665-2.2293 0.43363-1.3982 1.4556 3.0222 2.3056 4.0805 0.78456-1.8263 0.22376 5.0874 4.1397-4.4836-0.57469 1.1081 1.3627-2.8962-2.8562-2.5063 0.093 0.302 1.7825-8.4379-1.9097-4.4586 0.86726-1.4232 0.014-6.3097-0.35093 1.4979 4.3118-0.81922 3.5789-2.0402-0.39221 2.7452 1.9649 0.617 0.40597 0.11341 2.6084 2.3172 0.73295-0.22707 2.5431 2.0402 0.39221 2.4683 1.6243-1.3982 1.4557 3.9544 1.3351 0.55405 0.68135 2.4052 1.8995 1.9772 0.66745-0.23421 2.7171c44.458 9.389 108.97 4.2542 142.25-11.779l0.40292-0.21 1.0583-1.521-1.5111-1.1528 2.6324-0.6435-4.4836-0.57456-0.33997-0.065 5.5113-0.44765-0.3401-0.065-2.1032-0.11723 0.34749-3.0081 4.1219-1.7224 0.18579-0.0357 0.40305-0.20987-0.9571-0.47148-2.7584 1.1941-3.1234-0.31309-1.3602-0.26148-6.8887-2.4742-0.0879-1.1664-13.567 2.3145-3.3125 0.51276-2.5942-1.0737-1.3511 2.9941-1.171-1.0874-2.3868 0.54691-1.8263 0.22376-3.9067 0.7327-2.3553 0.98424-7.2657 2.2362-2.7203-0.52296-4.0556 0.65726-3.8284-1.8857-0.9571-0.47135-1.0831 0.079-0.21395-0.61597-3.9295 0.10703-4.0407-3.0158-3.5919-2.2328 4.0057-3.5411 0.37807-1.6518-0.37794-5.808 0.86917-0.69511 1.3353-1.1804 2.7965-2.9113-1.9772-0.66758-0.32468-4.797 2.7965-2.9113 4.8749-4.2362 1.4106-0.0879-1.1336 0.42879 0.4279 1.232 2.5063-0.093-1.2927-1.5898 2.754-0.14118-1.1081-1.3627zm-17.745 2.7104-0.65522 1.3111 1.9523-0.77424-1.2971-0.53685zm-1.8263 0.22376-2.3553 0.98423 2.7833 0.24772 0.33997 0.065-0.768-1.2973zm-10.203 5.7986-3.0735 2.5706 2.1663-0.15839 0.90727-2.4123zm-57.119 16.897 1.7251 1.7687 2.6573 0.79833-1.1081-1.3627-3.2743-1.2043z" fill="#b9b9b9"/>
 </g>
 <g id="layer3">
  <path id="path-globeshadow" opacity=".25941" d="m158.39 145.58a44.901 44.901 0 1 1 -89.803 0 44.901 44.901 0 1 1 89.803 0z" fill-rule="evenodd" transform="matrix(5.9708 1.322 -1.3195 5.9779 -211.55 -745.95)" fill="url(#radialGradient11773)"/>
  <path id="path-globeborder" d="m548.6 274.4c0.75-94.29-51.23-186.55-132.25-234.63-81.7-50.472-190.06-52.741-273.84-5.835-83.505 44.872-140.06 136.1-142.09 231.02-4.8419 100.01 51.327 199.85 138.95 248.03 83.153 48.281 191.94 47.316 274.24-2.4378 82.686-47.58 135.69-140.71 134.99-236.15z" stroke="#aaa" stroke-miterlimit="10" stroke-width="1.5035" fill="none"/>
  <path id="path-p0" opacity="0.77" stroke-linejoin="round" d="m0.12134 268.41c79.582-76.62 484.29-69.37 547.51 0.25" stroke="#000" stroke-width="0.3" fill="none"/>
  <path id="path-p1" opacity="0.77" stroke-linejoin="round" d="m37.641 413.22c-20.463-78.18 493.46-73.29 473.44 0.71" stroke="#000" stroke-width=".30069" fill="none"/>
  <path id="path-p2" opacity="0.77" stroke-linejoin="round" d="m138.99 513.87c-30.211-51.816 300.73-53.692 269.32 0.70874" stroke="#000" stroke-width=".30069" fill="none"/>
  <path id="path-p3" opacity="0.77" stroke-linejoin="round" d="m389.17 24.838c-76.898-13.478-153.8-16.69-230.69 0" stroke="#000" stroke-width=".30069" fill="none"/>
  <path id="path-p4" opacity="0.77" stroke-linejoin="round" d="m41.967 128.33c74.077-51.08 385.92-53.112 465.07 0" stroke="#000" stroke-width=".30069" fill="none"/>
  <path id="path-m1" opacity="0.77" stroke-linejoin="round" d="m494.61 111.3c128.55 218.94-73.521 493.67-311.72 420.97" stroke="#000" stroke-width=".30069" fill="none"/>
  <path id="path-m2" opacity="0.77" stroke-linejoin="round" d="m326.83 4.5071c250.75 68.229 132.09 560.45-88.78 541.21" stroke="#000" stroke-width=".30069" fill="none"/>
  <path id="path-m3" opacity="0.77" stroke-linejoin="round" d="m295.08-0.0032946c109.32 96.985 28.18 537.76-26.99 548.48" stroke="#000" stroke-width=".30069" fill="none"/>
  <path id="path-m4" opacity="0.77" stroke-linejoin="round" d="m252.27 0.74106c-78.44 38.354-51.33 508.35 30.86 547.74" stroke="#000" stroke-width=".30069" fill="none"/>
  <path id="path-m5" opacity="0.77" stroke-linejoin="round" d="m233.44 2.5025c-269.8 63.218-142.12 562.21 78.76 542.97" stroke="#000" stroke-width=".30069" fill="none"/>
  <path id="path-m6" opacity="0.77" stroke-linejoin="round" d="m54.496 111.3c-128.55 218.94 73.521 493.67 311.72 420.97" stroke="#000" stroke-width=".30069" fill="none"/>
 </g>
</svg>
